<svg width="513" height="513" viewBox="0 0 513 513" fill="none" xmlns="http://www.w3.org/2000/svg">
<path d="M256.012 455.008C381.659 455.008 483.516 353.151 483.516 227.504C483.516 101.857 381.659 0 256.012 0C130.365 0 28.5078 101.857 28.5078 227.504C28.5078 353.151 130.365 455.008 256.012 455.008Z" fill="#FFD93B"/>
<path d="M483.514 227.504C483.514 353.2 381.626 455.008 256.01 455.008C184.49 455.008 120.634 422.016 78.9062 370.336C117.946 401.904 167.642 420.752 221.738 420.752C347.37 420.752 449.242 318.944 449.242 193.248C449.242 139.136 430.394 89.44 398.826 50.416C450.458 92.144 483.514 155.984 483.514 227.504Z" fill="#E9B02C"/>
<path d="M188.473 206.432C186.217 208.112 182.201 206.944 179.769 203.696C177.337 200.448 177.257 196.304 179.673 194.592C182.057 192.736 185.929 193.936 188.345 197.168C190.777 200.416 190.857 204.576 188.473 206.432Z" fill="#5A5F63"/>
<path d="M221.867 202.096C221.867 233.536 196.379 259.008 164.955 259.008C133.531 259.008 108.043 233.52 108.043 202.096C108.043 170.672 158.971 132.624 190.363 134.304C221.739 135.968 221.867 170.656 221.867 202.096Z" fill="white"/>
<path d="M349.434 206.432C347.178 208.112 343.162 206.944 340.73 203.696C338.298 200.464 338.218 196.304 340.634 194.592C343.018 192.736 346.89 193.936 349.306 197.168C351.738 200.416 351.818 204.576 349.434 206.432Z" fill="#5A5F63"/>
<path d="M281.211 202.096C281.211 233.536 306.699 259.008 338.123 259.008C369.547 259.008 395.035 233.52 395.035 202.096C395.035 170.672 344.107 132.624 312.715 134.304C281.339 135.968 281.211 170.656 281.211 202.096Z" fill="white"/>
<g opacity="0.2">
<path opacity="0.2" d="M281.425 378.354C277.136 376.478 272.662 377.239 271.43 380.054C270.199 382.868 272.677 386.671 276.966 388.547C281.254 390.423 285.729 389.662 286.96 386.847C288.191 384.033 285.713 380.23 281.425 378.354Z" fill="white"/>
</g>
<path d="M454.441 479.341C456.232 480.389 457.266 481.511 457.266 482.617C457.266 484.671 454.106 486.534 448.646 488.122C458.388 489.942 464.358 492.447 464.358 495.315C464.358 501.053 439.078 505.727 407.988 505.727C385.781 505.727 366.574 503.325 357.429 499.815C357.429 499.815 357.429 499.815 357.341 499.815C355.55 499.873 353.584 499.873 351.706 499.873C320.528 499.873 295.336 495.199 295.336 489.461C295.336 486.418 302.428 483.666 313.699 481.802C303.709 479.938 297.477 477.36 297.477 474.492C297.477 468.696 322.669 464.08 353.759 464.08C362.642 464.08 371.015 464.429 378.442 465.128C388.009 461.91 406.459 459.74 427.632 459.74C458.722 459.74 484.002 464.429 484.002 470.152C483.988 474.069 472.032 477.521 454.441 479.341Z" fill="#45CBEA"/>
<path d="M423.218 486.461C432.596 484.86 439.265 476.501 438.595 467.007C435.479 422.607 428.314 377.115 411.83 336.356C398.011 298.887 379.4 262.686 353.917 228.014C347.932 232.601 340.534 235.79 331.797 237.071C349.038 274.743 359.057 311.658 364.27 348.646C368.857 374.581 370.168 413.214 363.018 464.123C361.868 472.322 366.455 480.418 374.173 483.403C387.118 488.384 403.049 489.898 423.218 486.461Z" fill="#45CBEA"/>
<g opacity="0.2">
<path opacity="0.2" d="M376.61 344.22C370.304 311.703 355.145 268.643 337.423 235.922C337.219 235.98 337.015 236.038 336.797 236.082C353.456 269.458 364.975 309.286 372.285 345.108C382.027 388.372 382.274 432.801 378.357 477.944C385.988 415.239 382.507 370.301 376.61 344.22Z" fill="white"/>
</g>
<g opacity="0.2">
<path opacity="0.2" d="M389.115 342.21C377.218 297.606 358.739 258.653 343.798 233.781C343.696 233.824 343.594 233.854 343.492 233.897C358.462 259.76 376.14 299.368 386.989 342.763C400.343 389.551 400.459 435.713 398.144 479.516C397.794 483.986 402.192 484.336 402.541 479.865C404.187 435.305 401.974 384.717 389.115 342.21Z" fill="white"/>
</g>
<g opacity="0.2">
<path opacity="0.2" d="M402.846 339.939C391.531 303.374 373.46 263.226 351.267 229.806C350.146 230.549 348.966 231.248 347.758 231.889C370.154 264.449 388.808 304.015 400.764 340.638C419.622 391.649 421.369 442.485 422.316 481.439C421.893 434.433 420.044 389.931 402.846 339.939Z" fill="white"/>
</g>
<path d="M47.5465 479.342C45.7553 480.39 44.736 481.512 44.736 482.618C44.736 484.672 47.8959 486.535 53.3567 488.123C43.6293 489.943 37.6442 492.448 37.6442 495.316C37.6442 501.039 62.924 505.728 94.0141 505.728C116.221 505.728 135.429 503.326 144.574 499.816C144.574 499.816 144.574 499.816 144.661 499.816C146.452 499.874 148.418 499.874 150.296 499.874C181.474 499.874 206.666 495.2 206.666 489.462C206.666 486.419 199.575 483.667 188.304 481.803C198.293 479.939 204.526 477.361 204.526 474.493C204.526 468.697 179.333 464.081 148.243 464.081C139.36 464.081 130.987 464.43 123.561 465.129C113.993 461.911 95.5431 459.741 74.3698 459.741C43.2798 459.727 18 464.416 18 470.153C18 474.07 29.9555 477.522 47.5465 479.342Z" fill="#45CBEA"/>
<path d="M79.3096 482.764C70.0627 481.191 63.4952 472.949 64.1505 463.585C67.2231 419.826 74.2857 374.975 90.537 334.798C104.153 297.869 122.501 262.177 147.635 228C153.533 232.514 160.814 235.66 169.434 236.941C152.44 274.074 142.567 310.465 137.427 346.929C132.913 372.5 131.617 410.565 138.665 460.746C139.8 468.828 135.272 476.808 127.67 479.749C114.899 484.671 99.2014 486.157 79.3096 482.764Z" fill="#45CBEA"/>
<g opacity="0.2">
<path opacity="0.2" d="M125.252 342.56C131.456 310.509 146.411 268.06 163.871 235.805C164.075 235.863 164.278 235.922 164.482 235.965C148.071 268.861 136.698 308.12 129.504 343.433C119.893 386.086 119.66 429.874 123.519 474.376C116.02 412.574 119.456 368.276 125.252 342.56Z" fill="white"/>
</g>
<g opacity="0.2">
<path opacity="0.2" d="M112.932 340.579C124.654 296.616 142.886 258.216 157.608 233.708C157.71 233.752 157.812 233.781 157.914 233.824C143.148 259.323 125.732 298.364 115.043 341.132C101.879 387.251 101.777 432.757 104.049 475.934C104.311 479.196 99.9716 479.531 99.7095 476.283C98.0786 432.349 100.263 382.489 112.932 340.579Z" fill="white"/>
</g>
<g opacity="0.2">
<path opacity="0.2" d="M99.3892 338.338C110.544 302.297 128.353 262.731 150.24 229.777C151.347 230.505 152.497 231.19 153.706 231.831C131.63 263.94 113.252 302.923 101.457 339.037C82.8612 389.305 81.1429 439.428 80.2109 477.828C80.6187 431.491 82.4389 387.616 99.3892 338.338Z" fill="white"/>
</g>
<path d="M428.534 248.052C435.291 254.751 435.349 265.658 428.65 272.429C421.952 279.186 411.045 279.244 404.273 272.545C397.502 265.847 391.43 235.587 391.43 235.587C391.43 235.587 421.763 241.353 428.534 248.052Z" fill="#45CBEA"/>
<g opacity="0.2">
<path opacity="0.2" d="M428.254 258.869C427.701 255.945 425.754 253.858 423.905 254.208C422.055 254.557 421.005 257.211 421.558 260.135C422.11 263.059 424.058 265.146 425.907 264.796C427.756 264.446 428.807 261.793 428.254 258.869Z" fill="white"/>
</g>
<path d="M456.753 313.843C459.71 322.886 454.773 332.628 445.73 335.584C436.687 338.54 426.945 333.604 423.989 324.561C421.033 315.518 429.45 285.811 429.45 285.811C429.45 285.811 453.783 304.8 456.753 313.843Z" fill="#45CBEA"/>
<g opacity="0.2">
<path opacity="0.2" d="M449.834 317.14C448.029 316.607 445.883 318.488 445.04 321.342C444.198 324.196 444.978 326.942 446.783 327.475C448.588 328.008 450.734 326.126 451.577 323.272C452.419 320.418 451.639 317.673 449.834 317.14Z" fill="white"/>
</g>
<path d="M80.6902 248.286C74.676 255.669 75.7973 266.517 83.1803 272.532C90.5633 278.546 101.412 277.424 107.426 270.041C113.44 262.659 116.236 231.918 116.236 231.918C116.236 231.918 86.7043 240.903 80.6902 248.286Z" fill="#45CBEA"/>
<g opacity="0.2">
<path opacity="0.2" d="M85.8734 253.907C84.0055 253.758 82.2986 256.041 82.0608 259.007C81.8231 261.973 83.1445 264.499 85.0124 264.649C86.8803 264.799 88.5873 262.515 88.825 259.549C89.0628 256.583 87.7413 254.057 85.8734 253.907Z" fill="white"/>
</g>
<path d="M41.3148 337.667C40.2226 347.118 46.994 355.68 56.4593 356.773C65.9101 357.865 74.4726 351.093 75.5648 341.628C76.6569 332.177 62.488 304.757 62.488 304.757C62.488 304.757 42.4069 328.202 41.3148 337.667Z" fill="#45CBEA"/>
<g opacity="0.2">
<path opacity="0.2" d="M54.3197 342.738C52.9238 340.11 50.4448 338.695 48.7826 339.578C47.1205 340.461 46.9047 343.307 48.3006 345.935C49.6965 348.563 52.1755 349.978 53.8376 349.095C55.4998 348.213 55.7156 345.366 54.3197 342.738Z" fill="white"/>
</g>
<path d="M171.064 239.68C186.749 239.68 199.464 226.965 199.464 211.28C199.464 195.595 186.749 182.88 171.064 182.88C155.379 182.88 142.664 195.595 142.664 211.28C142.664 226.965 155.379 239.68 171.064 239.68Z" fill="#3E4347"/>
<path d="M332.009 239.68C347.694 239.68 360.409 226.965 360.409 211.28C360.409 195.595 347.694 182.88 332.009 182.88C316.325 182.88 303.609 195.595 303.609 211.28C303.609 226.965 316.325 239.68 332.009 239.68Z" fill="#3E4347"/>
<path d="M373.163 289.166C364.203 337.774 316.251 379.31 254.171 379.166C192.091 379.31 144.155 337.758 135.179 289.166C133.867 282.59 139.979 276.926 146.523 278.174C217.611 291.662 290.619 291.678 361.707 278.19C368.347 276.926 374.475 282.59 373.163 289.166Z" fill="#3E4347"/>
<path d="M323.022 360.174C325.502 387.214 315.518 418.846 308.574 449.614C299.55 482.446 275.87 505.39 245.758 502.526C219.998 500.158 200.574 476.654 192.302 447.214C185.422 417.214 175.982 386.526 178.414 360.174C178.958 354.51 181.646 350.014 185.726 346.926C195.454 339.71 211.966 344.926 227.214 349.038C227.262 349.054 227.294 349.054 227.342 349.07C238.43 352.046 248.574 351.662 256.83 349.438C270.462 346.382 284.254 340.366 296.99 340.702C309.694 341.23 321.854 347.374 323.022 360.174Z" fill="#E24B4B"/>
</svg>
