<svg width="512" height="512" viewBox="0 0 512 512" fill="none" xmlns="http://www.w3.org/2000/svg">
<path d="M256 512C397.385 512 512 397.385 512 256C512 114.615 397.385 0 256 0C114.615 0 0 114.615 0 256C0 397.385 114.615 512 256 512Z" fill="#FFD93B"/>
<path d="M511.999 256C511.999 397.44 397.359 512 255.999 512C175.519 512 103.679 474.88 56.7188 416.72C100.639 452.24 156.559 473.44 217.439 473.44C358.799 473.44 473.439 358.88 473.439 217.44C473.439 156.56 452.239 100.64 416.719 56.7202C474.799 103.68 511.999 175.52 511.999 256Z" fill="#F4C534"/>
<path d="M216.081 235.632C215.745 240.944 214.273 246 211.793 250.608C205.393 235.232 187.473 231.68 166.289 231.68C145.233 231.68 127.185 235.232 120.897 250.608C118.417 246 116.833 240.944 116.497 235.632C114.993 211.744 137.393 195.376 166.289 195.376C195.297 195.36 217.569 211.744 216.081 235.632Z" fill="#3E4347"/>
<path d="M399.042 235.632C398.706 240.944 397.234 246 394.754 250.608C388.354 235.232 370.434 231.68 349.25 231.68C328.194 231.68 310.146 235.232 303.858 250.608C301.378 246 299.794 240.944 299.458 235.632C297.954 211.744 320.354 195.376 349.25 195.376C378.258 195.36 400.53 211.744 399.042 235.632Z" fill="#3E4347"/>
<path d="M328.449 145.92C327.841 140.08 332.049 134.832 337.889 134.208C340.049 133.968 390.913 128.992 421.169 171.408C424.593 176.208 423.473 182.864 418.673 186.288C413.873 189.728 407.217 188.608 403.793 183.792C380.897 151.712 341.809 155.248 340.145 155.424C334.289 156 329.041 151.76 328.449 145.92Z" fill="#E9B02C"/>
<path d="M197.968 175.104C196.72 174.016 166.88 148.528 129.632 161.44C124.048 163.376 117.984 160.448 116.048 154.864C114.112 149.296 117.056 143.216 122.608 141.296C171.84 124.208 210.448 157.664 212.064 159.104C216.48 163.008 216.896 169.744 212.976 174.16C209.088 178.56 202.368 178.976 197.968 175.104Z" fill="#E9B02C"/>
<path d="M302.48 350C302.48 380.88 281.84 406 256.24 406C230.64 406 210 380.88 210 350C210 318.96 230.64 294 256.24 294C281.84 294 302.48 318.96 302.48 350Z" fill="#3E4347"/>
<path d="M256.239 406.001C271.759 406.001 285.375 396.689 293.759 382.529C290.527 373.873 284.543 366.593 276.591 362.177C272.063 359.633 264.831 360.529 260.303 363.025C257.247 364.721 253.519 365.745 249.167 365.745C248.255 365.745 247.407 365.681 246.559 365.633C238.703 364.849 230.671 367.441 226.143 373.889C223.711 377.329 221.903 381.249 220.719 385.441C229.183 397.889 241.839 406.001 256.239 406.001Z" fill="#E24B4B"/>
</svg>
