<svg width="512" height="512" viewBox="0 0 512 512" fill="none" xmlns="http://www.w3.org/2000/svg">
<path d="M256 512C397.385 512 512 397.385 512 256C512 114.615 397.385 0 256 0C114.615 0 0 114.615 0 256C0 397.385 114.615 512 256 512Z" fill="#FFD93B"/>
<path d="M511.999 256C511.999 397.44 397.359 512 255.999 512C175.519 512 103.679 474.88 56.7188 416.72C100.639 452.24 156.559 473.44 217.439 473.44C358.799 473.44 473.439 358.88 473.439 217.44C473.439 156.56 452.239 100.64 416.719 56.7202C474.799 103.68 511.999 175.52 511.999 256Z" fill="#F4C534"/>
<path d="M356.399 249.488C380.806 249.488 400.591 229.688 400.591 205.264C400.591 180.84 380.806 161.04 356.399 161.04C331.992 161.04 312.207 180.84 312.207 205.264C312.207 229.688 331.992 249.488 356.399 249.488Z" fill="#3E4347"/>
<path d="M381.028 182.359C376.36 177.69 370.023 176.458 366.873 179.607C363.724 182.757 364.954 189.094 369.622 193.763C374.29 198.431 380.627 199.663 383.777 196.514C386.927 193.365 385.696 187.027 381.028 182.359Z" fill="white"/>
<path d="M155.615 286.272C200.381 286.272 236.671 250.003 236.671 205.264C236.671 160.524 200.381 124.256 155.615 124.256C110.849 124.256 74.5586 160.524 74.5586 205.264C74.5586 250.003 110.849 286.272 155.615 286.272Z" fill="white"/>
<path d="M155.583 249.488C179.989 249.488 199.775 229.688 199.775 205.264C199.775 180.84 179.989 161.04 155.583 161.04C131.176 161.04 111.391 180.84 111.391 205.264C111.391 229.688 131.176 249.488 155.583 249.488Z" fill="#3E4347"/>
<path d="M180.219 182.332C175.551 177.664 169.214 176.432 166.065 179.581C162.915 182.73 164.146 189.068 168.814 193.736C173.482 198.405 179.819 199.637 182.968 196.487C186.118 193.338 184.887 187.001 180.219 182.332Z" fill="white"/>
<path d="M362.292 346.456C334.884 363.992 300.132 374.376 268.516 374.568C271.684 384.328 274.068 394.344 275.524 404.552C279.652 430.872 294.868 459.528 321.668 464.584C348.1 469.816 383.636 442.344 372.644 390.712C369.476 375.832 366.916 360.888 362.292 346.456Z" fill="#E24B4B"/>
<path d="M389.219 315C385.987 315 382.963 316.36 380.675 318.632C356.163 343.144 322.547 357.8 286.131 357.8C249.699 357.8 216.099 343.144 191.571 318.632C189.283 316.344 186.259 315 183.027 315C172.227 315 166.979 328.04 174.611 335.688C203.507 364.584 243.171 381.816 286.131 381.816C329.075 381.816 368.74 364.6 397.652 335.688C405.268 328.04 400.003 315 389.219 315Z" fill="#3E4347"/>
<g opacity="0.2">
<path opacity="0.2" d="M354.613 420.489C349.99 418.137 343.241 422.13 339.539 429.407C335.837 436.685 336.584 444.491 341.207 446.843C345.83 449.195 352.579 445.202 356.281 437.924C359.983 430.647 359.236 422.841 354.613 420.489Z" fill="white"/>
</g>
</svg>
