<svg width="512" height="512" viewBox="0 0 512 512" fill="none" xmlns="http://www.w3.org/2000/svg">
<path d="M256 512C397.385 512 512 397.385 512 256C512 114.615 397.385 0 256 0C114.615 0 0 114.615 0 256C0 397.385 114.615 512 256 512Z" fill="#FFD93B"/>
<path d="M511.999 256C511.999 397.44 397.359 512 255.999 512C175.519 512 103.679 474.88 56.7188 416.72C100.639 452.24 156.559 473.44 217.439 473.44C358.799 473.44 473.439 358.88 473.439 217.44C473.439 156.56 452.239 100.64 416.719 56.7202C474.799 103.68 511.999 175.52 511.999 256Z" fill="#F4C534"/>
<path d="M351.056 281.424C394.453 281.424 429.632 255.615 429.632 223.776C429.632 191.938 394.453 166.128 351.056 166.128C307.66 166.128 272.48 191.938 272.48 223.776C272.48 255.615 307.66 281.424 351.056 281.424Z" fill="#F4C534"/>
<path d="M429.632 223.776C429.632 255.616 396.848 278.368 356.4 274.608C315.952 270.848 283.168 241.984 283.168 210.144C283.168 178.304 315.952 155.552 356.4 159.312C396.848 163.088 429.632 191.936 429.632 223.776Z" fill="white"/>
<path d="M431.807 223.76C426.767 205.456 395.007 167.712 375.951 168.464C348.671 169.776 321.583 213.68 263.855 197.232L275.807 177.808C294.495 176.88 311.871 171.824 336.159 148.656C374.271 111.856 436.479 126.8 431.807 223.76Z" fill="#3E4347"/>
<path d="M340.96 257.632C353.65 257.632 363.936 245.87 363.936 231.36C363.936 216.85 353.65 205.088 340.96 205.088C328.271 205.088 317.984 216.85 317.984 231.36C317.984 245.87 328.271 257.632 340.96 257.632Z" fill="#3E4347"/>
<path d="M354.465 224.704C352.785 226.208 349.425 225.264 346.801 222.272C344.369 219.472 343.809 215.92 345.681 214.416C347.361 212.928 350.913 213.856 353.345 216.848C355.777 219.648 356.337 223.2 354.465 224.704Z" fill="#5A5F63"/>
<path d="M160.959 281.424C204.355 281.424 239.535 255.614 239.535 223.776C239.535 191.938 204.355 166.128 160.959 166.128C117.562 166.128 82.3828 191.938 82.3828 223.776C82.3828 255.614 117.562 281.424 160.959 281.424Z" fill="#F4C534"/>
<path d="M82.3672 223.776C82.3672 255.616 115.151 278.368 155.599 274.608C196.047 270.848 228.831 241.984 228.831 210.144C228.831 178.304 196.047 155.552 155.599 159.312C115.151 163.088 82.3672 191.936 82.3672 223.776Z" fill="white"/>
<path d="M80.1902 223.76C85.2302 205.456 116.99 167.712 136.046 168.464C163.326 169.776 190.414 213.68 248.142 197.232L236.19 177.808C217.502 176.88 200.126 171.824 175.838 148.656C137.726 111.856 75.5182 126.8 80.1902 223.76Z" fill="#3E4347"/>
<path d="M171.038 257.632C183.728 257.632 194.015 245.87 194.015 231.36C194.015 216.85 183.728 205.088 171.038 205.088C158.349 205.088 148.062 216.85 148.062 231.36C148.062 245.87 158.349 257.632 171.038 257.632Z" fill="#3E4347"/>
<path d="M157.537 224.704C159.217 226.208 162.577 225.264 165.201 222.272C167.633 219.472 168.193 215.92 166.321 214.416C164.641 212.928 161.089 213.856 158.657 216.848C156.225 219.648 155.665 223.2 157.537 224.704Z" fill="#5A5F63"/>
<path d="M369.517 418.896C369.517 418.88 367.533 418.192 364.893 417.392C362.285 416.752 358.893 415.664 356.045 416.192C350.205 416.016 345.293 421.712 344.973 421.616C345.053 421.76 344.765 418.944 346.013 415.808C346.637 414.272 347.533 412.416 349.021 411.296C350.445 410.048 352.269 409.28 354.189 408.912C358.189 408.672 362.301 410.832 365.117 413.504C367.981 416.176 369.533 418.928 369.517 418.896Z" fill="#F4C534"/>
<path d="M163.758 424.96C163.758 424.944 162.398 423.12 160.558 420.624C158.654 418.128 156.478 414.896 153.806 411.968C149.15 406.256 141.758 399.84 141.566 399.424C141.566 399.488 143.166 399.824 146.19 401.6C147.646 402.528 149.566 403.632 151.438 405.264C153.358 406.832 155.262 408.672 157.006 410.512C160.302 414.32 162.366 418.112 163.15 420.8C163.998 423.472 163.758 424.928 163.758 424.96Z" fill="#F4C534"/>
<path d="M408.171 341.692C383.643 401.404 325.003 443.372 256.507 443.372C188.011 443.372 129.371 401.404 104.683 341.692C102.363 336.14 106.219 329.66 112.235 328.428C208.363 310.524 304.635 310.524 400.603 328.428C406.619 329.66 410.475 336.14 408.171 341.692Z" fill="#3E4347"/>
<path d="M115.758 327.851C133.966 357.483 190.942 360.668 258.926 360.668C326.014 360.668 383.118 357.483 402.094 329.083C401.582 328.891 401.166 328.54 400.622 328.428C305.806 310.732 210.718 310.604 115.758 327.851Z" fill="white"/>
</svg>
