<svg width="512" height="512" viewBox="0 0 512 512" fill="none" xmlns="http://www.w3.org/2000/svg">
<path d="M489.969 65.3281C484.433 65.3281 479.873 61.1681 479.249 55.8081C470.865 45.7121 396.449 26.7201 256.017 26.7201C115.585 26.7201 41.1853 45.7121 32.8013 55.8081C32.1773 61.1681 27.6172 65.3281 22.0813 65.3281C16.1133 65.3281 11.2812 60.4961 11.2812 54.5281C11.2813 6.51212 230.961 5.12012 256.017 5.12012C281.073 5.12012 500.769 6.49612 500.769 54.5281C500.769 60.4961 495.937 65.3281 489.969 65.3281ZM479.169 54.5281C479.169 54.5441 479.169 54.5441 479.169 54.5281V54.5281ZM32.8813 54.5281C32.8813 54.5441 32.8813 54.5441 32.8813 54.5281V54.5281Z" fill="#65B1EF"/>
<path d="M256 512C397.385 512 512 397.385 512 256C512 114.615 397.385 0 256 0C114.615 0 0 114.615 0 256C0 397.385 114.615 512 256 512Z" fill="#FFD93B"/>
<path d="M511.999 256C511.999 397.44 397.359 512 255.999 512C175.519 512 103.679 474.88 56.7188 416.72C100.639 452.24 156.559 473.44 217.439 473.44C358.799 473.44 473.439 358.88 473.439 217.44C473.439 156.56 452.239 100.64 416.719 56.7202C474.799 103.68 511.999 175.52 511.999 256Z" fill="#F4C534"/>
<path d="M256.017 104.048C230.977 104.048 11.2812 102.672 11.2812 54.528C11.2812 48.56 16.1133 43.728 22.0813 43.728C27.6172 43.728 32.1773 47.888 32.8013 53.248C41.1693 63.376 115.585 82.448 256.017 82.448C396.449 82.448 470.865 63.376 479.249 53.248C479.873 47.888 484.433 43.728 489.969 43.728C495.937 43.728 500.769 48.56 500.769 54.528C500.769 102.656 281.057 104.048 256.017 104.048ZM479.169 54.512C479.169 54.528 479.169 54.528 479.169 54.512V54.512ZM32.8813 54.512C32.8813 54.528 32.8813 54.528 32.8813 54.512V54.512Z" fill="#65B1EF"/>
<path d="M217.04 192.344C205.008 175.928 183.312 165.016 158.576 165.016C133.728 165.128 112.032 176.04 100 192.456C100.56 160.632 126.544 135 158.576 135C190.384 135 216.48 160.52 217.04 192.344Z" fill="#3E4347"/>
<path d="M412.145 192.344C400.113 175.928 378.417 165.016 353.681 165.016C328.833 165.128 307.137 176.04 295.105 192.456C295.665 160.632 321.649 135 353.681 135C385.489 135 411.585 160.52 412.145 192.344Z" fill="#3E4347"/>
<path d="M163.106 313.001C180.61 281.385 215.346 257.369 258.338 257.497C300.786 257.385 334.866 280.905 352.13 312.057C358.978 324.425 347.026 339.273 335.01 333.801C283.97 310.985 232.226 312.057 179.81 334.873C167.714 340.217 156.29 325.369 163.106 313.001Z" fill="#3E4347"/>
<path d="M345.762 330.073V407.833C345.762 412.793 341.762 416.793 336.802 416.793C331.842 416.793 328.002 412.793 328.002 407.833V362.713C328.002 367.673 323.842 371.673 318.882 371.673C314.082 371.673 309.922 367.673 309.922 362.713V376.153C309.922 381.273 305.922 385.113 300.962 385.113C296.002 385.113 292.002 381.273 292.002 376.153V407.833C292.002 412.793 288.002 416.793 283.042 416.793C278.082 416.793 274.082 412.793 274.082 407.833V344.953C274.082 349.913 270.082 353.913 265.122 353.913C260.162 353.913 256.162 349.913 256.162 344.953V383.513C256.162 388.473 252.162 392.473 247.202 392.473C242.242 392.473 238.242 388.473 238.242 383.513V318.521L265.73 312.985C289.65 308.169 314.562 309.849 337.442 318.313C337.506 318.329 337.554 318.361 337.602 318.377C342.402 319.993 345.762 324.953 345.762 330.073Z" fill="white"/>
<path d="M318.897 432.521C323.828 432.521 327.825 428.524 327.825 423.593C327.825 418.662 323.828 414.665 318.897 414.665C313.966 414.665 309.969 418.662 309.969 423.593C309.969 428.524 313.966 432.521 318.897 432.521Z" fill="white"/>
</svg>
