<svg width="512" height="512" viewBox="0 0 512 512" fill="none" xmlns="http://www.w3.org/2000/svg">
<path d="M489.969 65.3281C484.433 65.3281 479.873 61.1681 479.249 55.8081C470.865 45.7121 396.449 26.7201 256.017 26.7201C115.585 26.7201 41.1853 45.7121 32.8013 55.8081C32.1773 61.1681 27.6172 65.3281 22.0813 65.3281C16.1133 65.3281 11.2812 60.4961 11.2812 54.5281C11.2813 6.51212 230.961 5.12012 256.017 5.12012C281.073 5.12012 500.769 6.49612 500.769 54.5281C500.769 60.4961 495.937 65.3281 489.969 65.3281ZM479.169 54.5281C479.169 54.5441 479.169 54.5441 479.169 54.5281V54.5281ZM32.8813 54.5281C32.8813 54.5441 32.8813 54.5441 32.8813 54.5281V54.5281Z" fill="#65B1EF"/>
<path d="M256 512C397.385 512 512 397.385 512 256C512 114.615 397.385 0 256 0C114.615 0 0 114.615 0 256C0 397.385 114.615 512 256 512Z" fill="#FFD93B"/>
<path d="M511.999 256C511.999 397.44 397.359 512 255.999 512C175.519 512 103.679 474.88 56.7188 416.72C100.639 452.24 156.559 473.44 217.439 473.44C358.799 473.44 473.439 358.88 473.439 217.44C473.439 156.56 452.239 100.64 416.719 56.7202C474.799 103.68 511.999 175.52 511.999 256Z" fill="#F4C534"/>
<path d="M256.017 104.048C230.977 104.048 11.2812 102.672 11.2812 54.528C11.2812 48.56 16.1133 43.728 22.0813 43.728C27.6172 43.728 32.1773 47.888 32.8013 53.248C41.1693 63.376 115.585 82.448 256.017 82.448C396.449 82.448 470.865 63.376 479.249 53.248C479.873 47.888 484.433 43.728 489.969 43.728C495.937 43.728 500.769 48.56 500.769 54.528C500.769 102.656 281.057 104.048 256.017 104.048ZM479.169 54.512C479.169 54.528 479.169 54.528 479.169 54.512V54.512ZM32.8813 54.512C32.8813 54.528 32.8813 54.528 32.8813 54.512V54.512Z" fill="#65B1EF"/>
<path d="M217.04 192.344C205.008 175.928 183.312 165.016 158.576 165.016C133.728 165.128 112.032 176.04 100 192.456C100.56 160.632 126.544 135 158.576 135C190.384 135 216.48 160.52 217.04 192.344Z" fill="#3E4347"/>
<path d="M412.145 192.344C400.113 175.928 378.417 165.016 353.681 165.016C328.833 165.128 307.137 176.04 295.105 192.456C295.665 160.632 321.649 135 353.681 135C385.489 135 411.585 160.52 412.145 192.344Z" fill="#3E4347"/>
<path d="M404.171 288.692C379.643 348.404 321.003 390.372 252.507 390.372C184.011 390.372 125.371 348.404 100.683 288.692C98.363 283.14 102.219 276.66 108.235 275.428C204.363 257.524 300.635 257.524 396.603 275.428C402.619 276.66 406.475 283.14 404.171 288.692Z" fill="#3E4347"/>
<path d="M111.758 274.851C129.966 304.483 186.942 307.668 254.926 307.668C322.014 307.668 379.118 304.483 398.094 276.083C397.582 275.891 397.166 275.54 396.622 275.428C301.806 257.732 206.718 257.604 111.758 274.851Z" fill="white"/>
</svg>
