<svg width="512" height="512" viewBox="0 0 512 512" fill="none" xmlns="http://www.w3.org/2000/svg">
<path d="M489.969 65.3281C484.433 65.3281 479.873 61.1681 479.249 55.8081C470.865 45.7121 396.449 26.7201 256.017 26.7201C115.585 26.7201 41.1853 45.7121 32.8013 55.8081C32.1773 61.1681 27.6172 65.3281 22.0813 65.3281C16.1133 65.3281 11.2812 60.4961 11.2812 54.5281C11.2813 6.51212 230.961 5.12012 256.017 5.12012C281.073 5.12012 500.769 6.49612 500.769 54.5281C500.769 60.4961 495.937 65.3281 489.969 65.3281ZM479.169 54.5281C479.169 54.5441 479.169 54.5441 479.169 54.5281V54.5281ZM32.8813 54.5281C32.8813 54.5441 32.8813 54.5441 32.8813 54.5281V54.5281Z" fill="#65B1EF"/>
<path d="M256 512C397.385 512 512 397.385 512 256C512 114.615 397.385 0 256 0C114.615 0 0 114.615 0 256C0 397.385 114.615 512 256 512Z" fill="#FFD93B"/>
<path d="M511.999 256C511.999 397.44 397.359 512 255.999 512C175.519 512 103.679 474.88 56.7188 416.72C100.639 452.24 156.559 473.44 217.439 473.44C358.799 473.44 473.439 358.88 473.439 217.44C473.439 156.56 452.239 100.64 416.719 56.7202C474.799 103.68 511.999 175.52 511.999 256Z" fill="#F4C534"/>
<path d="M256.017 104.048C230.977 104.048 11.2812 102.672 11.2812 54.528C11.2812 48.56 16.1133 43.728 22.0813 43.728C27.6172 43.728 32.1773 47.888 32.8013 53.248C41.1693 63.376 115.585 82.448 256.017 82.448C396.449 82.448 470.865 63.376 479.249 53.248C479.873 47.888 484.433 43.728 489.969 43.728C495.937 43.728 500.769 48.56 500.769 54.528C500.769 102.656 281.057 104.048 256.017 104.048ZM479.169 54.512C479.169 54.528 479.169 54.528 479.169 54.512V54.512ZM32.8813 54.512C32.8813 54.528 32.8813 54.528 32.8813 54.512V54.512Z" fill="#65B1EF"/>
<path d="M202.628 221.72C202.292 227.032 200.82 232.088 198.34 236.696C191.94 221.32 174.02 217.768 152.836 217.768C131.78 217.768 113.732 221.32 107.444 236.696C104.964 232.088 103.38 227.032 103.044 221.72C101.54 197.832 123.94 181.464 152.836 181.464C181.844 181.448 204.116 197.832 202.628 221.72Z" fill="#3E4347"/>
<path d="M385.589 221.72C385.253 227.032 383.781 232.088 381.301 236.696C374.901 221.32 356.981 217.768 335.797 217.768C314.741 217.768 296.693 221.32 290.405 236.696C287.925 232.088 286.341 227.032 286.005 221.72C284.501 197.832 306.901 181.464 335.797 181.464C364.805 181.448 387.077 197.832 385.589 221.72Z" fill="#3E4347"/>
<path d="M314.996 132.008C314.388 126.168 318.596 120.92 324.436 120.296C326.596 120.056 377.46 115.08 407.716 157.496C411.14 162.296 410.02 168.952 405.22 172.376C400.42 175.816 393.764 174.696 390.34 169.88C367.444 137.8 328.356 141.336 326.692 141.512C320.836 142.088 315.588 137.848 314.996 132.008Z" fill="#E9B02C"/>
<path d="M184.515 161.192C183.267 160.104 153.427 134.616 116.179 147.528C110.595 149.464 104.531 146.536 102.595 140.952C100.659 135.384 103.603 129.304 109.155 127.384C158.387 110.296 196.995 143.752 198.611 145.192C203.027 149.096 203.443 155.832 199.523 160.248C195.635 164.648 188.915 165.064 184.515 161.192Z" fill="#E9B02C"/>
<path d="M289.027 336.088C289.027 366.968 268.387 392.088 242.787 392.088C217.187 392.088 196.547 366.968 196.547 336.088C196.547 305.048 217.187 280.088 242.787 280.088C268.387 280.088 289.027 305.048 289.027 336.088Z" fill="#3E4347"/>
<path d="M242.786 392.089C258.306 392.089 271.922 382.777 280.306 368.617C277.074 359.961 271.09 352.681 263.138 348.265C258.61 345.721 251.378 346.617 246.85 349.113C243.794 350.809 240.066 351.833 235.714 351.833C234.802 351.833 233.954 351.769 233.106 351.721C225.25 350.937 217.218 353.529 212.69 359.977C210.258 363.417 208.45 367.337 207.266 371.529C215.73 383.977 228.386 392.089 242.786 392.089Z" fill="#E24B4B"/>
</svg>
