<svg width="512" height="512" viewBox="0 0 512 512" fill="none" xmlns="http://www.w3.org/2000/svg">
<path d="M489.969 65.3281C484.433 65.3281 479.873 61.1681 479.249 55.8081C470.865 45.7121 396.449 26.7201 256.017 26.7201C115.585 26.7201 41.1853 45.7121 32.8013 55.8081C32.1773 61.1681 27.6172 65.3281 22.0813 65.3281C16.1133 65.3281 11.2812 60.4961 11.2812 54.5281C11.2813 6.51212 230.961 5.12012 256.017 5.12012C281.073 5.12012 500.769 6.49612 500.769 54.5281C500.769 60.4961 495.937 65.3281 489.969 65.3281ZM479.169 54.5281C479.169 54.5441 479.169 54.5441 479.169 54.5281V54.5281ZM32.8813 54.5281C32.8813 54.5441 32.8813 54.5441 32.8813 54.5281V54.5281Z" fill="#65B1EF"/>
<path d="M256 512C397.385 512 512 397.385 512 256C512 114.615 397.385 0 256 0C114.615 0 0 114.615 0 256C0 397.385 114.615 512 256 512Z" fill="#FFD93B"/>
<path d="M511.999 256C511.999 397.44 397.359 512 255.999 512C175.519 512 103.679 474.88 56.7188 416.72C100.639 452.24 156.559 473.44 217.439 473.44C358.799 473.44 473.439 358.88 473.439 217.44C473.439 156.56 452.239 100.64 416.719 56.7202C474.799 103.68 511.999 175.52 511.999 256Z" fill="#F4C534"/>
<path d="M256.017 104.048C230.977 104.048 11.2812 102.672 11.2812 54.528C11.2812 48.56 16.1133 43.728 22.0813 43.728C27.6172 43.728 32.1773 47.888 32.8013 53.248C41.1693 63.376 115.585 82.448 256.017 82.448C396.449 82.448 470.865 63.376 479.249 53.248C479.873 47.888 484.433 43.728 489.969 43.728C495.937 43.728 500.769 48.56 500.769 54.528C500.769 102.656 281.057 104.048 256.017 104.048ZM479.169 54.512C479.169 54.528 479.169 54.528 479.169 54.512V54.512ZM32.8813 54.512C32.8813 54.528 32.8813 54.528 32.8813 54.512V54.512Z" fill="#65B1EF"/>
<path d="M232.608 183.968C232.608 233.152 158.304 278.144 158.304 278.144C158.304 278.144 84 233.152 84 183.968C84 162.96 100.976 146 121.968 146C139.152 146 153.568 157.344 158.352 172.832C163.024 157.344 177.44 146 194.624 146C215.52 146 232.608 162.976 232.608 183.968Z" fill="#E24B4B"/>
<path d="M215.551 182.703C211.935 185.631 205.791 183.679 201.759 178.527C197.583 173.375 197.151 167.103 200.511 164.447C204.127 161.663 210.271 163.743 214.447 168.911C218.479 174.047 219.039 180.319 215.551 182.703Z" fill="white"/>
<path d="M428.702 183.968C428.702 233.152 354.398 278.144 354.398 278.144C354.398 278.144 280.094 233.152 280.094 183.968C280.094 162.96 297.07 146 318.062 146C335.246 146 349.662 157.344 354.446 172.832C359.118 157.344 373.534 146 390.718 146C411.614 146 428.702 162.976 428.702 183.968Z" fill="#E24B4B"/>
<path d="M411.648 182.703C408.032 185.631 401.888 183.679 397.856 178.527C393.68 173.375 393.248 167.103 396.608 164.447C400.224 161.663 406.368 163.743 410.544 168.911C414.576 174.047 415.136 180.319 411.648 182.703Z" fill="white"/>
<path d="M382.078 356.784C351.838 392.624 306.766 421.2 256.366 421.2C205.966 421.2 160.958 392.624 130.558 356.944C119.998 344.464 130.718 325.424 147.038 328.304C219.038 340.944 291.838 341.104 365.758 328.144C381.918 325.424 392.798 344.304 382.078 356.784Z" fill="#3E4347"/>
<path d="M256.369 421.2C282.081 421.2 306.385 413.696 328.065 401.648C318.977 367.936 287.313 358.336 265.425 369.968C235.777 385.792 202.609 365.312 189.809 404.272C210.177 414.704 232.625 421.2 256.369 421.2Z" fill="#E24B4B"/>
</svg>
