<svg width="512" height="512" viewBox="0 0 512 512" fill="none" xmlns="http://www.w3.org/2000/svg">
<g clip-path="url(#clip0)">
<path d="M489.969 65.3281C484.433 65.3281 479.873 61.1681 479.249 55.8081C470.865 45.7121 396.449 26.7201 256.017 26.7201C115.585 26.7201 41.1853 45.7121 32.8013 55.8081C32.1773 61.1681 27.6172 65.3281 22.0813 65.3281C16.1133 65.3281 11.2812 60.4961 11.2812 54.5281C11.2813 6.51212 230.961 5.12012 256.017 5.12012C281.073 5.12012 500.769 6.49612 500.769 54.5281C500.769 60.4961 495.937 65.3281 489.969 65.3281ZM479.169 54.5281C479.169 54.5441 479.169 54.5441 479.169 54.5281V54.5281ZM32.8813 54.5281C32.8813 54.5441 32.8813 54.5441 32.8813 54.5281V54.5281Z" fill="#65B1EF"/>
<path d="M256 512C397.385 512 512 397.385 512 256C512 114.615 397.385 0 256 0C114.615 0 0 114.615 0 256C0 397.385 114.615 512 256 512Z" fill="#FFD93B"/>
<path d="M511.999 256C511.999 397.44 397.359 512 255.999 512C175.519 512 103.679 474.88 56.7188 416.72C100.639 452.24 156.559 473.44 217.439 473.44C358.799 473.44 473.439 358.88 473.439 217.44C473.439 156.56 452.239 100.64 416.719 56.7202C474.799 103.68 511.999 175.52 511.999 256Z" fill="#F4C534"/>
<path d="M256.017 104.048C230.977 104.048 11.2812 102.672 11.2812 54.528C11.2812 48.56 16.1133 43.728 22.0813 43.728C27.6172 43.728 32.1773 47.888 32.8013 53.248C41.1693 63.376 115.585 82.448 256.017 82.448C396.449 82.448 470.865 63.376 479.249 53.248C479.873 47.888 484.433 43.728 489.969 43.728C495.937 43.728 500.769 48.56 500.769 54.528C500.769 102.656 281.057 104.048 256.017 104.048ZM479.169 54.512C479.169 54.528 479.169 54.528 479.169 54.512V54.512ZM32.8813 54.512C32.8813 54.528 32.8813 54.528 32.8813 54.512V54.512Z" fill="#65B1EF"/>
<g opacity="0.2">
<path opacity="0.2" d="M286.425 386.353C282.136 384.477 277.662 385.238 276.43 388.053C275.199 390.868 277.677 394.671 281.966 396.547C286.254 398.423 290.729 397.662 291.96 394.847C293.191 392.032 290.713 388.229 286.425 386.353Z" fill="white"/>
</g>
<path d="M459.441 487.341C461.232 488.389 462.266 489.511 462.266 490.617C462.266 492.671 459.106 494.534 453.646 496.122C463.388 497.942 469.358 500.447 469.358 503.315C469.358 509.053 444.078 513.727 412.988 513.727C390.781 513.727 371.574 511.325 362.429 507.815C362.429 507.815 362.429 507.815 362.341 507.815C360.55 507.873 358.584 507.873 356.706 507.873C325.528 507.873 300.336 503.199 300.336 497.461C300.336 494.418 307.428 491.666 318.699 489.802C308.709 487.938 302.477 485.36 302.477 482.492C302.477 476.696 327.669 472.08 358.759 472.08C367.642 472.08 376.015 472.429 383.442 473.128C393.009 469.91 411.459 467.74 432.632 467.74C463.722 467.74 489.002 472.429 489.002 478.152C488.988 482.069 477.032 485.521 459.441 487.341Z" fill="#45CBEA"/>
<path d="M428.218 494.461C437.596 492.86 444.265 484.501 443.595 475.007C440.479 430.607 433.314 385.115 416.83 344.356C403.011 306.887 384.4 270.686 358.917 236.014C352.932 240.601 345.534 243.79 336.797 245.071C354.038 282.743 364.057 319.658 369.27 356.646C373.857 382.581 375.168 421.214 368.018 472.123C366.868 480.322 371.455 488.418 379.173 491.403C392.118 496.384 408.049 497.898 428.218 494.461Z" fill="#45CBEA"/>
<g opacity="0.2">
<path opacity="0.2" d="M381.61 352.22C375.304 319.703 360.145 276.643 342.423 243.922C342.219 243.98 342.015 244.038 341.797 244.082C358.456 277.458 369.975 317.286 377.285 353.108C387.027 396.372 387.274 440.801 383.357 485.944C390.988 423.239 387.507 378.301 381.61 352.22Z" fill="white"/>
</g>
<g opacity="0.2">
<path opacity="0.2" d="M394.115 350.21C382.218 305.606 363.739 266.653 348.798 241.781C348.696 241.824 348.594 241.854 348.492 241.897C363.462 267.76 381.14 307.368 391.989 350.763C405.343 397.551 405.459 443.713 403.144 487.516C402.794 491.986 407.192 492.336 407.541 487.865C409.187 443.305 406.974 392.717 394.115 350.21Z" fill="white"/>
</g>
<g opacity="0.2">
<path opacity="0.2" d="M407.846 347.939C396.531 311.374 378.46 271.226 356.267 237.806C355.146 238.549 353.966 239.248 352.758 239.889C375.154 272.449 393.808 312.015 405.764 348.638C424.622 399.649 426.369 450.485 427.316 489.439C426.893 442.433 425.044 397.931 407.846 347.939Z" fill="white"/>
</g>
<path d="M52.5465 487.342C50.7553 488.39 49.736 489.512 49.736 490.618C49.736 492.672 52.8959 494.535 58.3567 496.123C48.6293 497.943 42.6442 500.448 42.6442 503.316C42.6442 509.039 67.924 513.728 99.0141 513.728C121.221 513.728 140.429 511.326 149.574 507.816C149.574 507.816 149.574 507.816 149.661 507.816C151.452 507.874 153.418 507.874 155.296 507.874C186.474 507.874 211.666 503.2 211.666 497.462C211.666 494.419 204.575 491.667 193.304 489.803C203.293 487.939 209.526 485.361 209.526 482.493C209.526 476.697 184.333 472.081 153.243 472.081C144.36 472.081 135.987 472.43 128.561 473.129C118.993 469.911 100.543 467.741 79.3698 467.741C48.2798 467.727 23 472.416 23 478.153C23 482.07 34.9555 485.522 52.5465 487.342Z" fill="#45CBEA"/>
<path d="M84.3096 490.764C75.0627 489.191 68.4952 480.949 69.1505 471.585C72.2231 427.826 79.2857 382.975 95.537 342.798C109.153 305.869 127.501 270.177 152.635 236C158.533 240.514 165.814 243.66 174.434 244.941C157.44 282.074 147.567 318.465 142.427 354.929C137.913 380.5 136.617 418.565 143.665 468.746C144.8 476.828 140.272 484.808 132.67 487.749C119.899 492.671 104.201 494.157 84.3096 490.764Z" fill="#45CBEA"/>
<g opacity="0.2">
<path opacity="0.2" d="M130.252 350.56C136.456 318.509 151.411 276.06 168.871 243.805C169.075 243.863 169.278 243.922 169.482 243.965C153.071 276.861 141.698 316.12 134.504 351.433C124.893 394.086 124.66 437.874 128.519 482.376C121.02 420.574 124.456 376.276 130.252 350.56Z" fill="white"/>
</g>
<g opacity="0.2">
<path opacity="0.2" d="M117.932 348.579C129.654 304.616 147.886 266.216 162.608 241.708C162.71 241.752 162.812 241.781 162.914 241.824C148.148 267.323 130.732 306.364 120.043 349.132C106.879 395.251 106.777 440.757 109.049 483.934C109.311 487.196 104.972 487.531 104.71 484.283C103.079 440.349 105.263 390.489 117.932 348.579Z" fill="white"/>
</g>
<g opacity="0.2">
<path opacity="0.2" d="M104.389 346.338C115.544 310.297 133.353 270.731 155.24 237.777C156.347 238.505 157.497 239.19 158.706 239.831C136.63 271.94 118.252 310.923 106.457 347.037C87.8612 397.305 86.1429 447.428 85.2109 485.828C85.6187 439.491 87.4389 395.616 104.389 346.338Z" fill="white"/>
</g>
<path d="M433.534 256.052C440.291 262.751 440.349 273.658 433.65 280.429C426.952 287.186 416.045 287.244 409.273 280.545C402.502 273.847 396.43 243.587 396.43 243.587C396.43 243.587 426.763 249.353 433.534 256.052Z" fill="#45CBEA"/>
<g opacity="0.2">
<path opacity="0.2" d="M433.254 266.869C432.701 263.945 430.754 261.858 428.905 262.208C427.055 262.557 426.005 265.211 426.558 268.135C427.11 271.059 429.058 273.146 430.907 272.796C432.756 272.446 433.807 269.793 433.254 266.869Z" fill="white"/>
</g>
<path d="M461.753 321.843C464.71 330.886 459.773 340.628 450.73 343.584C441.687 346.54 431.945 341.604 428.989 332.561C426.033 323.518 434.45 293.811 434.45 293.811C434.45 293.811 458.783 312.8 461.753 321.843Z" fill="#45CBEA"/>
<g opacity="0.2">
<path opacity="0.2" d="M454.834 325.14C453.029 324.607 450.883 326.488 450.04 329.342C449.198 332.196 449.978 334.942 451.783 335.475C453.588 336.008 455.734 334.126 456.577 331.272C457.419 328.418 456.639 325.673 454.834 325.14Z" fill="white"/>
</g>
<path d="M85.6902 256.286C79.676 263.669 80.7973 274.517 88.1803 280.532C95.5633 286.546 106.412 285.424 112.426 278.041C118.44 270.659 121.236 239.918 121.236 239.918C121.236 239.918 91.7043 248.903 85.6902 256.286Z" fill="#45CBEA"/>
<g opacity="0.2">
<path opacity="0.2" d="M90.8734 261.907C89.0055 261.758 87.2986 264.041 87.0608 267.007C86.8231 269.973 88.1445 272.499 90.0124 272.649C91.8803 272.799 93.5873 270.515 93.825 267.549C94.0628 264.583 92.7413 262.057 90.8734 261.907Z" fill="white"/>
</g>
<path d="M46.3148 345.667C45.2226 355.118 51.994 363.68 61.4593 364.773C70.9101 365.865 79.4726 359.093 80.5648 349.628C81.6569 340.177 67.488 312.757 67.488 312.757C67.488 312.757 47.4069 336.202 46.3148 345.667Z" fill="#45CBEA"/>
<g opacity="0.2">
<path opacity="0.2" d="M59.3197 350.738C57.9238 348.11 55.4448 346.695 53.7826 347.578C52.1205 348.461 51.9047 351.307 53.3006 353.935C54.6965 356.563 57.1755 357.978 58.8376 357.095C60.4998 356.213 60.7156 353.366 59.3197 350.738Z" fill="white"/>
</g>
<path d="M232.608 183.968C232.608 233.152 158.304 278.144 158.304 278.144C158.304 278.144 84 233.152 84 183.968C84 162.96 100.976 146 121.968 146C139.152 146 153.568 157.344 158.352 172.832C163.024 157.344 177.44 146 194.624 146C215.52 146 232.608 162.976 232.608 183.968Z" fill="#E24B4B"/>
<path d="M215.551 182.703C211.935 185.631 205.791 183.679 201.759 178.527C197.583 173.375 197.151 167.103 200.511 164.447C204.127 161.663 210.271 163.743 214.447 168.911C218.479 174.047 219.039 180.319 215.551 182.703Z" fill="white"/>
<path d="M428.702 183.968C428.702 233.152 354.398 278.144 354.398 278.144C354.398 278.144 280.094 233.152 280.094 183.968C280.094 162.96 297.07 146 318.062 146C335.246 146 349.662 157.344 354.446 172.832C359.118 157.344 373.534 146 390.718 146C411.614 146 428.702 162.976 428.702 183.968Z" fill="#E24B4B"/>
<path d="M411.648 182.703C408.032 185.631 401.888 183.679 397.856 178.527C393.68 173.375 393.248 167.103 396.608 164.447C400.224 161.663 406.368 163.743 410.544 168.911C414.576 174.047 415.136 180.319 411.648 182.703Z" fill="white"/>
<path d="M382.078 356.784C351.838 392.624 306.766 421.2 256.366 421.2C205.966 421.2 160.958 392.624 130.558 356.944C119.998 344.464 130.718 325.424 147.038 328.304C219.038 340.944 291.838 341.104 365.758 328.144C381.918 325.424 392.798 344.304 382.078 356.784Z" fill="#3E4347"/>
<path d="M256.369 421.2C282.081 421.2 306.385 413.696 328.065 401.648C318.977 367.936 287.313 358.336 265.425 369.968C235.777 385.792 202.609 365.312 189.809 404.272C210.177 414.704 232.625 421.2 256.369 421.2Z" fill="#E24B4B"/>
</g>
<defs>
<clipPath id="clip0">
<rect width="512" height="512" fill="white"/>
</clipPath>
</defs>
</svg>
