<svg width="512" height="512" viewBox="0 0 512 512" fill="none" xmlns="http://www.w3.org/2000/svg">
<path d="M489.969 65.3281C484.433 65.3281 479.873 61.1681 479.249 55.8081C470.865 45.7121 396.449 26.7201 256.017 26.7201C115.585 26.7201 41.1853 45.7121 32.8013 55.8081C32.1773 61.1681 27.6172 65.3281 22.0813 65.3281C16.1133 65.3281 11.2812 60.4961 11.2812 54.5281C11.2813 6.51212 230.961 5.12012 256.017 5.12012C281.073 5.12012 500.769 6.49612 500.769 54.5281C500.769 60.4961 495.937 65.3281 489.969 65.3281ZM479.169 54.5281C479.169 54.5441 479.169 54.5441 479.169 54.5281V54.5281ZM32.8813 54.5281C32.8813 54.5441 32.8813 54.5441 32.8813 54.5281V54.5281Z" fill="#65B1EF"/>
<path d="M256 512C397.385 512 512 397.385 512 256C512 114.615 397.385 0 256 0C114.615 0 0 114.615 0 256C0 397.385 114.615 512 256 512Z" fill="#FFD93B"/>
<path d="M511.999 256C511.999 397.44 397.359 512 255.999 512C175.519 512 103.679 474.88 56.7188 416.72C100.639 452.24 156.559 473.44 217.439 473.44C358.799 473.44 473.439 358.88 473.439 217.44C473.439 156.56 452.239 100.64 416.719 56.7197C474.799 103.68 511.999 175.52 511.999 256Z" fill="#F4C534"/>
<path d="M256.017 104.048C230.977 104.048 11.2812 102.672 11.2812 54.5275C11.2812 48.5595 16.1133 43.7275 22.0813 43.7275C27.6172 43.7275 32.1773 47.8875 32.8013 53.2475C41.1693 63.3755 115.585 82.4475 256.017 82.4475C396.449 82.4475 470.865 63.3755 479.249 53.2475C479.873 47.8875 484.433 43.7275 489.969 43.7275C495.937 43.7275 500.769 48.5595 500.769 54.5275C500.769 102.656 281.057 104.048 256.017 104.048ZM479.169 54.5115C479.169 54.5275 479.169 54.5275 479.169 54.5115V54.5115ZM32.8813 54.5115C32.8813 54.5275 32.8813 54.5275 32.8813 54.5115V54.5115Z" fill="#65B1EF"/>
<path d="M351.115 278.212C394.511 278.212 429.691 252.402 429.691 220.564C429.691 188.726 394.511 162.916 351.115 162.916C307.719 162.916 272.539 188.726 272.539 220.564C272.539 252.402 307.719 278.212 351.115 278.212Z" fill="#F4C534"/>
<path d="M429.691 220.564C429.691 252.404 396.907 275.156 356.459 271.396C316.011 267.636 283.227 238.772 283.227 206.932C283.227 175.092 316.011 152.34 356.459 156.1C396.907 159.876 429.691 188.724 429.691 220.564Z" fill="white"/>
<path d="M431.866 220.548C426.826 202.244 395.066 164.5 376.01 165.252C348.73 166.564 321.642 210.468 263.914 194.02L275.866 174.596C294.554 173.668 311.93 168.612 336.218 145.444C374.33 108.644 436.538 123.588 431.866 220.548Z" fill="#3E4347"/>
<path d="M341.019 254.42C353.708 254.42 363.995 242.658 363.995 228.148C363.995 213.638 353.708 201.876 341.019 201.876C328.33 201.876 318.043 213.638 318.043 228.148C318.043 242.658 328.33 254.42 341.019 254.42Z" fill="#3E4347"/>
<path d="M354.524 221.492C352.844 222.996 349.484 222.052 346.86 219.06C344.428 216.26 343.868 212.708 345.74 211.204C347.42 209.716 350.972 210.644 353.404 213.636C355.836 216.436 356.396 219.988 354.524 221.492Z" fill="#5A5F63"/>
<path d="M161.017 278.212C204.414 278.212 239.593 252.402 239.593 220.564C239.593 188.726 204.414 162.916 161.017 162.916C117.621 162.916 82.4414 188.726 82.4414 220.564C82.4414 252.402 117.621 278.212 161.017 278.212Z" fill="#F4C534"/>
<path d="M82.4258 220.564C82.4258 252.404 115.21 275.156 155.658 271.396C196.106 267.636 228.89 238.772 228.89 206.932C228.89 175.092 196.106 152.34 155.658 156.1C115.21 159.876 82.4258 188.724 82.4258 220.564Z" fill="white"/>
<path d="M80.2488 220.548C85.2888 202.244 117.049 164.5 136.105 165.252C163.385 166.564 190.473 210.468 248.201 194.02L236.249 174.596C217.561 173.668 200.185 168.612 175.897 145.444C137.785 108.644 75.5768 123.588 80.2488 220.548Z" fill="#3E4347"/>
<path d="M171.097 254.42C183.786 254.42 194.073 242.658 194.073 228.148C194.073 213.638 183.786 201.876 171.097 201.876C158.408 201.876 148.121 213.638 148.121 228.148C148.121 242.658 158.408 254.42 171.097 254.42Z" fill="#3E4347"/>
<path d="M157.595 221.492C159.275 222.996 162.635 222.052 165.259 219.06C167.691 216.26 168.251 212.708 166.379 211.204C164.699 209.716 161.147 210.644 158.715 213.636C156.283 216.436 155.723 219.988 157.595 221.492Z" fill="#5A5F63"/>
<path d="M369.575 415.684C369.575 415.668 367.591 414.98 364.951 414.18C362.343 413.54 358.951 412.452 356.103 412.98C350.263 412.804 345.351 418.5 345.031 418.404C345.111 418.548 344.823 415.732 346.071 412.596C346.695 411.06 347.591 409.204 349.079 408.084C350.503 406.836 352.327 406.068 354.247 405.7C358.247 405.46 362.359 407.62 365.175 410.292C368.039 412.964 369.591 415.716 369.575 415.684Z" fill="#F4C534"/>
<path d="M163.817 421.748C163.817 421.732 162.457 419.908 160.617 417.412C158.713 414.916 156.537 411.684 153.865 408.756C149.209 403.044 141.817 396.628 141.625 396.212C141.625 396.276 143.225 396.612 146.249 398.388C147.705 399.316 149.625 400.42 151.497 402.052C153.417 403.62 155.321 405.46 157.065 407.3C160.361 411.108 162.425 414.9 163.209 417.588C164.057 420.26 163.817 421.716 163.817 421.748Z" fill="#F4C534"/>
<path d="M408.23 338.48C383.702 398.192 325.062 440.16 256.566 440.16C188.07 440.16 129.43 398.192 104.742 338.48C102.422 332.928 106.278 326.448 112.294 325.216C208.422 307.312 304.694 307.312 400.662 325.216C406.678 326.448 410.534 332.928 408.23 338.48Z" fill="#3E4347"/>
<path d="M115.816 324.64C134.024 354.272 191 357.456 258.984 357.456C326.072 357.456 383.176 354.272 402.152 325.872C401.64 325.68 401.224 325.328 400.68 325.216C305.864 307.52 210.776 307.392 115.816 324.64Z" fill="white"/>
</svg>
