<svg width="512" height="512" viewBox="0 0 512 512" fill="none" xmlns="http://www.w3.org/2000/svg">
<path d="M489.969 65.3281C484.433 65.3281 479.873 61.1681 479.249 55.8081C470.865 45.7121 396.449 26.7201 256.017 26.7201C115.585 26.7201 41.1853 45.7121 32.8013 55.8081C32.1773 61.1681 27.6172 65.3281 22.0813 65.3281C16.1133 65.3281 11.2812 60.4961 11.2812 54.5281C11.2813 6.51212 230.961 5.12012 256.017 5.12012C281.073 5.12012 500.769 6.49612 500.769 54.5281C500.769 60.4961 495.937 65.3281 489.969 65.3281ZM479.169 54.5281C479.169 54.5441 479.169 54.5441 479.169 54.5281V54.5281ZM32.8813 54.5281C32.8813 54.5441 32.8813 54.5441 32.8813 54.5281V54.5281Z" fill="#65B1EF"/>
<path d="M256 512C397.385 512 512 397.385 512 256C512 114.615 397.385 0 256 0C114.615 0 0 114.615 0 256C0 397.385 114.615 512 256 512Z" fill="#FFD93B"/>
<path d="M511.999 256C511.999 397.44 397.359 512 255.999 512C175.519 512 103.679 474.88 56.7188 416.72C100.639 452.24 156.559 473.44 217.439 473.44C358.799 473.44 473.439 358.88 473.439 217.44C473.439 156.56 452.239 100.64 416.719 56.7197C474.799 103.68 511.999 175.52 511.999 256Z" fill="#F4C534"/>
<path d="M256.017 104.048C230.977 104.048 11.2812 102.672 11.2812 54.5275C11.2812 48.5595 16.1133 43.7275 22.0813 43.7275C27.6172 43.7275 32.1773 47.8875 32.8013 53.2475C41.1693 63.3755 115.585 82.4475 256.017 82.4475C396.449 82.4475 470.865 63.3755 479.249 53.2475C479.873 47.8875 484.433 43.7275 489.969 43.7275C495.937 43.7275 500.769 48.5595 500.769 54.5275C500.769 102.656 281.057 104.048 256.017 104.048ZM479.169 54.5115C479.169 54.5275 479.169 54.5275 479.169 54.5115V54.5115ZM32.8813 54.5115C32.8813 54.5275 32.8813 54.5275 32.8813 54.5115V54.5115Z" fill="#65B1EF"/>
<path d="M238.992 303.39C238.992 348.958 202.048 373.518 156.496 373.518C110.944 373.518 74 348.942 74 303.39C74 257.838 132.016 169.102 177.584 169.102C223.152 169.102 238.992 257.822 238.992 303.39Z" fill="white"/>
<path d="M173.519 340.494C195.787 340.494 213.839 322.442 213.839 300.174C213.839 277.905 195.787 259.854 173.519 259.854C151.251 259.854 133.199 277.905 133.199 300.174C133.199 322.442 151.251 340.494 173.519 340.494Z" fill="#3E4347"/>
<path d="M194.033 279.675C188.972 274.614 182.412 272.968 179.382 275.998C176.351 279.029 177.997 285.588 183.059 290.649C188.12 295.711 194.679 297.357 197.71 294.326C200.74 291.296 199.094 284.736 194.033 279.675Z" fill="white"/>
<path d="M154.078 126.862C157.662 120.526 187.822 117.358 214.574 136.91C247.806 165.646 237.006 194.414 237.006 194.414C230.126 178.414 223.998 165.086 204.334 149.998C186.814 135.31 159.71 126.094 154.078 126.862Z" fill="#3E4347"/>
<path d="M273.805 303.39C273.805 348.958 310.749 373.518 356.301 373.518C401.853 373.518 438.797 348.958 438.797 303.39C438.797 257.822 380.781 169.102 335.213 169.102C289.645 169.102 273.805 257.822 273.805 303.39Z" fill="white"/>
<path d="M339.277 340.494C361.545 340.494 379.597 322.442 379.597 300.174C379.597 277.905 361.545 259.854 339.277 259.854C317.009 259.854 298.957 277.905 298.957 300.174C298.957 322.442 317.009 340.494 339.277 340.494Z" fill="#3E4347"/>
<path d="M333.415 275.957C330.385 272.927 323.825 274.573 318.764 279.634C313.703 284.695 312.057 291.255 315.087 294.285C318.118 297.316 324.677 295.67 329.738 290.608C334.799 285.547 336.446 278.988 333.415 275.957Z" fill="white"/>
<path d="M358.717 126.862C355.133 120.526 324.973 117.358 298.221 136.91C264.989 165.646 275.789 194.414 275.789 194.414C282.669 178.414 288.797 165.086 308.461 149.998C325.981 135.31 353.085 126.094 358.717 126.862Z" fill="#3E4347"/>
<path d="M340.413 438.094C336.189 447.79 323.053 450.206 315.773 441.294L315.613 441.134C302.493 424.75 283.917 414.414 260.253 414.414C238.029 414.862 218.749 425.982 202.973 441.774C197.533 447.694 188.413 447.854 182.653 442.414C176.893 436.974 176.573 427.854 182.013 422.094C186.685 416.958 230.125 399.07 259.933 398.574C293.725 397.726 316.893 412.19 332.893 419.054C340.253 422.254 343.613 430.894 340.413 438.094Z" fill="#3E4347"/>
<path d="M281.853 439.854H243.773C251.181 429.486 272.621 428.094 281.853 439.854Z" fill="#F4C534"/>
</svg>
