<svg width="512" height="512" viewBox="0 0 512 512" fill="none" xmlns="http://www.w3.org/2000/svg">
<path d="M489.969 65.3281C484.433 65.3281 479.873 61.1681 479.249 55.8081C470.865 45.7121 396.449 26.7201 256.017 26.7201C115.585 26.7201 41.1853 45.7121 32.8013 55.8081C32.1773 61.1681 27.6172 65.3281 22.0813 65.3281C16.1133 65.3281 11.2812 60.4961 11.2812 54.5281C11.2813 6.51212 230.961 5.12012 256.017 5.12012C281.073 5.12012 500.769 6.49612 500.769 54.5281C500.769 60.4961 495.937 65.3281 489.969 65.3281ZM479.169 54.5281C479.169 54.5441 479.169 54.5441 479.169 54.5281V54.5281ZM32.8813 54.5281C32.8813 54.5441 32.8813 54.5441 32.8813 54.5281V54.5281Z" fill="#65B1EF"/>
<path d="M256 512C397.385 512 512 397.385 512 256C512 114.615 397.385 0 256 0C114.615 0 0 114.615 0 256C0 397.385 114.615 512 256 512Z" fill="#FFD93B"/>
<path d="M511.999 256C511.999 397.44 397.359 512 255.999 512C175.519 512 103.679 474.88 56.7188 416.72C100.639 452.24 156.559 473.44 217.439 473.44C358.799 473.44 473.439 358.88 473.439 217.44C473.439 156.56 452.239 100.64 416.719 56.7197C474.799 103.68 511.999 175.52 511.999 256Z" fill="#F4C534"/>
<path d="M256.017 104.048C230.977 104.048 11.2812 102.672 11.2812 54.5275C11.2812 48.5595 16.1133 43.7275 22.0813 43.7275C27.6172 43.7275 32.1773 47.8875 32.8013 53.2475C41.1693 63.3755 115.585 82.4475 256.017 82.4475C396.449 82.4475 470.865 63.3755 479.249 53.2475C479.873 47.8875 484.433 43.7275 489.969 43.7275C495.937 43.7275 500.769 48.5595 500.769 54.5275C500.769 102.656 281.057 104.048 256.017 104.048ZM479.169 54.5115C479.169 54.5275 479.169 54.5275 479.169 54.5115V54.5115ZM32.8813 54.5115C32.8813 54.5275 32.8813 54.5275 32.8813 54.5115V54.5115Z" fill="#65B1EF"/>
<path d="M478.639 217.438C478.607 217.886 478.575 218.334 478.559 218.766C477.855 247.326 470.207 267.646 432.511 283.326C418.191 289.454 403.103 293.486 388.223 295.278C372.207 297.214 356.431 296.558 341.775 293.326C328.751 290.446 311.295 283.566 301.279 268.942C291.295 254.206 286.399 238.43 287.391 224.43C288.095 183.198 320.335 173.358 354.895 166.398C381.167 162.174 452.543 150.942 472.239 174.798C480.335 184.878 479.343 203.678 478.639 217.438Z" fill="#45CBEA"/>
<path d="M214.846 235.662C211.246 262.302 194.702 282.926 169.07 291.278C153.23 296.302 135.198 296.83 118.382 294.718C103.038 292.798 88.8941 288.782 78.2701 283.838C36.7821 266.27 33.2301 242.414 32.7341 218.638C31.4861 200.334 30.3501 181.406 43.2301 170.27C54.7821 160.238 75.5821 157.886 108.958 160.366C165.63 163.998 193.582 181.854 200.942 187.854C211.886 196.11 217.598 215.358 214.846 235.662Z" fill="#45CBEA"/>
<path d="M389.633 160.911L293.953 271.071C304.145 284.095 320.209 290.639 332.529 293.359C333.761 293.631 335.041 293.775 336.289 294.015L448.113 165.263C432.577 159.599 410.305 159.359 389.633 160.911Z" fill="#38C0DC"/>
<path d="M347.951 166.062L280.383 243.838C282.031 249.966 284.655 256.126 288.095 262.238L374.879 162.318C364.303 163.518 354.911 164.942 347.951 166.062Z" fill="#38C0DC"/>
<path d="M46.8477 262.83C53.5837 270.446 63.4237 277.55 78.2717 283.854C81.1197 285.182 84.2717 286.43 87.5837 287.598L183.312 177.39C172.128 172.174 155.632 166.606 133.424 163.15L46.8477 262.83Z" fill="#38C0DC"/>
<path d="M34.0156 234.75C35.0716 241.454 37.0236 248.03 40.6716 254.366L120.64 162.318C110.048 163.518 100.64 164.942 93.6956 166.062L34.0156 234.75Z" fill="#38C0DC"/>
<path d="M510.479 155.903C510.191 152.639 508.687 149.663 506.319 147.727C503.567 145.359 499.375 144.591 496.351 145.199C419.983 156.607 339.807 147.855 296.079 172.111C266.191 190.399 236.303 190.255 207.023 171.807C177.567 154.815 98.4635 150.399 79.4555 150.399C19.9355 150.399 2.47949 136.719 0.799495 155.903C-2.36851 207.871 4.22349 179.007 14.4795 208.095C15.3755 210.319 15.9675 213.007 16.1115 216.127C18.2235 304.255 134.111 310.879 172.223 303.247C206.575 295.967 222.479 275.295 229.919 259.231C233.935 250.607 242.112 244.959 251.184 244.959C259.968 244.959 268.655 250.111 272.447 258.335C298.559 316.255 376.735 314.095 435.695 292.687C514.431 263.087 480.623 215.455 507.055 191.727C510.335 188.895 512.255 184.591 511.967 180.271L510.479 155.903ZM206.88 236.335C197.68 295.775 124.495 297.135 81.0875 277.215C44.2075 261.599 40.7995 241.679 40.3515 218.927C38.3515 184.831 36.1435 160.911 108.896 167.775C164.495 171.487 189.631 188.287 196.175 193.503C205.087 200.207 209.84 218.639 206.88 236.335ZM470.927 219.231C470.191 245.695 463.487 262.639 429.887 276.479C369.263 302.511 291.279 289.311 295.039 224.591C295.487 191.727 316.895 181.327 355.999 173.599C484.575 152.671 470.927 186.543 470.927 219.231Z" fill="#3E4347"/>
<path d="M370.034 378.863C341.394 414.143 300.914 436.175 255.954 436.175C210.994 436.175 170.514 414.143 141.874 378.863C133.554 368.591 143.954 352.351 155.154 358.143C222.354 393.247 289.714 393.247 356.914 358.143C368.114 352.351 378.514 368.591 370.034 378.863Z" fill="#3E4347"/>
</svg>
