<svg width="512" height="512" viewBox="0 0 512 512" fill="none" xmlns="http://www.w3.org/2000/svg">
<path d="M256 512C397.385 512 512 397.385 512 256C512 114.615 397.385 0 256 0C114.615 0 0 114.615 0 256C0 397.385 114.615 512 256 512Z" fill="#FFD93B"/>
<path d="M511.999 256C511.999 397.44 397.359 512 255.999 512C175.519 512 103.679 474.88 56.7188 416.72C100.639 452.24 156.559 473.44 217.439 473.44C358.799 473.44 473.439 358.88 473.439 217.44C473.439 156.56 452.239 100.64 416.719 56.7197C474.799 103.68 511.999 175.52 511.999 256Z" fill="#F4C534"/>
<path d="M221.856 219.584C224.72 222.448 224.72 227.36 221.856 230.224L201.392 250.688C198.528 253.552 193.616 253.552 190.752 250.688L165.92 225.856L141.088 250.688C138.224 253.552 133.312 253.552 130.448 250.688L109.968 230.24C107.104 227.376 107.104 222.464 109.968 219.6L134.8 194.896L109.968 170.064C107.104 167.2 107.104 162.288 109.968 159.424L130.432 138.96C133.296 136.096 138.208 136.096 141.072 138.96L165.904 163.792L190.736 138.96C193.6 136.096 198.512 136.096 201.376 138.96L221.84 159.424C224.704 162.288 224.704 167.2 221.84 170.064L197.008 194.896L221.856 219.584Z" fill="#3E4347"/>
<path d="M402.032 219.584C404.896 222.448 404.896 227.36 402.032 230.224L381.568 250.688C378.704 253.552 373.792 253.552 370.928 250.688L346.096 225.856L321.264 250.688C318.4 253.552 313.488 253.552 310.624 250.688L290.16 230.224C287.296 227.36 287.296 222.448 290.16 219.584L314.992 194.88L290.16 170.048C287.296 167.184 287.296 162.272 290.16 159.408L310.624 138.944C313.488 136.08 318.4 136.08 321.264 138.944L346.096 163.776L370.928 138.944C373.792 136.08 378.704 136.08 381.568 138.944L402.032 159.408C404.896 162.272 404.896 167.184 402.032 170.048L377.2 194.88L402.032 219.584Z" fill="#3E4347"/>
<path d="M381.73 312.904C351.49 348.744 306.418 377.32 256.018 377.32C205.618 377.32 160.61 348.744 130.21 313.064C119.65 300.584 130.37 281.544 146.69 284.424C218.69 297.064 291.49 297.224 365.41 284.264C381.57 281.544 392.45 300.424 381.73 312.904Z" fill="#3E4347"/>
<path d="M256.021 377.32C281.733 377.32 306.037 369.816 327.717 357.768C318.629 324.056 286.965 314.456 265.077 326.088C235.429 341.912 202.261 321.432 189.461 360.392C209.829 370.824 232.277 377.32 256.021 377.32Z" fill="#E24B4B"/>
</svg>
