<svg width="512" height="512" viewBox="0 0 512 512" fill="none" xmlns="http://www.w3.org/2000/svg">
<path d="M256 512C397.385 512 512 397.385 512 256C512 114.615 397.385 0 256 0C114.615 0 0 114.615 0 256C0 397.385 114.615 512 256 512Z" fill="#FFD93B"/>
<path d="M511.999 256C511.999 397.44 397.359 512 255.999 512C175.519 512 103.679 474.88 56.7188 416.72C100.639 452.24 156.559 473.44 217.439 473.44C358.799 473.44 473.439 358.88 473.439 217.44C473.439 156.56 452.239 100.64 416.719 56.7202C474.799 103.68 511.999 175.52 511.999 256Z" fill="#F4C534"/>
<path d="M271.297 214.688C279.761 258.928 325.617 291.968 373.697 288.352C421.953 284.72 454.017 245.808 445.537 201.568C437.041 157.184 391.217 124.288 342.977 127.92C294.881 131.536 262.801 170.304 271.297 214.688Z" fill="white"/>
<path d="M336.798 242.144C358.739 242.144 376.526 224.357 376.526 202.416C376.526 180.475 358.739 162.688 336.798 162.688C314.857 162.688 297.07 180.475 297.07 202.416C297.07 224.357 314.857 242.144 336.798 242.144Z" fill="#3E4347"/>
<path d="M331.637 179.151C328.544 176.058 321.974 177.613 316.963 182.624C311.952 187.635 310.397 194.205 313.49 197.298C316.583 200.391 323.152 198.836 328.163 193.824C333.175 188.813 334.73 182.244 331.637 179.151Z" fill="white"/>
<path d="M240.705 214.688C232.241 258.928 186.385 291.968 138.305 288.352C90.049 284.72 57.985 245.808 66.465 201.568C74.961 157.184 120.785 124.288 169.025 127.92C217.121 131.536 249.201 170.304 240.705 214.688Z" fill="white"/>
<path d="M175.185 242.144C197.126 242.144 214.913 224.357 214.913 202.416C214.913 180.475 197.126 162.688 175.185 162.688C153.244 162.688 135.457 180.475 135.457 202.416C135.457 224.357 153.244 242.144 175.185 242.144Z" fill="#3E4347"/>
<path d="M170.023 179.129C166.93 176.036 160.361 177.591 155.35 182.602C150.338 187.613 148.783 194.183 151.876 197.276C154.969 200.369 161.539 198.814 166.55 193.802C171.561 188.791 173.116 182.222 170.023 179.129Z" fill="white"/>
<path d="M76.7852 127.472C76.7852 127.472 162.641 145.104 227.169 92.5439C214.449 144.96 164.321 156.608 76.7852 127.472Z" fill="#3E4347"/>
<path d="M435.216 127.472C435.216 127.472 349.36 145.104 284.832 92.5439C297.552 144.96 347.68 156.608 435.216 127.472Z" fill="#3E4347"/>
<path d="M75.0078 251.36C76.6718 251.008 78.4958 250.736 80.8318 250.736C94.1118 250.736 94.1118 257.696 107.376 257.696C120.624 257.696 120.624 250.736 133.888 250.736C147.136 250.736 147.136 257.696 160.384 257.696C173.632 257.696 173.632 250.736 186.88 250.736C200.112 250.736 200.112 257.696 213.344 257.696C215.2 257.696 216.736 257.536 218.144 257.312C198.416 278.08 168.848 290.64 138.304 288.336C109.92 286.208 87.2318 271.824 75.0078 251.36Z" fill="#59A5E0"/>
<path d="M69.6953 295.344C70.4953 304.592 76.3673 311.12 85.3273 311.12C94.5433 311.12 98.7993 299.824 96.1593 293.056C89.1353 275.152 85.0873 257.6 85.0873 257.6C85.0873 257.6 70.3513 281.04 69.6953 295.344Z" fill="#59A5E0"/>
<path d="M73.9531 352.656C74.4011 357.856 77.7611 362.336 82.8011 362.336C87.9691 362.336 91.0091 356.464 88.8171 351.376C84.5291 341.456 82.5451 333.76 82.5451 333.76C82.5451 333.76 74.3211 344.624 73.9531 352.656Z" fill="#59A5E0"/>
<path d="M86.4327 355.056C87.2327 355.536 86.9127 356.816 85.7927 358.096C84.6727 359.376 83.2327 359.856 82.4327 359.376C81.6327 358.896 81.9527 357.456 83.0727 356.336C84.1927 355.056 85.6327 354.416 86.4327 355.056Z" fill="white"/>
<path d="M90.1122 304.496C88.0322 306.736 85.4722 307.856 84.1922 306.896C82.7522 306.096 83.0722 303.536 85.1522 301.296C87.0722 299.056 89.7922 298.096 91.2322 299.056C92.5122 300.016 92.0322 302.416 90.1122 304.496Z" fill="white"/>
<path d="M161.044 358.505C178.548 326.889 213.284 302.873 256.276 303.001C298.724 302.889 332.804 326.409 350.068 357.561C356.916 369.929 344.964 384.776 332.948 379.304C281.908 356.488 230.164 357.561 177.748 380.377C165.652 385.721 154.228 370.873 161.044 358.505Z" fill="#3E4347"/>
<path d="M343.7 375.577V453.337C343.7 458.297 339.7 462.297 334.74 462.297C329.78 462.297 325.94 458.297 325.94 453.337V408.217C325.94 413.177 321.78 417.177 316.82 417.177C312.02 417.177 307.86 413.177 307.86 408.217V421.657C307.86 426.777 303.86 430.617 298.9 430.617C293.94 430.617 289.94 426.777 289.94 421.657V453.337C289.94 458.297 285.94 462.297 280.98 462.297C276.02 462.297 272.02 458.297 272.02 453.337V390.457C272.02 395.417 268.02 399.417 263.06 399.417C258.1 399.417 254.1 395.417 254.1 390.457V429.017C254.1 433.977 250.1 437.977 245.14 437.977C240.18 437.977 236.18 433.977 236.18 429.017V364.025L263.668 358.489C287.588 353.673 312.5 355.353 335.38 363.817C335.444 363.833 335.492 363.865 335.54 363.881C340.34 365.497 343.7 370.457 343.7 375.577Z" fill="white"/>
<path d="M316.834 478.024C321.765 478.024 325.762 474.027 325.762 469.096C325.762 464.166 321.765 460.168 316.834 460.168C311.903 460.168 307.906 464.166 307.906 469.096C307.906 474.027 311.903 478.024 316.834 478.024Z" fill="white"/>
</svg>
