<svg width="512" height="512" viewBox="0 0 512 512" fill="none" xmlns="http://www.w3.org/2000/svg">
<path d="M256 512C397.385 512 512 397.385 512 256C512 114.615 397.385 0 256 0C114.615 0 0 114.615 0 256C0 397.385 114.615 512 256 512Z" fill="#FFD93B"/>
<path d="M511.999 256C511.999 397.44 397.359 512 255.999 512C175.519 512 103.679 474.88 56.7188 416.72C100.639 452.24 156.559 473.44 217.439 473.44C358.799 473.44 473.439 358.88 473.439 217.44C473.439 156.56 452.239 100.64 416.719 56.7197C474.799 103.68 511.999 175.52 511.999 256Z" fill="#F4C534"/>
<path d="M403.377 327.696C394.081 390.16 335.649 444.512 256.065 444.352C176.353 444.512 117.921 390.144 108.641 327.696C107.537 320.752 114.113 314.32 121.057 315.36C210.161 328.656 301.873 328.656 390.977 315.36C397.889 314.304 404.481 320.752 403.377 327.696Z" fill="#3E4347"/>
<path d="M256.046 421.584C197.038 421.744 148.014 385.888 132.398 337.376C214.158 348.256 297.822 348.256 379.582 337.376C363.998 385.888 315.006 421.728 256.046 421.584Z" fill="white"/>
<path d="M330.927 407.584L321.855 332.272L323.775 332.064C325.807 331.952 327.935 331.744 330.063 331.536L331.775 331.424L341.583 406.624L339.775 406.736C337.327 406.944 334.975 407.168 332.623 407.376L330.927 407.584Z" fill="#3E4347"/>
<path d="M225.007 425.184H223.199L227.471 334.416L237.391 334.624L234.079 425.504L232.271 425.392C229.807 425.392 227.455 425.28 225.007 425.184Z" fill="#3E4347"/>
<path d="M170.176 409.184L180.304 331.424L182.112 331.536C184.144 331.744 186.272 331.968 188.304 332.064L190.224 332.272L180.832 410.144L179.12 410.032C176.768 409.824 174.432 409.6 171.968 409.392L170.176 409.184Z" fill="#3E4347"/>
<path d="M278.015 425.504L274.703 334.624L284.623 334.416L288.991 425.184H287.071C284.623 425.296 282.271 425.392 279.823 425.392L278.015 425.504Z" fill="#3E4347"/>
<path d="M142.863 380.912L144.783 370.464L146.495 370.576C219.887 379.536 294.223 379.424 367.615 370.368L369.327 370.16L371.247 380.608L369.327 380.928C294.879 390.096 219.359 390.208 144.895 381.136L142.863 380.912Z" fill="#3E4347"/>
<path d="M223.036 222.788C225.9 225.652 225.9 230.564 223.036 233.428L202.572 253.892C199.708 256.756 194.796 256.756 191.932 253.892L167.1 229.06L142.268 253.892C139.404 256.756 134.492 256.756 131.628 253.892L111.148 233.444C108.284 230.58 108.284 225.668 111.148 222.804L135.98 198.1L111.148 173.268C108.284 170.404 108.284 165.492 111.148 162.628L131.612 142.164C134.476 139.3 139.388 139.3 142.252 142.164L167.084 166.996L191.916 142.164C194.78 139.3 199.692 139.3 202.556 142.164L223.02 162.628C225.884 165.492 225.884 170.404 223.02 173.268L198.188 198.1L223.036 222.788Z" fill="#3E4347"/>
<path d="M403.211 222.788C406.075 225.652 406.075 230.564 403.211 233.428L382.747 253.892C379.883 256.756 374.971 256.756 372.107 253.892L347.275 229.06L322.443 253.892C319.579 256.756 314.667 256.756 311.803 253.892L291.339 233.428C288.475 230.564 288.475 225.652 291.339 222.788L316.171 198.084L291.339 173.252C288.475 170.388 288.475 165.476 291.339 162.612L311.803 142.148C314.667 139.284 319.579 139.284 322.443 142.148L347.275 166.98L372.107 142.148C374.971 139.284 379.883 139.284 382.747 142.148L403.211 162.612C406.075 165.476 406.075 170.388 403.211 173.252L378.379 198.084L403.211 222.788Z" fill="#3E4347"/>
</svg>
