<svg width="512" height="512" viewBox="0 0 512 512" fill="none" xmlns="http://www.w3.org/2000/svg">
<path d="M256 512C397.385 512 512 397.385 512 256C512 114.615 397.385 0 256 0C114.615 0 0 114.615 0 256C0 397.385 114.615 512 256 512Z" fill="#FFD93B"/>
<path d="M511.999 256C511.999 397.44 397.359 512 255.999 512C175.519 512 103.679 474.88 56.7188 416.72C100.639 452.24 156.559 473.44 217.439 473.44C358.799 473.44 473.439 358.88 473.439 217.44C473.439 156.56 452.239 100.64 416.719 56.7202C474.799 103.68 511.999 175.52 511.999 256Z" fill="#F4C534"/>
<path d="M216.978 218.848C204.946 202.432 183.249 191.52 158.513 191.52C133.665 191.632 111.969 202.544 99.9375 218.96C100.498 187.136 126.481 161.504 158.513 161.504C190.321 161.504 216.418 187.024 216.978 218.848Z" fill="#3E4347"/>
<path d="M412.083 218.848C400.051 202.432 378.355 191.52 353.619 191.52C328.771 191.632 307.075 202.544 295.043 218.96C295.603 187.136 321.587 161.504 353.619 161.504C385.427 161.504 411.523 187.024 412.083 218.848Z" fill="#3E4347"/>
<path d="M163.044 339.505C180.548 307.889 215.284 283.873 258.276 284.001C300.724 283.889 334.804 307.409 352.068 338.561C358.916 350.929 346.964 365.776 334.948 360.304C283.908 337.488 232.164 338.561 179.748 361.377C167.652 366.721 156.228 351.873 163.044 339.505Z" fill="#3E4347"/>
<path d="M345.7 356.577V434.337C345.7 439.297 341.7 443.297 336.74 443.297C331.78 443.297 327.94 439.297 327.94 434.337V389.217C327.94 394.177 323.78 398.177 318.82 398.177C314.02 398.177 309.86 394.177 309.86 389.217V402.657C309.86 407.777 305.86 411.617 300.9 411.617C295.94 411.617 291.94 407.777 291.94 402.657V434.337C291.94 439.297 287.94 443.297 282.98 443.297C278.02 443.297 274.02 439.297 274.02 434.337V371.457C274.02 376.417 270.02 380.417 265.06 380.417C260.1 380.417 256.1 376.417 256.1 371.457V410.017C256.1 414.977 252.1 418.977 247.14 418.977C242.18 418.977 238.18 414.977 238.18 410.017V345.025L265.668 339.489C289.588 334.673 314.5 336.353 337.38 344.817C337.444 344.833 337.492 344.865 337.54 344.881C342.34 346.497 345.7 351.457 345.7 356.577Z" fill="white"/>
<path d="M318.834 459.024C323.765 459.024 327.762 455.027 327.762 450.096C327.762 445.166 323.765 441.168 318.834 441.168C313.903 441.168 309.906 445.166 309.906 450.096C309.906 455.027 313.903 459.024 318.834 459.024Z" fill="white"/>
</svg>
