<svg width="512" height="512" viewBox="0 0 512 512" fill="none" xmlns="http://www.w3.org/2000/svg">
<path d="M256 512C397.385 512 512 397.385 512 256C512 114.615 397.385 0 256 0C114.615 0 0 114.615 0 256C0 397.385 114.615 512 256 512Z" fill="#FFD93B"/>
<path d="M511.999 256C511.999 397.44 397.359 512 255.999 512C175.519 512 103.679 474.88 56.7188 416.72C100.639 452.24 156.559 473.44 217.439 473.44C358.799 473.44 473.439 358.88 473.439 217.44C473.439 156.56 452.239 100.64 416.719 56.7197C474.799 103.68 511.999 175.52 511.999 256Z" fill="#F4C534"/>
<path d="M216.978 218.848C204.946 202.432 183.249 191.52 158.513 191.52C133.665 191.632 111.969 202.544 99.9375 218.96C100.498 187.136 126.481 161.504 158.513 161.504C190.321 161.504 216.418 187.024 216.978 218.848Z" fill="#3E4347"/>
<path d="M412.083 218.848C400.051 202.432 378.355 191.52 353.619 191.52C328.771 191.632 307.075 202.544 295.043 218.96C295.603 187.136 321.587 161.504 353.619 161.504C385.427 161.504 411.523 187.024 412.083 218.848Z" fill="#3E4347"/>
<path d="M416.342 303.837C398.662 378.349 333.67 422.333 256.438 422.333C179.51 422.333 114.198 378.525 96.5176 303.837C93.1736 290.221 106.726 278.701 117.238 286.557C147.814 309.421 199.59 319.549 256.438 319.549C313.302 319.549 365.062 309.421 395.638 286.557C406.15 278.701 419.702 290.221 416.342 303.837Z" fill="#3E4347"/>
<path d="M256.436 422.312C292.612 422.312 326.004 412.568 353.204 394.648C352.772 342.472 309.636 364.76 256.436 364.76C203.236 364.76 160.116 342.472 159.684 394.632C186.932 412.568 220.356 422.312 256.436 422.312Z" fill="#E24B4B"/>
<path d="M289.43 318.185L294.038 344.937C294.614 348.585 297.59 351.321 301.238 351.513C314.79 352.265 328.134 350.297 341.254 345.641C344.934 344.377 347.398 340.857 347.398 337.113L347.654 308.473C330.086 313.401 310.406 316.601 289.43 318.185Z" fill="white"/>
<path d="M160.676 307.272L166.468 334.952C167.188 338.616 170.388 340.632 173.876 341.704C187.668 345.96 256.788 356.392 269.668 352.152C273.268 351.016 275.604 347.576 275.46 343.848L274.788 319.096C268.74 319.336 262.628 319.512 256.436 319.512C221.284 319.512 188.132 315.624 160.676 307.272Z" fill="white"/>
</svg>
