<svg width="512" height="512" viewBox="0 0 512 512" fill="none" xmlns="http://www.w3.org/2000/svg">
<path d="M256 512C397.385 512 512 397.385 512 256C512 114.615 397.385 0 256 0C114.615 0 0 114.615 0 256C0 397.385 114.615 512 256 512Z" fill="#FFD93B"/>
<path d="M511.999 256C511.999 397.44 397.359 512 255.999 512C175.519 512 103.679 474.88 56.7188 416.72C100.639 452.24 156.559 473.44 217.439 473.44C358.799 473.44 473.439 358.88 473.439 217.44C473.439 156.56 452.239 100.64 416.719 56.7202C474.799 103.68 511.999 175.52 511.999 256Z" fill="#F4C534"/>
<path d="M216.081 235.632C215.745 240.944 214.273 246 211.793 250.608C205.393 235.232 187.473 231.68 166.289 231.68C145.233 231.68 127.185 235.232 120.897 250.608C118.417 246 116.833 240.944 116.497 235.632C114.993 211.744 137.393 195.376 166.289 195.376C195.297 195.36 217.569 211.744 216.081 235.632Z" fill="#3E4347"/>
<path d="M399.042 235.632C398.706 240.944 397.234 246 394.754 250.608C388.354 235.232 370.434 231.68 349.25 231.68C328.194 231.68 310.146 235.232 303.858 250.608C301.378 246 299.794 240.944 299.458 235.632C297.954 211.744 320.354 195.376 349.25 195.376C378.258 195.36 400.53 211.744 399.042 235.632Z" fill="#3E4347"/>
<path d="M328.449 145.92C327.841 140.08 332.049 134.832 337.889 134.208C340.049 133.968 390.913 128.992 421.169 171.408C424.593 176.208 423.473 182.864 418.673 186.288C413.873 189.728 407.217 188.608 403.793 183.792C380.897 151.712 341.809 155.248 340.145 155.424C334.289 156 329.041 151.76 328.449 145.92Z" fill="#E9B02C"/>
<path d="M197.968 175.104C196.72 174.016 166.88 148.528 129.632 161.44C124.048 163.376 117.984 160.448 116.048 154.864C114.112 149.296 117.056 143.216 122.608 141.296C171.84 124.208 210.448 157.664 212.064 159.104C216.48 163.008 216.896 169.744 212.976 174.16C209.088 178.56 202.368 178.976 197.968 175.104Z" fill="#E9B02C"/>
<path d="M370.028 286.612C390.828 296.26 359.34 393.46 256.044 394.276C152.748 393.476 121.26 296.26 142.06 286.612C159.836 275.172 202.892 304.996 256.044 305.38C309.66 305.796 352.268 275.172 370.028 286.612Z" fill="#3E4347"/>
<path d="M303.882 352.964C292.362 350.388 279.738 356.276 268.138 360.308C260.33 363.332 250.33 364.484 239.482 362.18C239.274 362.148 239.082 362.1 238.89 362.052C220.186 357.396 195.866 351.988 190.874 369.3C190.842 369.412 190.826 369.54 190.81 369.668C186.618 392.34 192.97 419.572 198.906 446.628C206.874 475.78 226.202 498.836 251.242 501.092C280.49 503.876 303.898 481.54 312.714 448.964C318.778 421.14 325.642 392.996 321.322 369.668C319.658 360.612 312.282 355.076 303.882 352.964Z" fill="#E24B4B"/>
</svg>
