<svg width="512" height="512" viewBox="0 0 512 512" fill="none" xmlns="http://www.w3.org/2000/svg">
<g clip-path="url(#clip0)">
<path d="M255.965 480.32C388.601 480.32 496.125 372.797 496.125 240.16C496.125 107.523 388.601 0 255.965 0C123.328 0 15.8047 107.523 15.8047 240.16C15.8047 372.797 123.328 480.32 255.965 480.32Z" fill="#FFD93B"/>
<path d="M496.189 240.224C496.189 372.944 388.605 480.448 255.965 480.448C180.445 480.448 113.021 445.616 68.957 391.04C110.173 424.368 162.653 444.272 219.773 444.272C352.429 444.272 459.997 336.768 459.997 204.048C459.997 146.912 440.109 94.4484 406.765 53.2324C461.293 97.2964 496.189 164.704 496.189 240.224Z" fill="#F4C534"/>
<g opacity="0.2">
<path opacity="0.2" d="M306.348 383.296C302.764 386.016 296.396 385.76 292.476 383.216C288.412 380.672 287.932 377.296 291.164 375.184C294.268 373.056 300.108 372.432 304.54 374.432C309.116 376.368 310.108 380.624 306.348 383.296Z" fill="white"/>
</g>
<g opacity="0.2">
<path opacity="0.2" d="M289.434 356.201C284.722 354.14 279.806 354.976 278.453 358.069C277.1 361.161 279.823 365.339 284.535 367.401C289.247 369.462 294.163 368.626 295.516 365.533C296.869 362.44 294.146 358.262 289.434 356.201Z" fill="white"/>
</g>
<path d="M479.535 467.16C481.503 468.312 482.639 469.544 482.639 470.76C482.639 473.016 479.167 475.064 473.167 476.808C483.871 478.808 490.431 481.56 490.431 484.712C490.431 491.016 462.655 496.152 428.495 496.152C404.095 496.152 382.991 493.512 372.943 489.656C372.943 489.656 372.943 489.656 372.847 489.656C370.879 489.72 368.719 489.72 366.655 489.72C332.399 489.72 304.719 484.584 304.719 478.28C304.719 474.936 312.511 471.912 324.895 469.864C313.919 467.816 307.071 464.984 307.071 461.832C307.071 455.464 334.751 450.392 368.911 450.392C378.671 450.392 387.871 450.776 396.031 451.544C406.543 448.008 426.815 445.624 450.079 445.624C484.239 445.624 512.015 450.776 512.015 457.064C511.999 461.368 498.863 465.16 479.535 467.16Z" fill="#45CBEA"/>
<path d="M445.229 474.984C455.533 473.224 462.861 464.04 462.125 453.608C458.701 404.824 450.829 354.84 432.717 310.056C417.533 268.888 397.085 229.112 369.085 191.016C362.509 196.056 354.381 199.56 344.781 200.968C363.725 242.36 374.733 282.92 380.461 323.56C385.501 352.056 386.941 394.504 379.085 450.44C377.821 459.448 382.861 468.344 391.341 471.624C405.565 477.096 423.069 478.76 445.229 474.984Z" fill="#45CBEA"/>
<g opacity="0.2">
<path opacity="0.2" d="M394.017 318.696C387.089 282.968 370.433 235.656 350.961 199.704C350.737 199.768 350.513 199.832 350.273 199.88C368.577 236.552 381.233 280.312 389.265 319.672C399.969 367.208 400.241 416.024 395.937 465.624C404.321 396.728 400.497 347.352 394.017 318.696Z" fill="white"/>
</g>
<g opacity="0.2">
<path opacity="0.2" d="M407.761 316.488C394.689 267.48 374.385 224.68 357.969 197.352C357.857 197.4 357.745 197.432 357.633 197.48C374.081 225.896 393.505 269.416 405.425 317.096C420.097 368.504 420.225 419.224 417.681 467.352C417.297 472.264 422.129 472.648 422.513 467.736C424.321 418.776 421.889 363.192 407.761 316.488Z" fill="white"/>
</g>
<g opacity="0.2">
<path opacity="0.2" d="M422.848 313.992C410.416 273.816 390.56 229.704 366.176 192.984C364.944 193.8 363.648 194.568 362.32 195.272C386.928 231.048 407.424 274.52 420.56 314.76C441.28 370.808 443.2 426.664 444.24 469.464C443.776 417.816 441.744 368.92 422.848 313.992Z" fill="white"/>
</g>
<path d="M32.464 467.16C30.496 468.312 29.376 469.544 29.376 470.76C29.376 473.016 32.848 475.064 38.848 476.808C28.16 478.808 21.584 481.56 21.584 484.712C21.584 491 49.36 496.152 83.52 496.152C107.92 496.152 129.024 493.512 139.072 489.656C139.072 489.656 139.072 489.656 139.168 489.656C141.136 489.72 143.296 489.72 145.36 489.72C179.616 489.72 207.296 484.584 207.296 478.28C207.296 474.936 199.504 471.912 187.12 469.864C198.096 467.816 204.944 464.984 204.944 461.832C204.944 455.464 177.264 450.392 143.104 450.392C133.344 450.392 124.144 450.776 115.984 451.544C105.472 448.008 85.2 445.624 61.936 445.624C27.776 445.608 0 450.76 0 457.064C0 461.368 13.136 465.16 32.464 467.16Z" fill="#45CBEA"/>
<path d="M67.3617 470.92C57.2017 469.192 49.9857 460.136 50.7057 449.848C54.0817 401.768 61.8417 352.488 79.6977 308.344C94.6577 267.768 114.818 228.552 142.434 191C148.914 195.96 156.914 199.416 166.386 200.824C147.714 241.624 136.866 281.608 131.218 321.672C126.258 349.768 124.834 391.592 132.578 446.728C133.826 455.608 128.85 464.376 120.498 467.608C106.466 473.016 89.2177 474.648 67.3617 470.92Z" fill="#45CBEA"/>
<g opacity="0.2">
<path opacity="0.2" d="M117.84 316.872C124.656 281.656 141.088 235.016 160.272 199.576C160.496 199.64 160.72 199.704 160.944 199.752C142.912 235.896 130.416 279.032 122.512 317.832C111.952 364.696 111.696 412.808 115.936 461.704C107.696 393.8 111.472 345.128 117.84 316.872Z" fill="white"/>
</g>
<g opacity="0.2">
<path opacity="0.2" d="M104.304 314.695C117.184 266.391 137.216 224.199 153.392 197.271C153.504 197.319 153.616 197.351 153.728 197.399C137.504 225.415 118.368 268.311 106.624 315.303C92.1596 365.975 92.0476 415.975 94.5436 463.415C94.8316 466.999 90.0636 467.367 89.7756 463.799C87.9836 415.528 90.3836 360.743 104.304 314.695Z" fill="white"/>
</g>
<g opacity="0.2">
<path opacity="0.2" d="M89.4236 312.232C101.68 272.632 121.248 229.16 145.296 192.952C146.512 193.752 147.776 194.504 149.104 195.208C124.848 230.488 104.656 273.32 91.6956 313C71.2636 368.232 69.3756 423.304 68.3516 465.496C68.7996 414.584 70.7996 366.376 89.4236 312.232Z" fill="white"/>
</g>
<path d="M451.073 213.032C458.497 220.392 458.561 232.376 451.201 239.816C443.841 247.24 431.857 247.304 424.417 239.944C416.977 232.584 410.305 199.336 410.305 199.336C410.305 199.336 443.633 205.672 451.073 213.032Z" fill="#45CBEA"/>
<g opacity="0.2">
<path opacity="0.2" d="M450.762 224.917C450.154 221.704 448.015 219.411 445.983 219.795C443.951 220.18 442.796 223.095 443.404 226.308C444.011 229.521 446.151 231.814 448.183 231.429C450.215 231.045 451.369 228.129 450.762 224.917Z" fill="white"/>
</g>
<path d="M482.078 285.32C485.326 295.256 479.902 305.96 469.966 309.208C460.03 312.456 449.326 307.032 446.078 297.096C442.83 287.16 452.078 254.52 452.078 254.52C452.078 254.52 478.814 275.384 482.078 285.32Z" fill="#45CBEA"/>
<g opacity="0.2">
<path opacity="0.2" d="M474.477 288.941C472.494 288.356 470.136 290.423 469.21 293.559C468.284 296.695 469.141 299.712 471.124 300.297C473.107 300.883 475.465 298.815 476.391 295.68C477.317 292.544 476.46 289.527 474.477 288.941Z" fill="white"/>
</g>
<path d="M68.8809 213.289C62.2729 221.401 63.5049 233.321 71.6169 239.929C79.7289 246.537 91.6489 245.305 98.2569 237.193C104.865 229.081 107.937 195.305 107.937 195.305C107.937 195.305 75.4889 205.177 68.8809 213.289Z" fill="#45CBEA"/>
<g opacity="0.2">
<path opacity="0.2" d="M74.5737 219.465C72.5214 219.301 70.6459 221.81 70.3846 225.069C70.1234 228.328 71.5754 231.103 73.6277 231.268C75.68 231.432 77.5555 228.923 77.8168 225.664C78.078 222.405 76.626 219.63 74.5737 219.465Z" fill="white"/>
</g>
<path d="M25.6153 311.496C24.4153 321.88 31.8553 331.288 42.2553 332.488C52.6393 333.688 62.0473 326.248 63.2473 315.848C64.4473 305.464 48.8793 275.336 48.8793 275.336C48.8793 275.336 26.8153 301.096 25.6153 311.496Z" fill="#45CBEA"/>
<g opacity="0.2">
<path opacity="0.2" d="M39.9066 317.068C38.3729 314.181 35.6491 312.626 33.8229 313.596C31.9966 314.566 31.7595 317.693 33.2932 320.581C34.827 323.469 37.5508 325.023 39.377 324.053C41.2032 323.083 41.4404 319.956 39.9066 317.068Z" fill="white"/>
</g>
<path d="M106.174 233.488C103.166 228.432 104.814 221.872 109.886 218.864C133.31 204.944 158.814 194.96 185.982 189.088C171.822 179.008 156.51 170.224 140.206 162.848C134.846 160.432 132.446 154.112 134.878 148.736C137.31 143.36 143.614 140.992 148.99 143.408C174.574 154.992 197.966 169.808 218.51 187.472C221.71 190.224 222.974 194.608 221.758 198.656C220.542 202.704 217.054 205.632 212.846 206.16C179.934 210.224 148.11 220.944 120.766 237.2C115.678 240.24 109.134 238.496 106.174 233.488Z" fill="#3E4347"/>
<path d="M391.134 237.2C363.422 220.72 332.43 210.272 299.07 206.16C294.878 205.632 291.39 202.704 290.158 198.656C288.926 194.608 290.206 190.24 293.406 187.472C313.95 169.808 337.342 154.976 362.91 143.408C368.302 140.992 374.59 143.36 377.022 148.736C379.454 154.096 377.07 160.416 371.694 162.848C355.406 170.224 340.078 179.008 325.918 189.088C353.086 194.96 378.59 204.944 401.998 218.864C407.07 221.872 408.734 228.416 405.71 233.488C402.782 238.496 396.254 240.24 391.134 237.2Z" fill="#3E4347"/>
<path d="M407.858 299.45C398.562 361.914 340.13 416.266 260.546 416.106C180.834 416.266 122.402 361.898 113.122 299.45C112.018 292.506 118.594 286.074 125.538 287.114C214.642 300.41 306.354 300.41 395.458 287.114C402.386 286.058 408.962 292.506 407.858 299.45Z" fill="#3E4347"/>
<path d="M260.543 393.338C201.535 393.498 152.511 357.642 136.895 309.13C218.655 320.01 302.319 320.01 384.079 309.13C368.479 357.642 319.487 393.482 260.543 393.338Z" fill="white"/>
<path d="M335.408 379.338L326.336 304.026L328.256 303.818C330.288 303.706 332.416 303.498 334.544 303.29L336.256 303.178L346.064 378.378L344.256 378.49C341.808 378.698 339.456 378.922 337.104 379.13L335.408 379.338Z" fill="#3E4347"/>
<path d="M229.488 396.938H227.68L231.952 306.17L241.872 306.378L238.56 397.258L236.752 397.146C234.288 397.146 231.952 397.034 229.488 396.938Z" fill="#3E4347"/>
<path d="M174.672 380.938L184.8 303.178L186.608 303.29C188.64 303.498 190.768 303.722 192.8 303.818L194.72 304.026L185.328 381.898L183.616 381.786C181.264 381.578 178.928 381.354 176.464 381.146L174.672 380.938Z" fill="#3E4347"/>
<path d="M282.511 397.258L279.199 306.378L289.119 306.17L293.487 396.938H291.567C289.119 397.05 286.767 397.146 284.319 397.146L282.511 397.258Z" fill="#3E4347"/>
<path d="M147.359 352.666L149.279 342.218L150.991 342.33C224.383 351.29 298.719 351.178 372.111 342.122L373.823 341.914L375.743 352.362L373.823 352.682C299.375 361.85 223.855 361.962 149.391 352.89L147.359 352.666Z" fill="#3E4347"/>
</g>
<defs>
<clipPath id="clip0">
<rect width="511.994" height="511.994" fill="white"/>
</clipPath>
</defs>
</svg>
