<svg width="512" height="512" viewBox="0 0 512 512" fill="none" xmlns="http://www.w3.org/2000/svg">
<path d="M256 480.64C388.725 480.64 496.32 373.045 496.32 240.32C496.32 107.595 388.725 0 256 0C123.275 0 15.6797 107.595 15.6797 240.32C15.6797 373.045 123.275 480.64 256 480.64Z" fill="#FFD93B"/>
<path d="M496.224 240.24C496.224 372.976 388.64 480.48 256 480.48C180.48 480.48 113.056 445.648 68.9922 391.072C110.208 424.4 162.688 444.304 219.808 444.304C352.464 444.304 460.032 336.8 460.032 204.064C460.032 146.928 440.144 94.464 406.8 53.248C461.328 97.296 496.224 164.704 496.224 240.24Z" fill="#F4C534"/>
<path d="M171.247 241.888C190.794 241.888 206.639 226.042 206.639 206.496C206.639 186.949 190.794 171.104 171.247 171.104C151.701 171.104 135.855 186.949 135.855 206.496C135.855 226.042 151.701 241.888 171.247 241.888Z" fill="#3E4347"/>
<path d="M191.309 190.623C188.778 187.131 184.406 185.982 181.544 188.057C178.682 190.131 178.414 194.643 180.945 198.135C183.476 201.627 187.847 202.775 190.709 200.701C193.571 198.626 193.84 194.114 191.309 190.623Z" fill="#5A5F63"/>
<path d="M340.751 241.888C360.298 241.888 376.143 226.042 376.143 206.496C376.143 186.949 360.298 171.104 340.751 171.104C321.205 171.104 305.359 186.949 305.359 206.496C305.359 226.042 321.205 241.888 340.751 241.888Z" fill="#3E4347"/>
<path d="M330.467 188.039C327.605 185.965 323.234 187.113 320.703 190.605C318.172 194.097 318.44 198.609 321.302 200.683C324.164 202.758 328.536 201.609 331.067 198.117C333.598 194.626 333.329 190.113 330.467 188.039Z" fill="#5A5F63"/>
<g opacity="0.2">
<path opacity="0.2" d="M307.017 365.314C302.423 361.693 296.797 361.17 294.45 364.147C292.103 367.124 293.924 372.473 298.518 376.095C303.112 379.716 308.739 380.239 311.085 377.262C313.432 374.285 311.611 368.936 307.017 365.314Z" fill="white"/>
</g>
</svg>
