<svg width="474" height="474" viewBox="0 0 474 474" fill="none" xmlns="http://www.w3.org/2000/svg">
<g clip-path="url(#clip0)">
<path d="M236.966 473.932C367.839 473.932 473.932 367.839 473.932 236.966C473.932 106.093 367.839 0 236.966 0C106.093 0 0 106.093 0 236.966C0 367.839 106.093 473.932 236.966 473.932Z" fill="#FFC10E"/>
<path d="M392.514 377.719C392.514 291.808 322.869 222.159 236.954 222.159C151.039 222.159 81.3936 291.808 81.3936 377.719H392.514Z" fill="white"/>
<path d="M392.515 377.719C392.515 291.808 322.87 222.159 236.955 222.159C151.04 222.159 81.3945 291.808 81.3945 377.719H392.515Z" fill="white"/>
<path d="M306.177 377.719C306.177 331.284 306.177 284.849 306.177 238.413C300.157 235.412 293.908 232.804 287.468 230.593C287.468 279.636 287.468 328.68 287.468 377.719H306.177Z" fill="#CCCBCB"/>
<path d="M190.59 377.719C190.59 328.212 190.59 278.701 190.59 229.19C184.158 231.196 177.924 233.643 171.881 236.434C171.881 283.532 171.881 330.625 171.881 377.723H190.59V377.719Z" fill="#CCCBCB"/>
<path d="M306.177 377.719C306.177 331.284 306.177 284.849 306.177 238.413C300.157 235.412 293.908 232.804 287.468 230.593C287.468 279.636 287.468 328.68 287.468 377.719H306.177Z" fill="#CCCBCB"/>
<path d="M190.59 377.719C190.59 328.212 190.59 278.701 190.59 229.19C184.158 231.196 177.924 233.643 171.881 236.434C171.881 283.532 171.881 330.625 171.881 377.723H190.59V377.719Z" fill="#CCCBCB"/>
<path d="M154.216 154.378C174.77 154.378 191.432 137.716 191.432 117.162C191.432 96.6082 174.77 79.946 154.216 79.946C133.662 79.946 117 96.6082 117 117.162C117 137.716 133.662 154.378 154.216 154.378Z" fill="#333333"/>
<path d="M294.943 179.324C329.274 179.324 357.105 151.493 357.105 117.162C357.105 82.8309 329.274 55 294.943 55C260.612 55 232.781 82.8309 232.781 117.162C232.781 151.493 260.612 179.324 294.943 179.324Z" fill="#333333"/>
</g>
<defs>
<clipPath id="clip0">
<rect width="473.931" height="473.931" fill="white"/>
</clipPath>
</defs>
</svg>
