<svg width="474" height="474" viewBox="0 0 474 474" fill="none" xmlns="http://www.w3.org/2000/svg">
<g clip-path="url(#clip0)">
<path d="M236.966 473.932C367.839 473.932 473.932 367.839 473.932 236.966C473.932 106.093 367.839 0 236.966 0C106.093 0 0 106.093 0 236.966C0 367.839 106.093 473.932 236.966 473.932Z" fill="#FFC10E"/>
<path d="M361.076 343.534C368.23 346.314 371.77 354.37 368.986 361.524L358.913 387.428C356.133 394.582 348.077 398.126 340.923 395.342L112.825 306.61C105.671 303.83 102.127 295.774 104.911 288.616L114.988 262.716C117.768 255.562 125.824 252.022 132.978 254.802L361.076 343.534Z" fill="#EFEFEF"/>
<path d="M337.772 246.353C344.799 243.262 352.997 246.45 356.092 253.477L367.28 278.921C370.371 285.944 367.186 294.146 360.159 297.237L136.129 395.787C129.102 398.878 120.9 395.686 117.809 388.659L106.617 363.219C103.526 356.196 106.718 347.994 113.741 344.899L337.772 246.353Z" fill="white"/>
<path d="M181.145 84C167.012 84 153.883 90.892 145.991 102.432L144.363 104.501L143.274 103.113C135.472 91.151 122.32 84.004 108.042 84.004C83.679 84.004 66 101.688 66 126.043C66 162.005 131.107 215.011 135.855 218.827C138.096 220.971 141.03 222.15 144.143 222.15C147.256 222.15 150.19 220.975 152.431 218.824C157.194 214.977 223.184 161.141 223.184 126.043C223.184 101.684 205.504 84 181.145 84Z" fill="#ED3533"/>
<path d="M365.711 84C351.578 84 338.449 90.892 330.557 102.432L328.929 104.501L327.84 103.113C320.038 91.151 306.886 84.004 292.608 84.004C268.245 84.004 250.566 101.688 250.566 126.043C250.566 162.005 315.673 215.011 320.421 218.827C322.662 220.971 325.596 222.15 328.709 222.15C331.818 222.15 334.752 220.975 336.997 218.824C341.757 214.981 407.746 161.141 407.746 126.043C407.75 101.684 390.07 84 365.711 84Z" fill="#ED3533"/>
</g>
<defs>
<clipPath id="clip0">
<rect width="473.931" height="473.931" fill="white"/>
</clipPath>
</defs>
</svg>
