<svg width="474" height="474" viewBox="0 0 474 474" fill="none" xmlns="http://www.w3.org/2000/svg">
<g clip-path="url(#clip0)">
<path d="M236.966 473.932C367.839 473.932 473.932 367.839 473.932 236.966C473.932 106.093 367.839 0 236.966 0C106.093 0 0 106.093 0 236.966C0 367.839 106.093 473.932 236.966 473.932Z" fill="#FFC10E"/>
<path d="M392.514 377.719C392.514 291.808 322.869 222.159 236.954 222.159C151.039 222.159 81.3936 291.808 81.3936 377.719H392.514Z" fill="white"/>
<path d="M392.515 377.719C392.515 291.808 322.87 222.159 236.955 222.159C151.04 222.159 81.3945 291.808 81.3945 377.719H392.515Z" fill="white"/>
<path d="M306.177 377.719C306.177 331.284 306.177 284.849 306.177 238.413C300.157 235.412 293.908 232.804 287.468 230.593C287.468 279.636 287.468 328.68 287.468 377.719H306.177Z" fill="#CCCBCB"/>
<path d="M190.59 377.719C190.59 328.212 190.59 278.701 190.59 229.19C184.158 231.196 177.924 233.643 171.881 236.434C171.881 283.532 171.881 330.625 171.881 377.723H190.59V377.719Z" fill="#CCCBCB"/>
<path d="M306.177 377.719C306.177 331.284 306.177 284.849 306.177 238.413C300.157 235.412 293.908 232.804 287.468 230.593C287.468 279.636 287.468 328.68 287.468 377.719H306.177Z" fill="#CCCBCB"/>
<path d="M190.59 377.719C190.59 328.212 190.59 278.701 190.59 229.19C184.158 231.196 177.924 233.643 171.881 236.434C171.881 283.532 171.881 330.625 171.881 377.723H190.59V377.719Z" fill="#CCCBCB"/>
<path d="M181.145 84C167.012 84 153.883 90.892 145.991 102.432L144.363 104.501L143.274 103.113C135.472 91.151 122.32 84.004 108.042 84.004C83.679 84.004 66 101.688 66 126.043C66 162.005 131.107 215.011 135.855 218.827C138.096 220.971 141.03 222.15 144.143 222.15C147.256 222.15 150.19 220.975 152.431 218.824C157.194 214.977 223.184 161.141 223.184 126.043C223.184 101.684 205.504 84 181.145 84Z" fill="#ED3533"/>
<path d="M365.711 84C351.578 84 338.449 90.892 330.557 102.432L328.929 104.501L327.84 103.113C320.038 91.151 306.886 84.004 292.608 84.004C268.245 84.004 250.566 101.688 250.566 126.043C250.566 162.005 315.673 215.011 320.421 218.827C322.662 220.971 325.596 222.15 328.709 222.15C331.818 222.15 334.752 220.975 336.997 218.824C341.757 214.981 407.746 161.141 407.746 126.043C407.75 101.684 390.07 84 365.711 84Z" fill="#ED3533"/>
</g>
<defs>
<clipPath id="clip0">
<rect width="473.931" height="473.931" fill="white"/>
</clipPath>
</defs>
</svg>
