<svg width="474" height="474" viewBox="0 0 474 474" fill="none" xmlns="http://www.w3.org/2000/svg">
<g clip-path="url(#clip0)">
<path d="M236.966 473.932C367.839 473.932 473.932 367.839 473.932 236.966C473.932 106.093 367.839 0 236.966 0C106.093 0 0 106.093 0 236.966C0 367.839 106.093 473.932 236.966 473.932Z" fill="#FFC10E"/>
<path d="M131.841 281.987H341.376C341.376 281.987 310.57 400.088 235.843 400.088C161.116 400.088 131.841 281.987 131.841 281.987Z" fill="#D22327"/>
<path d="M259.203 298.675C259.203 307.756 245.852 315.109 236.607 315.109C227.365 315.109 214.011 307.756 214.011 298.675C214.011 289.597 227.365 282.237 236.607 282.237C245.849 282.241 259.203 289.597 259.203 298.675Z" fill="#9B1C1F"/>
<path d="M334.296 270.926C307.374 256.752 280.572 196.693 236.898 240.154H236.52C192.85 196.693 166.044 256.752 139.122 270.926C132.144 274.6 131.979 281.942 131.979 281.942C131.979 281.942 162.138 306.57 188.33 306.57C214.522 306.57 218.803 292.071 236.602 292.071H236.812C254.615 292.071 258.896 306.57 285.088 306.57C311.28 306.57 341.439 281.942 341.439 281.942C341.439 281.942 341.275 274.604 334.296 270.926Z" fill="#E22928"/>
<path d="M181.145 87C167.012 87 153.883 93.892 145.991 105.432L144.363 107.501L143.274 106.113C135.472 94.151 122.32 87.004 108.042 87.004C83.679 87.004 66 104.688 66 129.043C66 165.005 131.107 218.011 135.855 221.827C138.096 223.971 141.03 225.15 144.143 225.15C147.256 225.15 150.19 223.975 152.431 221.824C157.194 217.977 223.184 164.141 223.184 129.043C223.184 104.684 205.504 87 181.145 87Z" fill="#ED3533"/>
<path d="M365.711 87C351.578 87 338.449 93.892 330.557 105.432L328.929 107.501L327.84 106.113C320.038 94.151 306.886 87.004 292.608 87.004C268.245 87.004 250.566 104.688 250.566 129.043C250.566 165.005 315.673 218.011 320.421 221.827C322.662 223.971 325.596 225.15 328.709 225.15C331.818 225.15 334.752 223.975 336.997 221.824C341.757 217.981 407.746 164.141 407.746 129.043C407.75 104.684 390.07 87 365.711 87Z" fill="#ED3533"/>
</g>
<defs>
<clipPath id="clip0">
<rect width="473.931" height="473.931" fill="white"/>
</clipPath>
</defs>
</svg>
