<svg width="474" height="474" viewBox="0 0 474 474" fill="none" xmlns="http://www.w3.org/2000/svg">
<g clip-path="url(#clip0)">
<path d="M236.966 473.932C367.839 473.932 473.932 367.839 473.932 236.966C473.932 106.093 367.839 0 236.966 0C106.093 0 0 106.093 0 236.966C0 367.839 106.093 473.932 236.966 473.932Z" fill="#FFC10E"/>
<path d="M181.145 87C167.012 87 153.883 93.892 145.991 105.432L144.363 107.501L143.274 106.113C135.472 94.151 122.32 87.004 108.042 87.004C83.679 87.004 66 104.688 66 129.043C66 165.005 131.107 218.011 135.855 221.827C138.096 223.971 141.03 225.15 144.143 225.15C147.256 225.15 150.19 223.975 152.431 221.824C157.194 217.977 223.184 164.141 223.184 129.043C223.184 104.684 205.504 87 181.145 87Z" fill="#ED3533"/>
<path d="M365.711 87C351.578 87 338.449 93.892 330.557 105.432L328.929 107.501L327.84 106.113C320.038 94.151 306.886 87.004 292.608 87.004C268.245 87.004 250.566 104.688 250.566 129.043C250.566 165.005 315.673 218.011 320.421 221.827C322.662 223.971 325.596 225.15 328.709 225.15C331.818 225.15 334.752 223.975 336.997 221.824C341.757 217.981 407.746 164.141 407.746 129.043C407.75 104.684 390.07 87 365.711 87Z" fill="#ED3533"/>
<path d="M236.929 447.062C295.432 447.062 342.858 400.038 342.858 342.031C342.858 284.024 295.432 237 236.929 237C178.426 237 131 284.024 131 342.031C131 400.038 178.426 447.062 236.929 447.062Z" fill="#333333"/>
</g>
<defs>
<clipPath id="clip0">
<rect width="473.931" height="473.931" fill="white"/>
</clipPath>
</defs>
</svg>
