<svg width="474" height="474" viewBox="0 0 474 474" fill="none" xmlns="http://www.w3.org/2000/svg">
<g clip-path="url(#clip0)">
<path d="M236.967 473.934C367.84 473.934 473.934 367.84 473.934 236.967C473.934 106.094 367.84 0 236.967 0C106.094 0 0 106.094 0 236.967C0 367.84 106.094 473.934 236.967 473.934Z" fill="#FFC10E"/>
<path d="M220.635 317.36C220.635 352.791 249.361 381.517 284.792 381.517C320.227 381.517 348.952 352.788 348.952 317.36H220.635Z" fill="#CA2027"/>
<path d="M105.283 326.583C191.67 326.583 278.056 326.583 364.447 326.583C376.511 326.583 376.511 307.874 364.447 307.874C278.06 307.874 191.674 307.874 105.283 307.874C93.2194 307.874 93.2194 326.583 105.283 326.583Z" fill="#333333"/>
<path d="M179.145 99C165.012 99 151.883 105.892 143.991 117.432L142.363 119.501L141.274 118.113C133.472 106.151 120.32 99.004 106.042 99.004C81.679 99.004 64 116.688 64 141.043C64 177.005 129.107 230.011 133.855 233.827C136.096 235.971 139.03 237.15 142.143 237.15C145.256 237.15 148.19 235.975 150.431 233.824C155.194 229.977 221.184 176.141 221.184 141.043C221.184 116.684 203.504 99 179.145 99Z" fill="#ED3533"/>
<path d="M363.711 99C349.578 99 336.449 105.892 328.557 117.432L326.929 119.501L325.84 118.113C318.038 106.151 304.886 99.004 290.608 99.004C266.245 99.004 248.566 116.688 248.566 141.043C248.566 177.005 313.673 230.011 318.421 233.827C320.662 235.971 323.596 237.15 326.709 237.15C329.818 237.15 332.752 235.975 334.997 233.824C339.757 229.981 405.746 176.141 405.746 141.043C405.75 116.684 388.07 99 363.711 99Z" fill="#ED3533"/>
</g>
<defs>
<clipPath id="clip0">
<rect width="473.935" height="473.935" fill="white"/>
</clipPath>
</defs>
</svg>
