<svg width="474" height="474" viewBox="0 0 474 474" fill="none" xmlns="http://www.w3.org/2000/svg">
<g clip-path="url(#clip0)">
<path d="M236.967 473.934C367.84 473.934 473.934 367.84 473.934 236.967C473.934 106.094 367.84 0 236.967 0C106.094 0 0 106.094 0 236.967C0 367.84 106.094 473.934 236.967 473.934Z" fill="#FFC10E"/>
<path d="M164.938 192.448C185.492 192.448 202.154 175.786 202.154 155.232C202.154 134.678 185.492 118.016 164.938 118.016C144.384 118.016 127.722 134.678 127.722 155.232C127.722 175.786 144.384 192.448 164.938 192.448Z" fill="#333333"/>
<path d="M305.666 192.448C326.22 192.448 342.882 175.786 342.882 155.232C342.882 134.678 326.22 118.016 305.666 118.016C285.112 118.016 268.45 134.678 268.45 155.232C268.45 175.786 285.112 192.448 305.666 192.448Z" fill="#333333"/>
<path d="M80.8446 307.571C105.579 307.571 125.63 287.52 125.63 262.786C125.63 238.052 105.579 218.001 80.8446 218.001C56.1105 218.001 36.0596 238.052 36.0596 262.786C36.0596 287.52 56.1105 307.571 80.8446 307.571Z" fill="#F0AE1D"/>
<path d="M389.745 307.571C414.479 307.571 434.53 287.52 434.53 262.786C434.53 238.052 414.479 218.001 389.745 218.001C365.011 218.001 344.96 238.052 344.96 262.786C344.96 287.52 365.011 307.571 389.745 307.571Z" fill="#F0AE1D"/>
<path d="M180.522 351.527C216.353 362.853 252.181 374.187 288.012 385.517C299.552 389.165 304.45 371.096 292.989 367.474C257.158 356.148 221.33 344.814 185.499 333.484C173.959 329.836 169.064 347.901 180.522 351.527Z" fill="#333333"/>
</g>
<defs>
<clipPath id="clip0">
<rect width="473.935" height="473.935" fill="white"/>
</clipPath>
</defs>
</svg>
