<svg width="474" height="474" viewBox="0 0 474 474" fill="none" xmlns="http://www.w3.org/2000/svg">
<g clip-path="url(#clip0)">
<path d="M236.966 473.932C367.839 473.932 473.932 367.839 473.932 236.966C473.932 106.093 367.839 0 236.966 0C106.093 0 0 106.093 0 236.966C0 367.839 106.093 473.932 236.966 473.932Z" fill="#FFC10E"/>
<path d="M131.841 281.987H341.376C341.376 281.987 310.57 400.088 235.843 400.088C161.116 400.088 131.841 281.987 131.841 281.987Z" fill="#D22327"/>
<path d="M259.203 298.675C259.203 307.756 245.852 315.109 236.607 315.109C227.365 315.109 214.011 307.756 214.011 298.675C214.011 289.597 227.365 282.237 236.607 282.237C245.849 282.241 259.203 289.597 259.203 298.675Z" fill="#9B1C1F"/>
<path d="M334.296 270.926C307.374 256.752 280.572 196.693 236.898 240.154H236.52C192.85 196.693 166.044 256.752 139.122 270.926C132.144 274.6 131.979 281.942 131.979 281.942C131.979 281.942 162.138 306.57 188.33 306.57C214.522 306.57 218.803 292.071 236.602 292.071H236.812C254.615 292.071 258.896 306.57 285.088 306.57C311.28 306.57 341.439 281.942 341.439 281.942C341.439 281.942 341.275 274.604 334.296 270.926Z" fill="#E22928"/>
<path d="M370.741 242.279C357.536 242.279 345.005 234.462 339.628 221.508C328.515 194.743 314.7 171.754 299.677 155.024C287.251 141.187 288.392 119.893 302.229 107.466C316.066 95.04 337.357 96.177 349.783 110.022C370.119 132.667 387.631 161.486 401.827 195.682C408.959 212.86 400.817 232.565 383.638 239.696C379.418 241.448 375.044 242.279 370.741 242.279Z" fill="#75CDDE"/>
<path d="M117.674 242.279C113.371 242.279 108.997 241.448 104.772 239.697C87.5938 232.569 79.4517 212.861 86.5827 195.683C100.779 161.487 118.291 132.668 138.627 110.023C151.053 96.19 172.344 95.041 186.181 107.467C200.018 119.893 201.159 141.188 188.733 155.025C173.71 171.754 159.895 194.74 148.782 221.509C143.41 234.462 130.875 242.279 117.674 242.279Z" fill="#75CDDE"/>
<path d="M163.216 150.432C183.77 150.432 200.432 133.77 200.432 113.216C200.432 92.6622 183.77 76 163.216 76C142.662 76 126 92.6622 126 113.216C126 133.77 142.662 150.432 163.216 150.432Z" fill="#333333"/>
<path d="M303.945 150.432C324.498 150.432 341.161 133.77 341.161 113.216C341.161 92.6622 324.498 76 303.945 76C283.391 76 266.729 92.6622 266.729 113.216C266.729 133.77 283.391 150.432 303.945 150.432Z" fill="#333333"/>
</g>
<defs>
<clipPath id="clip0">
<rect width="473.931" height="473.931" fill="white"/>
</clipPath>
</defs>
</svg>
