<svg width="474" height="474" viewBox="0 0 474 474" fill="none" xmlns="http://www.w3.org/2000/svg">
<g clip-path="url(#clip0)">
<path d="M236.966 473.932C367.839 473.932 473.932 367.839 473.932 236.966C473.932 106.093 367.839 0 236.966 0C106.093 0 0 106.093 0 236.966C0 367.839 106.093 473.932 236.966 473.932Z" fill="#FFC10E"/>
<path d="M344.517 174C344.517 174 317 207.874 317 242.819C317 258.022 329.31 270.34 344.513 270.344C359.731 270.337 372.045 258.019 372.045 242.816C372.045 225.895 344.517 174 344.517 174Z" fill="#A2D4DE"/>
<path d="M213.393 155.231C210.733 217.722 119.168 217.722 116.508 155.231C115.348 128.002 139.43 107.875 164.941 106.79C192.177 105.63 212.307 129.712 213.393 155.231C213.906 167.25 232.614 167.298 232.102 155.231C230.497 117.533 202.639 89.683 164.945 88.081C127.295 86.48 99.3033 119.95 97.8033 155.231C96.2023 192.873 129.664 220.88 164.945 222.381C202.598 223.982 230.602 190.516 232.102 155.231C232.614 143.163 213.905 143.212 213.393 155.231Z" fill="#333333"/>
<path d="M353.709 155.231C351.049 217.722 259.484 217.722 256.824 155.231C255.664 128.002 279.746 107.875 305.257 106.79C332.493 105.63 352.623 129.712 353.709 155.231C354.222 167.25 372.93 167.298 372.418 155.231C370.813 117.533 342.955 89.683 305.261 88.081C267.611 86.48 239.619 119.95 238.119 155.231C236.518 192.873 269.98 220.88 305.261 222.381C342.914 223.982 370.918 190.516 372.418 155.231C372.93 143.163 354.221 143.212 353.709 155.231Z" fill="#333333"/>
<path d="M343.25 316.86C283.969 377.196 188.592 376.709 129.801 315.962C121.401 307.277 108.185 320.523 116.574 329.189C182.343 397.154 290.214 397.532 356.477 330.087C364.938 321.477 351.718 308.242 343.25 316.86Z" fill="#333333"/>
<path d="M104.668 146.209C78.5469 151.197 42.3489 156.181 12.4299 161.165C10.2339 167.676 8.3029 174.302 6.6709 181.052C38.2589 175.451 80.2939 169.849 109.648 164.248C121.487 161.988 116.455 143.96 104.668 146.209Z" fill="#333333"/>
<path d="M365.741 146.209C353.954 143.96 348.922 161.988 360.764 164.248C391.016 170.022 435.401 175.791 467.352 181.565C465.732 174.815 463.827 168.184 461.646 161.67C431.005 156.518 392.753 151.362 365.741 146.209Z" fill="#333333"/>
<path d="M258.17 126.337C270.237 126.337 270.237 107.628 258.17 107.628C208.281 107.628 261.287 107.628 211.398 107.628C199.331 107.628 199.331 126.337 211.398 126.337C211.398 126.337 208.281 126.337 258.17 126.337Z" fill="#333333"/>
<path d="M164.937 181.221C179.291 181.221 190.927 169.585 190.927 155.231C190.927 140.877 179.291 129.241 164.937 129.241C150.583 129.241 138.947 140.877 138.947 155.231C138.947 169.585 150.583 181.221 164.937 181.221Z" fill="#333333"/>
<path d="M305.664 179.35C318.984 179.35 329.783 168.551 329.783 155.231C329.783 141.91 318.984 131.112 305.664 131.112C292.343 131.112 281.545 141.91 281.545 155.231C281.545 168.551 292.343 179.35 305.664 179.35Z" fill="#333333"/>
</g>
<defs>
<clipPath id="clip0">
<rect width="473.931" height="473.931" fill="white"/>
</clipPath>
</defs>
</svg>
