<svg width="474" height="474" viewBox="0 0 474 474" fill="none" xmlns="http://www.w3.org/2000/svg">
<g clip-path="url(#clip0)">
<path d="M236.966 473.932C367.839 473.932 473.932 367.839 473.932 236.966C473.932 106.093 367.839 0 236.966 0C106.093 0 0 106.093 0 236.966C0 367.839 106.093 473.932 236.966 473.932Z" fill="#FFC10E"/>
<path d="M81 274C81 359.911 150.649 429.56 236.56 429.56C322.475 429.56 392.124 359.911 392.124 274H81Z" fill="white"/>
<path d="M163.744 176.378C184.298 176.378 200.96 159.716 200.96 139.162C200.96 118.608 184.298 101.946 163.744 101.946C143.19 101.946 126.528 118.608 126.528 139.162C126.528 159.716 143.19 176.378 163.744 176.378Z" fill="#333333"/>
<path d="M304.472 201.324C338.803 201.324 366.634 173.493 366.634 139.162C366.634 104.831 338.803 77 304.472 77C270.14 77 242.31 104.831 242.31 139.162C242.31 173.493 270.14 201.324 304.472 201.324Z" fill="#333333"/>
</g>
<defs>
<clipPath id="clip0">
<rect width="473.931" height="473.931" fill="white"/>
</clipPath>
</defs>
</svg>
