<svg width="474" height="474" viewBox="0 0 474 474" fill="none" xmlns="http://www.w3.org/2000/svg">
<g clip-path="url(#clip0)">
<path d="M236.966 473.932C367.839 473.932 473.932 367.839 473.932 236.966C473.932 106.093 367.839 0 236.966 0C106.093 0 0 106.093 0 236.966C0 367.839 106.093 473.932 236.966 473.932Z" fill="#FFC10E"/>
<path d="M364.741 254.435C351.536 254.435 339.005 246.618 333.628 233.664C322.515 206.899 308.7 183.91 293.677 167.18C281.251 153.343 282.392 132.049 296.229 119.622C310.066 107.196 331.357 108.333 343.783 122.178C364.119 144.823 381.631 173.642 395.827 207.838C402.959 225.016 394.817 244.721 377.638 251.852C373.418 253.604 369.044 254.435 364.741 254.435Z" fill="#75CDDE"/>
<path d="M111.674 254.435C107.371 254.435 102.997 253.604 98.7717 251.853C81.5938 244.725 73.4517 225.017 80.5827 207.839C94.7787 173.643 112.291 144.824 132.627 122.179C145.053 108.346 166.344 107.197 180.181 119.623C194.018 132.049 195.159 153.344 182.733 167.181C167.71 183.91 153.895 206.896 142.782 233.665C137.41 246.618 124.875 254.435 111.674 254.435Z" fill="#75CDDE"/>
<path d="M213.393 155.231C210.733 217.722 119.168 217.722 116.508 155.231C115.348 128.002 139.43 107.875 164.941 106.79C192.177 105.63 212.307 129.712 213.393 155.231C213.906 167.25 232.614 167.298 232.102 155.231C230.497 117.533 202.639 89.683 164.945 88.081C127.295 86.48 99.3033 119.95 97.8033 155.231C96.2023 192.873 129.664 220.88 164.945 222.381C202.598 223.982 230.602 190.516 232.102 155.231C232.614 143.163 213.905 143.212 213.393 155.231Z" fill="#333333"/>
<path d="M353.709 155.231C351.049 217.722 259.484 217.722 256.824 155.231C255.664 128.002 279.746 107.875 305.257 106.79C332.493 105.63 352.623 129.712 353.709 155.231C354.222 167.25 372.93 167.298 372.418 155.231C370.813 117.533 342.955 89.683 305.261 88.081C267.611 86.48 239.619 119.95 238.119 155.231C236.518 192.873 269.98 220.88 305.261 222.381C342.914 223.982 370.918 190.516 372.418 155.231C372.93 143.163 354.221 143.212 353.709 155.231Z" fill="#333333"/>
<path d="M104.668 146.209C78.5469 151.197 42.3489 156.181 12.4299 161.165C10.2339 167.676 8.3029 174.302 6.6709 181.052C38.2589 175.451 80.2939 169.849 109.648 164.248C121.487 161.988 116.455 143.96 104.668 146.209Z" fill="#333333"/>
<path d="M365.741 146.209C353.954 143.96 348.922 161.988 360.764 164.248C391.016 170.022 435.401 175.791 467.352 181.565C465.732 174.815 463.827 168.184 461.646 161.67C431.005 156.518 392.753 151.362 365.741 146.209Z" fill="#333333"/>
<path d="M258.17 126.337C270.237 126.337 270.237 107.628 258.17 107.628C208.281 107.628 261.287 107.628 211.398 107.628C199.331 107.628 199.331 126.337 211.398 126.337C211.398 126.337 208.281 126.337 258.17 126.337Z" fill="#333333"/>
<path d="M164.216 183.432C184.77 183.432 201.432 166.77 201.432 146.216C201.432 125.662 184.77 109 164.216 109C143.662 109 127 125.662 127 146.216C127 166.77 143.662 183.432 164.216 183.432Z" fill="#333333"/>
<path d="M304.943 183.432C325.496 183.432 342.159 166.77 342.159 146.216C342.159 125.662 325.496 109 304.943 109C284.389 109 267.727 125.662 267.727 146.216C267.727 166.77 284.389 183.432 304.943 183.432Z" fill="#333333"/>
</g>
<defs>
<clipPath id="clip0">
<rect width="473.931" height="473.931" fill="white"/>
</clipPath>
</defs>
</svg>
