<svg width="474" height="474" viewBox="0 0 474 474" fill="none" xmlns="http://www.w3.org/2000/svg">
<g clip-path="url(#clip0)">
<path d="M236.966 473.932C367.839 473.932 473.932 367.839 473.932 236.966C473.932 106.093 367.839 0 236.966 0C106.093 0 0 106.093 0 236.966C0 367.839 106.093 473.932 236.966 473.932Z" fill="#333333"/>
<path d="M418.516 161.109C418.516 161.109 322.473 90.0161 232.67 90.0161C142.867 90.0161 49.3242 161.109 49.3242 161.109C49.3242 161.109 244.524 290.2 418.516 161.109Z" fill="#FFC10E"/>
<path d="M164.937 192.443C185.491 192.443 202.153 175.781 202.153 155.227C202.153 134.673 185.491 118.011 164.937 118.011C144.383 118.011 127.721 134.673 127.721 155.227C127.721 175.781 144.383 192.443 164.937 192.443Z" fill="#333333"/>
<path d="M305.663 192.443C326.217 192.443 342.879 175.781 342.879 155.227C342.879 134.673 326.217 118.011 305.663 118.011C285.109 118.011 268.447 134.673 268.447 155.227C268.447 175.781 285.109 192.443 305.663 192.443Z" fill="#333333"/>
<path d="M213.722 157.205C211.062 219.696 119.497 219.696 116.837 157.205C115.677 129.976 139.759 109.849 165.27 108.764C192.506 107.604 212.636 131.686 213.722 157.205C214.235 169.224 232.943 169.272 232.431 157.205C230.826 119.507 202.968 91.6572 165.274 90.0552C127.624 88.4542 99.6324 121.924 98.1324 157.205C96.5314 194.847 129.993 222.854 165.274 224.355C202.927 225.956 230.931 192.49 232.431 157.205C232.943 145.137 214.234 145.186 213.722 157.205Z" fill="#333333"/>
<path d="M354.038 157.205C351.378 219.696 259.813 219.696 257.153 157.205C255.993 129.976 280.075 109.849 305.586 108.764C332.822 107.604 352.952 131.686 354.038 157.205C354.551 169.224 373.259 169.272 372.747 157.205C371.142 119.507 343.284 91.6572 305.59 90.0552C267.94 88.4542 239.948 121.924 238.448 157.205C236.847 194.847 270.309 222.854 305.59 224.355C343.243 225.956 371.247 192.49 372.747 157.205C373.259 145.137 354.55 145.186 354.038 157.205Z" fill="#333333"/>
<path d="M104.997 148.183C78.876 153.171 42.678 158.155 12.759 163.139C10.563 169.65 8.632 176.276 7 183.026C38.588 177.425 80.623 171.823 109.977 166.222C121.816 163.962 116.784 145.934 104.997 148.183Z" fill="#333333"/>
<path d="M366.072 148.183C354.285 145.934 349.253 163.962 361.095 166.222C391.347 171.996 435.732 177.765 467.683 183.539C466.063 176.789 464.158 170.158 461.977 163.644C431.336 158.492 393.084 153.336 366.072 148.183Z" fill="#333333"/>
<path d="M258.499 128.311C270.566 128.311 270.566 109.602 258.499 109.602C208.61 109.602 261.616 109.602 211.727 109.602C199.66 109.602 199.66 128.311 211.727 128.311C211.727 128.311 208.61 128.311 258.499 128.311Z" fill="#333333"/>
<path d="M392.127 268C392.127 353.915 322.474 423.56 236.56 423.56C150.649 423.56 81 353.915 81 268H392.127Z" fill="white"/>
</g>
<defs>
<clipPath id="clip0">
<rect width="473.931" height="473.931" fill="white"/>
</clipPath>
</defs>
</svg>
