<svg width="474" height="474" viewBox="0 0 474 474" fill="none" xmlns="http://www.w3.org/2000/svg">
<g clip-path="url(#clip0)">
<path d="M236.966 473.932C367.839 473.932 473.932 367.839 473.932 236.966C473.932 106.093 367.839 0 236.966 0C106.093 0 0 106.093 0 236.966C0 367.839 106.093 473.932 236.966 473.932Z" fill="#FFC10E"/>
<path d="M363.741 269.435C350.536 269.435 338.005 261.618 332.628 248.664C321.515 221.899 307.7 198.91 292.677 182.18C280.251 168.343 281.392 147.049 295.229 134.622C309.066 122.196 330.357 123.333 342.783 137.178C363.119 159.823 380.631 188.642 394.827 222.838C401.959 240.016 393.817 259.721 376.638 266.852C372.418 268.604 368.044 269.435 363.741 269.435Z" fill="#75CDDE"/>
<path d="M110.674 269.435C106.371 269.435 101.997 268.604 97.7717 266.853C80.5938 259.725 72.4517 240.017 79.5827 222.839C93.7787 188.643 111.291 159.824 131.627 137.179C144.053 123.346 165.344 122.197 179.181 134.623C193.018 147.049 194.159 168.344 181.733 182.181C166.71 198.91 152.895 221.896 141.782 248.665C136.41 261.618 123.875 269.435 110.674 269.435Z" fill="#75CDDE"/>
<path d="M181.145 87C167.012 87 153.883 93.892 145.991 105.432L144.363 107.501L143.274 106.113C135.472 94.151 122.32 87.004 108.042 87.004C83.679 87.004 66 104.688 66 129.043C66 165.005 131.107 218.011 135.855 221.827C138.096 223.971 141.03 225.15 144.143 225.15C147.256 225.15 150.19 223.975 152.431 221.824C157.194 217.977 223.184 164.141 223.184 129.043C223.184 104.684 205.504 87 181.145 87Z" fill="#ED3533"/>
<path d="M365.711 87C351.578 87 338.449 93.892 330.557 105.432L328.929 107.501L327.84 106.113C320.038 94.151 306.886 87.004 292.608 87.004C268.245 87.004 250.566 104.688 250.566 129.043C250.566 165.005 315.673 218.011 320.421 221.827C322.662 223.971 325.596 225.15 328.709 225.15C331.818 225.15 334.752 223.975 336.997 221.824C341.757 217.981 407.746 164.141 407.746 129.043C407.75 104.684 390.07 87 365.711 87Z" fill="#ED3533"/>
</g>
<defs>
<clipPath id="clip0">
<rect width="473.931" height="473.931" fill="white"/>
</clipPath>
</defs>
</svg>
