<svg width="474" height="474" viewBox="0 0 474 474" fill="none" xmlns="http://www.w3.org/2000/svg">
<g clip-path="url(#clip0)">
<path d="M236.966 473.932C367.839 473.932 473.932 367.839 473.932 236.966C473.932 106.093 367.839 0 236.966 0C106.093 0 0 106.093 0 236.966C0 367.839 106.093 473.932 236.966 473.932Z" fill="#FFC10E"/>
<path d="M164.937 192.447C185.491 192.447 202.153 175.785 202.153 155.231C202.153 134.677 185.491 118.015 164.937 118.015C144.383 118.015 127.721 134.677 127.721 155.231C127.721 175.785 144.383 192.447 164.937 192.447Z" fill="#333333"/>
<path d="M305.664 217.393C339.995 217.393 367.826 189.562 367.826 155.231C367.826 120.9 339.995 93.0688 305.664 93.0688C271.333 93.0688 243.502 120.9 243.502 155.231C243.502 189.562 271.333 217.393 305.664 217.393Z" fill="#333333"/>
<path d="M88.0016 246.045C89.0416 308.94 123.642 365.22 179.784 393.871C240.954 425.089 315.239 411.637 365.469 366.567C374.468 358.496 361.192 345.306 352.242 353.34C306.042 394.795 240.161 403.712 184.843 375.48C136.458 350.788 107.594 299.56 106.711 246.045C106.513 233.996 87.8036 233.974 88.0016 246.045Z" fill="#333333"/>
</g>
<defs>
<clipPath id="clip0">
<rect width="473.931" height="473.931" fill="white"/>
</clipPath>
</defs>
</svg>
