<svg width="474" height="474" viewBox="0 0 474 474" fill="none" xmlns="http://www.w3.org/2000/svg">
<g clip-path="url(#clip0)">
<path d="M236.966 473.932C367.839 473.932 473.932 367.839 473.932 236.966C473.932 106.093 367.839 0 236.966 0C106.093 0 0 106.093 0 236.966C0 367.839 106.093 473.932 236.966 473.932Z" fill="#FFC10E"/>
<path d="M343.254 316.86C283.973 377.185 188.592 376.713 129.805 315.962C121.405 307.281 108.189 320.523 116.578 329.189C182.347 397.158 290.222 397.521 356.481 330.087C364.941 321.481 351.718 308.246 343.254 316.86Z" fill="#333333"/>
<path d="M82.785 281.57C107.519 281.57 127.57 261.519 127.57 236.785C127.57 212.051 107.519 192 82.785 192C58.0509 192 38 212.051 38 236.785C38 261.519 58.0509 281.57 82.785 281.57Z" fill="#F0AE1D"/>
<path d="M391.685 281.57C416.419 281.57 436.47 261.519 436.47 236.785C436.47 212.051 416.419 192 391.685 192C366.951 192 346.9 212.051 346.9 236.785C346.9 261.519 366.951 281.57 391.685 281.57Z" fill="#F0AE1D"/>
<path d="M371.092 145.834C354.291 110.25 313.761 93.9662 277.035 108.244C265.918 112.569 270.749 130.665 282.008 126.287C311.53 114.807 341.379 126.564 354.935 155.274C360.084 166.182 376.211 156.681 371.092 145.834Z" fill="#333333"/>
<path d="M119.148 155.188C132.704 126.477 162.552 114.717 192.075 126.201C203.334 130.579 208.165 112.484 197.048 108.158C160.323 93.8762 119.796 110.164 102.991 145.748C97.8725 156.592 114 166.092 119.148 155.188Z" fill="#333333"/>
</g>
<defs>
<clipPath id="clip0">
<rect width="473.931" height="473.931" fill="white"/>
</clipPath>
</defs>
</svg>
