<svg width="474" height="474" viewBox="0 0 474 474" fill="none" xmlns="http://www.w3.org/2000/svg">
<g clip-path="url(#clip0)">
<path d="M236.966 473.932C367.839 473.932 473.932 367.839 473.932 236.966C473.932 106.093 367.839 0 236.966 0C106.093 0 0 106.093 0 236.966C0 367.839 106.093 473.932 236.966 473.932Z" fill="#FFC10E"/>
<path d="M229.136 320.64C194.622 378.678 105.8 360.172 99.7525 291.746C98.7015 279.825 79.9815 279.724 81.0435 291.746C84.6355 332.374 111.652 364.815 151.909 373.59C189.203 381.717 226.363 361.908 245.285 330.085C251.467 319.686 235.291 310.283 229.136 320.64Z" fill="#333333"/>
<path d="M392.762 370.679C394.955 327.634 368.239 290.807 326.885 278.995C288.457 268.017 248.368 288.357 228.69 321.449C222.509 331.844 238.684 341.25 244.839 330.889C282.548 267.474 377.791 297.232 374.053 370.679C373.44 382.742 392.152 382.683 392.762 370.679Z" fill="#333333"/>
<path d="M181.145 99C167.012 99 153.883 105.892 145.991 117.432L144.363 119.501L143.274 118.113C135.472 106.151 122.32 99.004 108.042 99.004C83.679 99.004 66 116.688 66 141.043C66 177.005 131.107 230.011 135.855 233.827C138.096 235.971 141.03 237.15 144.143 237.15C147.256 237.15 150.19 235.975 152.431 233.824C157.194 229.977 223.184 176.141 223.184 141.043C223.184 116.684 205.504 99 181.145 99Z" fill="#ED3533"/>
<path d="M365.711 99C351.578 99 338.449 105.892 330.557 117.432L328.929 119.501L327.84 118.113C320.038 106.151 306.886 99.004 292.608 99.004C268.245 99.004 250.566 116.688 250.566 141.043C250.566 177.005 315.673 230.011 320.421 233.827C322.662 235.971 325.596 237.15 328.709 237.15C331.818 237.15 334.752 235.975 336.997 233.824C341.757 229.981 407.746 176.141 407.746 141.043C407.75 116.684 390.07 99 365.711 99Z" fill="#ED3533"/>
</g>
<defs>
<clipPath id="clip0">
<rect width="473.931" height="473.931" fill="white"/>
</clipPath>
</defs>
</svg>
