<svg width="474" height="474" viewBox="0 0 474 474" fill="none" xmlns="http://www.w3.org/2000/svg">
<g clip-path="url(#clip0)">
<path d="M236.966 473.932C367.839 473.932 473.932 367.839 473.932 236.966C473.932 106.093 367.839 0 236.966 0C106.093 0 0 106.093 0 236.966C0 367.839 106.093 473.932 236.966 473.932Z" fill="#FFC10E"/>
<path d="M175.26 151.987C198.266 151.987 216.917 133.337 216.917 110.33C216.917 87.3235 198.266 68.673 175.26 68.673C152.253 68.673 133.603 87.3235 133.603 110.33C133.603 133.337 152.253 151.987 175.26 151.987Z" fill="#333333"/>
<path d="M291.594 151.987C314.601 151.987 333.252 133.337 333.252 110.33C333.252 87.3235 314.601 68.673 291.594 68.673C268.588 68.673 249.938 87.3235 249.938 110.33C249.938 133.337 268.588 151.987 291.594 151.987Z" fill="#333333"/>
<path d="M132 294.365H341.535C341.535 294.365 310.729 412.466 236.002 412.466C161.275 412.466 132 294.365 132 294.365Z" fill="#D22327"/>
<path d="M259.362 311.053C259.362 320.134 246.011 327.487 236.766 327.487C227.524 327.487 214.17 320.134 214.17 311.053C214.17 301.975 227.524 294.615 236.766 294.615C246.008 294.619 259.362 301.975 259.362 311.053Z" fill="#9B1C1F"/>
<path d="M334.455 283.304C307.533 269.13 280.731 209.072 237.057 252.533H236.679C193.009 209.072 166.203 269.13 139.281 283.304C132.303 286.978 132.138 294.32 132.138 294.32C132.138 294.32 162.297 318.949 188.489 318.949C214.681 318.949 218.962 304.45 236.761 304.45H236.971C254.774 304.45 259.055 318.949 285.247 318.949C311.439 318.949 341.598 294.32 341.598 294.32C341.598 294.32 341.434 286.982 334.455 283.304Z" fill="#E22928"/>
</g>
<defs>
<clipPath id="clip0">
<rect width="473.931" height="473.931" fill="white"/>
</clipPath>
</defs>
</svg>
