<svg width="474" height="474" viewBox="0 0 474 474" fill="none" xmlns="http://www.w3.org/2000/svg">
<g clip-path="url(#clip0)">
<path d="M236.966 473.932C367.839 473.932 473.932 367.839 473.932 236.966C473.932 106.093 367.839 0 236.966 0C106.093 0 0 106.093 0 236.966C0 367.839 106.093 473.932 236.966 473.932Z" fill="#FFC10E"/>
<path d="M374.187 172.974C357.386 137.39 316.856 121.106 280.13 135.384C269.013 139.709 273.844 157.805 285.103 153.427C314.625 141.947 344.474 153.704 358.03 182.414C363.179 193.322 379.306 183.821 374.187 172.974Z" fill="#333333"/>
<path d="M122.243 182.328C135.799 153.617 165.647 141.857 195.17 153.341C206.429 157.719 211.26 139.624 200.143 135.298C163.418 121.016 122.891 137.304 106.086 172.888C100.968 183.732 117.095 193.232 122.243 182.328Z" fill="#333333"/>
<path d="M202.05 362.709C232.523 362.709 262.996 362.709 293.465 362.709C305.528 362.709 305.528 344 293.465 344C262.992 344 232.519 344 202.05 344C189.983 344 189.983 362.709 202.05 362.709Z" fill="#333333"/>
</g>
<defs>
<clipPath id="clip0">
<rect width="473.931" height="473.931" fill="white"/>
</clipPath>
</defs>
</svg>
