<svg width="474" height="474" viewBox="0 0 474 474" fill="none" xmlns="http://www.w3.org/2000/svg">
<g clip-path="url(#clip0)">
<path d="M236.966 473.932C367.839 473.932 473.932 367.839 473.932 236.966C473.932 106.093 367.839 0 236.966 0C106.093 0 0 106.093 0 236.966C0 367.839 106.093 473.932 236.966 473.932Z" fill="#FFC10E"/>
<path d="M81.3906 237.127C81.3906 323.038 151.04 392.687 236.951 392.687C322.866 392.687 392.518 323.038 392.518 237.127H81.3906Z" fill="#333333"/>
<path d="M150.452 298.705C150.452 346.476 189.183 385.203 236.95 385.203C284.725 385.203 323.452 346.472 323.452 298.705H150.452Z" fill="#CA2027"/>
<path d="M163.744 166.378C184.298 166.378 200.96 149.716 200.96 129.162C200.96 108.608 184.298 91.946 163.744 91.946C143.19 91.946 126.528 108.608 126.528 129.162C126.528 149.716 143.19 166.378 163.744 166.378Z" fill="#333333"/>
<path d="M304.472 191.324C338.803 191.324 366.634 163.493 366.634 129.162C366.634 94.8309 338.803 67 304.472 67C270.14 67 242.31 94.8309 242.31 129.162C242.31 163.493 270.14 191.324 304.472 191.324Z" fill="#333333"/>
</g>
<defs>
<clipPath id="clip0">
<rect width="473.931" height="473.931" fill="white"/>
</clipPath>
</defs>
</svg>
