<svg width="474" height="474" viewBox="0 0 474 474" fill="none" xmlns="http://www.w3.org/2000/svg">
<g clip-path="url(#clip0)">
<path d="M236.967 473.934C367.84 473.934 473.934 367.84 473.934 236.967C473.934 106.094 367.84 0 236.967 0C106.094 0 0 106.094 0 236.967C0 367.84 106.094 473.934 236.967 473.934Z" fill="#FFC10E"/>
<path d="M164.938 244.848C185.492 244.848 202.154 228.186 202.154 207.632C202.154 187.078 185.492 170.416 164.938 170.416C144.384 170.416 127.722 187.078 127.722 207.632C127.722 228.186 144.384 244.848 164.938 244.848Z" fill="#333333"/>
<path d="M313.637 244.848C334.191 244.848 350.853 228.186 350.853 207.632C350.853 187.078 334.191 170.416 313.637 170.416C293.083 170.416 276.421 187.078 276.421 207.632C276.421 228.186 293.083 244.848 313.637 244.848Z" fill="#333333"/>
<path d="M280.432 101.047C292.888 86.476 305.345 71.91 317.798 57.339C313.386 57.339 308.982 57.339 304.571 57.339C329.712 77.515 354.853 97.69 379.994 117.866C389.304 125.338 402.636 112.19 393.221 104.639C368.08 84.463 342.939 64.288 317.798 44.112C314.079 41.126 308.14 39.936 304.571 44.112C292.115 58.683 279.658 73.249 267.205 87.82C259.411 96.935 272.582 110.233 280.432 101.047Z" fill="#333333"/>
<path d="M208.635 87.82C196.179 73.249 183.726 58.683 171.27 44.112C167.7 39.936 161.762 41.126 158.043 44.112C132.898 64.288 107.761 84.463 82.62 104.639C73.206 112.19 86.538 125.339 95.847 117.866C120.988 97.69 146.129 77.515 171.27 57.339C166.858 57.339 162.454 57.339 158.043 57.339C170.499 71.91 182.952 86.476 195.408 101.047C203.258 110.233 216.429 96.935 208.635 87.82Z" fill="#333333"/>
<path d="M343.358 331.731C284.077 392.056 188.696 391.584 129.909 330.833C121.509 322.152 108.293 335.394 116.682 344.06C182.451 412.029 290.326 412.392 356.585 344.958C365.045 336.352 351.822 323.117 343.358 331.731Z" fill="#333333"/>
</g>
<defs>
<clipPath id="clip0">
<rect width="473.935" height="473.935" fill="white"/>
</clipPath>
</defs>
</svg>
