<svg width="474" height="474" viewBox="0 0 474 474" fill="none" xmlns="http://www.w3.org/2000/svg">
<g clip-path="url(#clip0)">
<path d="M236.966 473.932C367.839 473.932 473.932 367.839 473.932 236.966C473.932 106.093 367.839 0 236.966 0C106.093 0 0 106.093 0 236.966C0 367.839 106.093 473.932 236.966 473.932Z" fill="#FFC10E"/>
<path d="M81.3906 237.123C81.3906 323.034 151.04 392.683 236.951 392.683C322.866 392.683 392.515 323.034 392.515 237.123H81.3906Z" fill="white"/>
<path d="M167.728 237.123C167.728 283.558 167.728 329.993 167.728 376.429C173.752 379.43 180.001 382.038 186.437 384.249C186.437 335.206 186.437 286.166 186.437 237.123H167.728V237.123Z" fill="#CCCBCB"/>
<path d="M283.318 237.123C283.318 286.634 283.318 336.141 283.318 385.652C289.75 383.646 295.984 381.199 302.027 378.412C302.027 331.314 302.027 284.221 302.027 237.123H283.318Z" fill="#CCCBCB"/>
<path d="M359.741 217.435C346.536 217.435 334.005 209.618 328.628 196.664C317.515 169.899 303.7 146.91 288.677 130.18C276.251 116.343 277.392 95.0493 291.229 82.6223C305.066 70.1963 326.357 71.3333 338.783 85.1783C359.119 107.823 376.631 136.642 390.827 170.838C397.959 188.016 389.817 207.721 372.638 214.852C368.418 216.604 364.044 217.435 359.741 217.435Z" fill="#75CDDE"/>
<path d="M106.674 217.435C102.371 217.435 97.9967 216.604 93.7717 214.853C76.5938 207.725 68.4517 188.017 75.5827 170.839C89.7787 136.643 107.291 107.824 127.627 85.1792C140.053 71.3462 161.344 70.1972 175.181 82.6232C189.018 95.0492 190.159 116.344 177.733 130.181C162.71 146.91 148.895 169.896 137.782 196.665C132.41 209.618 119.875 217.435 106.674 217.435Z" fill="#75CDDE"/>
<path d="M159.216 146.432C179.77 146.432 196.432 129.77 196.432 109.216C196.432 88.6622 179.77 72 159.216 72C138.662 72 122 88.6622 122 109.216C122 129.77 138.662 146.432 159.216 146.432Z" fill="#333333"/>
<path d="M299.943 146.432C320.496 146.432 337.159 129.77 337.159 109.216C337.159 88.6622 320.496 72 299.943 72C279.389 72 262.727 88.6622 262.727 109.216C262.727 129.77 279.389 146.432 299.943 146.432Z" fill="#333333"/>
</g>
<defs>
<clipPath id="clip0">
<rect width="473.931" height="473.931" fill="white"/>
</clipPath>
</defs>
</svg>
