<svg width="474" height="474" viewBox="0 0 474 474" fill="none" xmlns="http://www.w3.org/2000/svg">
<g clip-path="url(#clip0)">
<path d="M236.966 473.932C367.839 473.932 473.932 367.839 473.932 236.966C473.932 106.093 367.839 0 236.966 0C106.093 0 0 106.093 0 236.966C0 367.839 106.093 473.932 236.966 473.932Z" fill="#FFC10E"/>
<path d="M95.0503 335.567C181.437 335.567 267.827 335.567 354.214 335.567C366.281 335.567 366.281 316.858 354.214 316.858C267.827 316.858 181.437 316.858 95.0503 316.858C82.9832 316.858 82.9832 335.567 95.0503 335.567Z" fill="#333333"/>
<path d="M102.706 309.517C102.706 315.13 102.706 320.742 102.706 326.355C102.706 332.387 112.06 332.387 112.06 326.355C112.06 320.742 112.06 315.13 112.06 309.517C112.06 303.481 102.706 303.481 102.706 309.517Z" fill="#333333"/>
<path d="M160.703 309.517C160.703 315.13 160.703 320.742 160.703 326.355C160.703 332.387 170.057 332.387 170.057 326.355C170.057 320.742 170.057 315.13 170.057 309.517C170.058 303.481 160.703 303.481 160.703 309.517Z" fill="#333333"/>
<path d="M218.701 309.517C218.701 315.13 218.701 320.742 218.701 326.355C218.701 332.387 228.055 332.387 228.055 326.355C228.055 320.742 228.055 315.13 228.055 309.517C228.056 303.481 218.701 303.481 218.701 309.517Z" fill="#333333"/>
<path d="M276.699 309.517C276.699 315.13 276.699 320.742 276.699 326.355C276.699 332.387 286.053 332.387 286.053 326.355C286.053 320.742 286.053 315.13 286.053 309.517C286.053 303.481 276.699 303.481 276.699 309.517Z" fill="#333333"/>
<path d="M131.391 325.42C131.391 331.033 131.391 336.645 131.391 342.258C131.391 348.29 140.745 348.29 140.745 342.258C140.745 336.645 140.745 331.033 140.745 325.42C140.746 319.384 131.391 319.384 131.391 325.42Z" fill="#333333"/>
<path d="M189.389 325.42C189.389 331.033 189.389 336.645 189.389 342.258C189.389 348.29 198.743 348.29 198.743 342.258C198.743 336.645 198.743 331.033 198.743 325.42C198.743 319.384 189.389 319.384 189.389 325.42Z" fill="#333333"/>
<path d="M247.387 325.42C247.387 331.033 247.387 336.645 247.387 342.258C247.387 348.29 256.741 348.29 256.741 342.258C256.741 336.645 256.741 331.033 256.741 325.42C256.741 319.384 247.387 319.384 247.387 325.42Z" fill="#333333"/>
<path d="M305.383 325.42C305.383 331.033 305.383 336.645 305.383 342.258C305.383 348.29 314.737 348.29 314.737 342.258C314.737 336.645 314.737 331.033 314.737 325.42C314.738 319.384 305.383 319.384 305.383 325.42Z" fill="#333333"/>
<path d="M380.155 344.503C380.155 344.503 354.797 344.503 349.817 344.503C344.84 344.503 319.666 329.566 319.666 325.412C319.666 321.259 344.56 306.321 349.817 306.321C355.074 306.321 380.155 306.321 380.155 306.321C390.696 306.325 390.696 344.503 380.155 344.503Z" fill="#333333"/>
<path d="M181.145 99C167.012 99 153.883 105.892 145.991 117.432L144.363 119.501L143.274 118.113C135.472 106.151 122.32 99.004 108.042 99.004C83.679 99.004 66 116.688 66 141.043C66 177.005 131.107 230.011 135.855 233.827C138.096 235.971 141.03 237.15 144.143 237.15C147.256 237.15 150.19 235.975 152.431 233.824C157.194 229.977 223.184 176.141 223.184 141.043C223.184 116.684 205.504 99 181.145 99Z" fill="#ED3533"/>
<path d="M365.711 99C351.578 99 338.449 105.892 330.557 117.432L328.929 119.501L327.84 118.113C320.038 106.151 306.886 99.004 292.608 99.004C268.245 99.004 250.566 116.688 250.566 141.043C250.566 177.005 315.673 230.011 320.421 233.827C322.662 235.971 325.596 237.15 328.709 237.15C331.818 237.15 334.752 235.975 336.997 233.824C341.757 229.981 407.746 176.141 407.746 141.043C407.75 116.684 390.07 99 365.711 99Z" fill="#ED3533"/>
</g>
<defs>
<clipPath id="clip0">
<rect width="473.931" height="473.931" fill="white"/>
</clipPath>
</defs>
</svg>
