<svg width="512" height="512" viewBox="0 0 512 512" fill="none" xmlns="http://www.w3.org/2000/svg">
<path d="M256 511.915C397.385 511.915 512 397.338 512 256C512 114.662 397.385 0.0849609 256 0.0849609C114.615 0.0849609 0 114.662 0 256C0 397.338 114.615 511.915 256 511.915Z" fill="#FFEB00"/>
<path d="M255.999 0.0849609C255.969 0.0849609 255.938 0.0859606 255.908 0.0859606V511.913C255.938 511.913 255.969 511.914 255.999 511.914C397.384 511.914 511.999 397.338 511.999 255.999C511.999 114.66 397.384 0.0849609 255.999 0.0849609V0.0849609Z" fill="#FFBB00"/>
<path d="M359.896 82.469H359.9C318.142 32.4112 386.085 -26.2235 429.393 16.9148C476.595 -27.9159 539.194 36.4048 498.886 82.469C498.194 83.1918 456.44 126.835 437.989 146.121C433.3 151.023 425.487 151.023 420.796 146.122C402.521 127.02 361.473 84.1174 359.896 82.469V82.469Z" fill="#FF001E"/>
<path d="M12.1842 449.076H12.1882C-26.7757 402.367 36.6203 347.656 77.0316 387.908C121.076 346.076 179.485 406.095 141.875 449.076C141.229 449.751 102.269 490.473 85.0527 508.468C80.6773 513.043 73.3869 513.043 69.0105 508.469C51.9567 490.645 13.6556 450.613 12.1842 449.076V449.076Z" fill="#FF001E"/>
<path d="M380.399 448.474H380.403C346.485 407.815 401.671 360.189 436.848 395.228C475.187 358.814 526.033 411.058 493.294 448.474C492.732 449.062 458.817 484.51 443.831 500.174C440.021 504.156 433.675 504.156 429.867 500.175C415.019 484.659 381.679 449.812 380.399 448.474V448.474Z" fill="#FF001E"/>
<path d="M153.921 227.816C175.416 227.816 192.842 210.396 192.842 188.908C192.842 167.42 175.416 150 153.921 150C132.425 150 115 167.42 115 188.908C115 210.396 132.425 227.816 153.921 227.816Z" fill="#132C63"/>
<path d="M346.233 227.816C367.729 227.816 385.154 210.396 385.154 188.908C385.154 167.42 367.729 150 346.233 150C324.738 150 307.312 167.42 307.312 188.908C307.312 210.396 324.738 227.816 346.233 227.816Z" fill="#000F35"/>
<path d="M169.006 396.077C167.227 396.077 165.418 395.759 163.655 395.088C155.916 392.143 152.041 383.447 154.986 375.707C155.444 374.504 166.542 345.969 196.263 322.566C223.393 301.205 271.792 279.962 348.28 300.073C356.29 302.178 361.075 310.378 358.969 318.387C356.862 326.397 348.661 331.183 340.655 329.076C289.445 315.615 247.475 321.065 215.904 345.282C192.178 363.481 183.077 386.212 182.988 386.439C180.714 392.418 175.039 396.077 169.006 396.077V396.077Z" fill="#132C63"/>
<path d="M348.279 300.073C310.022 290.015 278.793 290.302 253.736 295.774V326.517C278.696 319.599 307.766 320.431 340.655 329.076C348.662 331.183 356.862 326.397 358.968 318.387C361.074 310.377 356.288 302.178 348.279 300.073V300.073Z" fill="#000F35"/>
</svg>
