<svg width="512" height="512" viewBox="0 0 512 512" fill="none" xmlns="http://www.w3.org/2000/svg">
<path d="M256 511.915C397.385 511.915 512 397.338 512 256C512 114.662 397.385 0.0849609 256 0.0849609C114.615 0.0849609 0 114.662 0 256C0 397.338 114.615 511.915 256 511.915Z" fill="#FFEB00"/>
<path d="M255.999 0.0849609C255.969 0.0849609 255.938 0.0859606 255.908 0.0859606V511.913C255.938 511.913 255.969 511.914 255.999 511.914C397.384 511.914 511.999 397.338 511.999 255.999C511.999 114.66 397.384 0.0849609 255.999 0.0849609V0.0849609Z" fill="#FFBB00"/>
<path d="M359.896 82.469H359.9C318.142 32.4112 386.085 -26.2235 429.393 16.9148C476.595 -27.9159 539.194 36.4048 498.886 82.469C498.194 83.1918 456.44 126.835 437.989 146.121C433.3 151.023 425.487 151.023 420.796 146.122C402.521 127.02 361.473 84.1174 359.896 82.469V82.469Z" fill="#FF001E"/>
<path d="M12.1842 449.076H12.1882C-26.7757 402.367 36.6203 347.656 77.0316 387.908C121.076 346.076 179.485 406.095 141.875 449.076C141.229 449.751 102.269 490.473 85.0527 508.468C80.6773 513.043 73.3869 513.043 69.0105 508.469C51.9567 490.645 13.6556 450.613 12.1842 449.076V449.076Z" fill="#FF001E"/>
<path d="M380.399 448.474H380.403C346.485 407.815 401.671 360.189 436.848 395.228C475.187 358.814 526.033 411.058 493.294 448.474C492.732 449.062 458.817 484.51 443.831 500.174C440.021 504.156 433.675 504.156 429.867 500.175C415.019 484.659 381.679 449.812 380.399 448.474V448.474Z" fill="#FF001E"/>
<path d="M159.921 281.816C181.416 281.816 198.842 264.396 198.842 242.908C198.842 221.42 181.416 204 159.921 204C138.425 204 121 221.42 121 242.908C121 264.396 138.425 281.816 159.921 281.816Z" fill="#132C63"/>
<path d="M352.233 281.816C373.729 281.816 391.154 264.396 391.154 242.908C391.154 221.42 373.729 204 352.233 204C330.738 204 313.312 221.42 313.312 242.908C313.312 264.396 330.738 281.816 352.233 281.816Z" fill="#000F35"/>
<path d="M104.994 187.895C96.8024 187.895 90.1089 181.306 90.0049 173.09C89.804 157.241 95.7868 142.262 106.853 130.912C117.919 119.563 132.74 113.202 148.59 113.001C148.655 113.001 148.72 113 148.784 113C156.976 113 163.669 119.589 163.773 127.805C163.877 136.085 157.25 142.883 148.969 142.988C132.786 143.193 119.787 156.526 119.992 172.71C120.096 180.99 113.469 187.789 105.188 187.894C105.123 187.895 105.058 187.895 104.994 187.895V187.895Z" fill="#132C63"/>
<path d="M406.665 186.774C398.473 186.774 391.779 180.186 391.675 171.97C391.473 155.912 378.343 142.989 362.332 142.989C362.205 142.989 362.08 142.989 361.954 142.991C361.889 142.991 361.824 142.992 361.76 142.992C353.568 142.992 346.875 136.404 346.771 128.188C346.667 119.908 353.293 113.11 361.574 113.004C377.439 112.828 392.404 118.787 403.752 129.852C415.102 140.917 421.463 155.74 421.664 171.589C421.768 179.869 415.141 186.667 406.86 186.772C406.794 186.774 406.73 186.774 406.665 186.774Z" fill="#000F35"/>
<path d="M256.353 398.706C279.192 398.706 297.706 380.192 297.706 357.353C297.706 334.514 279.192 316 256.353 316C233.514 316 215 334.514 215 357.353C215 380.192 233.514 398.706 256.353 398.706Z" fill="#132C63"/>
</svg>
