<svg width="512" height="512" viewBox="0 0 512 512" fill="none" xmlns="http://www.w3.org/2000/svg">
<path d="M256 511.915C397.385 511.915 512 397.338 512 256C512 114.662 397.385 0.0849609 256 0.0849609C114.615 0.0849609 0 114.662 0 256C0 397.338 114.615 511.915 256 511.915Z" fill="#FFEB00"/>
<path d="M255.999 0.0849609C255.969 0.0849609 255.938 0.0859606 255.908 0.0859606V511.913C255.938 511.913 255.969 511.914 255.999 511.914C397.384 511.914 511.999 397.338 511.999 255.999C511.999 114.66 397.384 0.0849609 255.999 0.0849609V0.0849609Z" fill="#FFBB00"/>
<path d="M318.758 352.649C274.656 329.904 221.996 333.232 180.208 361.433C147.655 380.343 170.235 426.437 204.008 414.901L204.011 414.907C237.529 400.879 276.15 400.741 309.876 414.959L309.886 414.938C319.382 417.932 326.976 417.221 333.383 413.716L318.758 352.649Z" fill="#132C63"/>
<path d="M130.171 172.733C126.443 172.733 122.664 172.38 118.87 171.646C110.739 170.071 105.425 162.205 106.999 154.074C108.572 145.944 116.439 140.628 124.569 142.203C140.466 145.283 155.891 134.855 158.966 118.965C160.54 110.834 168.41 105.518 176.537 107.094C184.667 108.669 189.981 116.535 188.408 124.666C182.924 152.995 158.012 172.733 130.171 172.733V172.733Z" fill="#132C63"/>
<path d="M385.362 172.733C357.519 172.733 332.61 152.996 327.124 124.664C325.55 116.534 330.864 108.667 338.994 107.093C347.126 105.519 354.992 110.834 356.566 118.964C359.642 134.853 375.067 145.278 390.962 142.202C399.088 140.628 406.96 145.943 408.533 154.073C410.106 162.203 404.792 170.07 396.661 171.644C392.871 172.379 389.089 172.733 385.362 172.733Z" fill="#000F35"/>
<path d="M159.476 263.263C131.146 263.263 104.93 247.902 91.0566 223.174C87.0051 215.951 89.5751 206.812 96.7975 202.76C104.018 198.71 113.16 201.279 117.211 208.501C125.783 223.782 141.978 233.274 159.476 233.274C175.873 233.274 191.032 225.068 200.028 211.323C204.562 204.393 213.858 202.452 220.785 206.989C227.715 211.523 229.656 220.817 225.121 227.746C210.565 249.986 186.025 263.263 159.476 263.263V263.263Z" fill="#132C63"/>
<path d="M353.243 263.263C326.399 263.263 301.712 249.759 287.205 227.138C282.734 220.168 284.761 210.892 291.731 206.422C298.7 201.953 307.978 203.977 312.448 210.949C321.415 224.928 336.665 233.274 353.244 233.274C370.43 233.274 385.971 224.458 394.819 209.692C399.073 202.589 408.284 200.278 415.388 204.535C422.491 208.791 424.8 218 420.544 225.104C406.442 248.642 380.654 263.263 353.243 263.263Z" fill="#000F35"/>
<path d="M255.908 337.69V404.353C274.287 404.215 292.715 407.724 309.876 414.959L309.886 414.938C319.382 417.932 326.975 417.221 333.383 413.716L318.757 352.65C298.948 342.432 277.41 337.494 255.908 337.69Z" fill="#000F35"/>
<path d="M428.252 310.438C403.832 303.09 357.155 296.28 343.43 294.367C282.501 285.878 279.066 288.3 274.315 291.656C267.595 296.399 265.956 305.674 270.631 312.44C271.011 312.99 308.637 367.922 308.637 410.311C308.637 437.899 319.507 463.71 339.246 482.989C358.39 501.688 383.501 511.899 410.196 511.899C411.017 511.899 411.842 511.889 412.667 511.87C438.755 511.256 463.37 500.67 481.977 482.063C500.585 463.455 511.171 438.84 511.785 412.752C512.947 363.333 483.281 326.997 428.252 310.438V310.438Z" fill="#00FAFF"/>
<path d="M308.635 410.312C308.635 437.9 319.505 463.711 339.244 482.99C358.388 501.689 383.499 511.9 410.194 511.9C411.015 511.9 411.84 511.89 412.664 511.871C438.316 511.267 462.54 501.017 481.032 482.985L270.993 294.876C267.2 299.902 266.859 306.986 270.629 312.44C271.009 312.99 308.635 367.922 308.635 410.312V410.312Z" fill="#17CDF5"/>
<path d="M354.059 80.7327H354.063C312.304 30.6749 380.247 -27.9598 423.555 15.1785C470.757 -29.6522 533.356 34.6684 493.048 80.7327C492.356 81.4554 450.602 125.099 432.151 144.385C427.462 149.287 419.649 149.287 414.958 144.386C396.683 125.284 355.635 82.3811 354.059 80.7327V80.7327Z" fill="#FF001E"/>
<path d="M22.1842 436.331H22.1882C-16.7757 389.622 46.6203 334.911 87.0316 375.163C131.076 333.331 189.485 393.35 151.875 436.331C151.229 437.006 112.269 477.728 95.0527 495.723C90.6773 500.298 83.3869 500.298 79.0105 495.724C61.9567 477.9 23.6556 437.868 22.1842 436.331Z" fill="#FF001E"/>
</svg>
