<svg width="512" height="512" viewBox="0 0 512 512" fill="none" xmlns="http://www.w3.org/2000/svg">
<g clip-path="url(#clip0)">
<path d="M123.562 75.81C123.212 75.651 88.4334 59.277 70.3574 9.84897C68.7404 5.42897 65.1424 2.02397 60.6394 0.651971C56.1354 -0.720029 51.2514 0.102971 47.4454 2.87197C46.4714 3.57997 23.4354 20.609 9.93635 54.122C-12.1766 109.019 7.69835 164.951 28.2654 202.205C30.7504 206.707 35.3694 209.621 40.5024 209.929C40.8024 209.947 41.1014 209.955 41.3984 209.955C46.2044 209.955 50.7434 207.647 53.5714 203.717L129.5 98.215C132.121 94.572 132.975 89.947 131.824 85.61C130.675 81.271 127.643 77.676 123.562 75.81V75.81Z" fill="#A14CDA"/>
<path d="M502.064 54.1212C488.565 20.6082 465.529 3.57916 464.555 2.87116C460.748 0.101157 455.86 -0.721843 451.361 0.651157C446.858 2.02316 443.26 5.42816 441.644 9.84816C423.8 58.6372 388.927 75.6002 387.534 76.2602C383.437 78.1362 380.401 81.7542 379.265 86.1142C378.128 90.4742 379.012 95.1142 381.671 98.7522L458.494 203.809C461.329 207.686 465.835 209.955 470.6 209.955C470.916 209.955 471.235 209.945 471.553 209.925C476.665 209.6 481.258 206.69 483.734 202.205C504.302 164.95 524.177 109.019 502.064 54.1212V54.1212Z" fill="#6E3097"/>
<path d="M255.785 512.001C389.303 512.001 497.541 403.799 497.541 270.325C497.541 136.851 389.303 28.6489 255.785 28.6489C122.267 28.6489 14.0293 136.851 14.0293 270.325C14.0293 403.799 122.267 512.001 255.785 512.001Z" fill="#CA75F5"/>
<path d="M255.785 28.6499C255.756 28.6499 255.728 28.6509 255.699 28.6509V512C255.728 512 255.756 512.001 255.785 512.001C389.303 512.001 497.541 403.799 497.541 270.325C497.541 136.851 389.303 28.6499 255.785 28.6499V28.6499Z" fill="#A14CDA"/>
<path d="M200.707 223.052L169.502 189.766C163.638 183.511 153.814 183.193 147.56 189.058C141.305 194.922 140.988 204.746 146.852 211L154.222 218.862C142.264 225.849 134.225 238.809 134.225 253.654C134.225 275.901 152.266 293.935 174.52 293.935C196.774 293.935 214.815 275.9 214.815 253.654C214.815 241.404 209.338 230.44 200.707 223.052V223.052Z" fill="#132C63"/>
<path d="M310.878 223.052L342.083 189.766C347.947 183.511 357.771 183.193 364.025 189.058C370.28 194.922 370.597 204.746 364.733 211L357.363 218.862C369.321 225.849 377.36 238.809 377.36 253.654C377.36 275.901 359.319 293.935 337.065 293.935C314.811 293.935 296.77 275.9 296.77 253.654C296.77 241.404 302.247 230.44 310.878 223.052Z" fill="#000F35"/>
<path d="M395.421 350H115.637C109.294 350 104.396 355.513 105.06 361.821C106.586 376.29 110.884 390.073 117.49 402.779L255.622 429.417L393.569 402.779C400.174 390.073 404.472 376.291 405.998 361.821C406.662 355.513 401.764 350 395.421 350Z" fill="#FFF4F4"/>
<path d="M117.488 402.383C141.044 447.688 193.985 479.27 255.528 479.27C317.071 479.27 370.013 447.689 393.568 402.383H117.488Z" fill="#132C63"/>
</g>
<defs>
<clipPath id="clip0">
<rect width="512" height="512" fill="white"/>
</clipPath>
</defs>
</svg>
