<svg width="512" height="512" viewBox="0 0 512 512" fill="none" xmlns="http://www.w3.org/2000/svg">
<g clip-path="url(#clip0)">
<path d="M483.111 46.6272L473.768 45.8702C469.695 45.5402 466.462 42.3082 466.132 38.2352C465.772 33.7912 465.374 28.8902 465.374 28.8902C463.942 11.2252 448.194 -1.76181 430.579 0.195194C415.566 0.195194 403.256 12.0972 402.75 27.1012L401.693 58.4532C401.622 60.5662 400.751 62.5732 399.256 64.0672L374.328 88.9952L420.943 139.734L447.933 112.744C449.428 111.249 451.435 110.378 453.548 110.307L484.9 109.25C499.904 108.744 511.806 96.4342 511.806 81.4212V77.7422C511.806 61.9092 498.893 47.9072 483.111 46.6272V46.6272Z" fill="#CCBEB9"/>
<path d="M118.952 344.372L64.0691 399.255C62.5741 400.75 60.5671 401.621 58.4551 401.692L30.3731 402.639C14.7711 403.165 1.92115 415.063 0.197147 430.578C-1.75985 448.193 11.2271 463.941 28.8921 465.373L38.2351 466.131C42.3081 466.461 45.5411 469.693 45.8711 473.766C46.2311 478.21 46.6291 483.11 46.6291 483.11C48.0611 500.775 63.8091 513.762 81.4241 511.805C96.4371 511.805 108.747 499.903 109.253 484.899L110.31 453.548C110.381 451.435 111.252 449.428 112.747 447.933L210.86 349.82L118.952 344.372Z" fill="#E0D2CD"/>
<path d="M109.361 30.3723C108.794 13.5443 94.9882 0.195312 78.1502 0.195312H77.7432C61.9092 0.195312 47.9072 13.1083 46.6272 28.8903L45.8692 38.2333C45.5392 42.3063 42.3072 45.5393 38.2342 45.8693C33.7902 46.2293 28.8902 46.6273 28.8902 46.6273C11.2252 48.0593 -1.76181 63.8073 0.195194 81.4223C0.195194 96.4353 12.0972 108.745 27.1012 109.251L58.4532 110.308C60.5662 110.379 62.5732 111.25 64.0672 112.745L91.4892 140.167L137.693 89.0173L112.744 64.0683C111.249 62.5733 110.378 60.5663 110.307 58.4533L109.361 30.3723Z" fill="#F1E1DB"/>
<path d="M511.806 430.578C510.082 415.063 497.231 403.165 481.63 402.639L453.548 401.692C451.435 401.621 449.428 400.75 447.933 399.255L329.555 280.878L365.917 414.594L399.256 447.933C400.751 449.428 401.622 451.435 401.693 453.548L402.64 481.63C403.207 498.458 417.013 511.806 433.85 511.806H434.258C450.092 511.806 464.094 498.893 465.374 483.111L466.132 473.768C466.462 469.695 469.694 466.462 473.767 466.132C478.211 465.772 483.111 465.374 483.111 465.374C500.776 463.941 513.763 448.193 511.806 430.578V430.578Z" fill="#EDE0DE"/>
<path d="M256.073 477C378.169 477 477.147 378.055 477.147 256C477.147 133.945 378.169 35 256.073 35C133.978 35 35 133.945 35 256C35 378.055 133.978 477 256.073 477Z" fill="#FFEB00"/>
<path d="M256.073 35C256.047 35 256.02 35.0009 255.994 35.0009V476.998C256.02 476.998 256.047 476.999 256.073 476.999C378.168 476.999 477.146 378.055 477.146 255.999C477.146 133.944 378.168 35 256.073 35V35Z" fill="#FFBB00"/>
<path d="M209.175 221.219C202.024 221.219 196.226 215.421 196.226 208.27C196.226 197.97 187.846 189.589 177.545 189.589C167.244 189.589 158.864 197.97 158.864 208.27C158.864 215.421 153.067 221.219 145.916 221.219C138.764 221.219 132.967 215.421 132.967 208.27C132.967 183.69 152.964 163.691 177.545 163.691C202.126 163.691 222.124 183.69 222.124 208.27C222.124 215.421 216.326 221.219 209.175 221.219V221.219Z" fill="#132C63"/>
<path d="M364.845 221.219C357.694 221.219 351.896 215.421 351.896 208.27C351.896 197.97 343.516 189.589 333.215 189.589C322.914 189.589 314.534 197.97 314.534 208.27C314.534 215.421 308.737 221.219 301.586 221.219C294.434 221.219 288.637 215.421 288.637 208.27C288.637 183.69 308.634 163.691 333.215 163.691C357.796 163.691 377.794 183.69 377.794 208.27C377.794 215.421 371.996 221.219 364.845 221.219V221.219Z" fill="#000F35"/>
<path d="M365.544 324H141.517C136.438 324 132.516 328.414 133.048 333.465C134.27 345.051 137.712 356.087 143.001 366.261L253.605 387.59L364.061 366.261C369.35 356.087 372.792 345.052 374.014 333.465C374.545 328.414 370.623 324 365.544 324Z" fill="#FFF4F4"/>
<path d="M365.543 324H253.531V387.576L253.604 387.59L364.06 366.261C369.349 356.087 372.79 345.051 374.012 333.465C374.544 328.414 370.622 324 365.543 324V324Z" fill="#F1E1DB"/>
<path d="M143 365.944C161.861 402.221 204.252 427.508 253.531 427.508C302.809 427.508 345.2 402.221 364.061 365.944H143Z" fill="#132C63"/>
<path d="M253.531 427.825C302.809 427.824 345.199 402.537 364.06 366.26H253.531V427.825Z" fill="#000F35"/>
</g>
<defs>
<clipPath id="clip0">
<rect width="512" height="512" fill="white"/>
</clipPath>
</defs>
</svg>
