<svg width="512" height="512" viewBox="0 0 512 512" fill="none" xmlns="http://www.w3.org/2000/svg">
<g clip-path="url(#clip0)">
<path d="M256 511.915C397.385 511.915 512 397.338 512 256C512 114.662 397.385 0.0849609 256 0.0849609C114.615 0.0849609 0 114.662 0 256C0 397.338 114.615 511.915 256 511.915Z" fill="#FFEB00"/>
<path d="M255.999 0.0849609C255.969 0.0849609 255.938 0.0859606 255.908 0.0859606V511.913C255.938 511.913 255.969 511.914 255.999 511.914C397.384 511.914 511.999 397.338 511.999 255.999C511.999 114.66 397.384 0.0849609 255.999 0.0849609V0.0849609Z" fill="#FFBB00"/>
<path d="M256.096 432.834C215.658 432.834 178.265 410.151 158.51 373.637C154.57 366.353 157.28 357.254 164.563 353.314C171.847 349.371 180.946 352.083 184.887 359.366C199.396 386.185 226.682 402.845 256.096 402.845C285.373 402.845 312.595 386.301 327.141 359.669C331.112 352.402 340.222 349.73 347.488 353.696C354.756 357.666 357.429 366.776 353.461 374.043C333.655 410.306 296.347 432.834 256.096 432.834V432.834Z" fill="#132C63"/>
<path d="M476.877 126.545H224.329L149.546 192.28L151.343 126.545H35.1203C20.0288 151.389 11.4679 172.133 5.33011 204.53C2.40017 219.991 3.46478 235.952 8.376 250.903C12.0047 261.949 18.7012 271.808 27.9069 278.91C34.9034 284.307 43.0544 288.166 51.8892 289.998C52.6659 290.158 53.4476 290.304 54.2333 290.435C57.5211 290.984 50.8446 290.435 54.2333 290.435L111.945 255.999L126.757 291.265H181.032C199.23 291.265 215.678 280.426 222.855 263.703C235.145 235.071 275.765 235.145 287.948 263.823L288.195 264.404C295.335 281.209 311.826 292.12 330.084 292.12H451.367C452.034 292.12 452.7 292.108 453.362 292.085C474.842 291.339 493.833 277.865 502.512 258.203C508.765 243.828 510.802 227.968 508.413 212.475C503.085 177.93 493.175 153.375 476.877 126.545V126.545Z" fill="#132C63"/>
<path d="M481.345 134.13C478.683 129.457 473.739 126.544 468.361 126.544H255.908V242.289C268.965 242.48 281.928 249.654 287.949 263.824L288.195 264.405C295.335 281.21 311.826 292.121 330.084 292.121H451.366C452.033 292.121 452.699 292.109 453.361 292.086C474.841 291.34 493.832 277.866 502.512 258.204C508.764 243.829 510.802 227.969 508.412 212.476C503.591 181.208 495.015 158.124 481.345 134.13Z" fill="#000F35"/>
<path d="M347.489 353.696C340.223 349.729 331.112 352.402 327.142 359.669C312.597 386.302 285.374 402.845 256.097 402.845C256.034 402.845 255.972 402.842 255.91 402.842V432.831C255.973 432.831 256.035 432.834 256.097 432.834C296.348 432.834 333.656 410.307 353.462 374.043C357.43 366.776 354.756 357.666 347.489 353.696Z" fill="#000F35"/>
<path d="M126.758 291.266L224.33 126.544H151.344L54.2266 290.483C57.4064 290.995 60.6442 291.266 63.917 291.266H126.758Z" fill="#FFF4F4"/>
<path d="M15.1842 449.331H15.1882C-23.7757 402.622 39.6203 347.911 80.0316 388.164C124.076 346.332 182.485 406.35 144.875 449.331C144.229 450.006 105.269 490.728 88.0527 508.724C83.6773 513.298 76.3869 513.298 72.0105 508.725C54.9567 490.9 16.6556 450.869 15.1842 449.331Z" fill="#FF001E"/>
<path d="M80.0317 388.163C80.0107 388.142 79.9897 388.123 79.9688 388.103V512.152C82.9067 512.169 85.8496 511.029 88.0538 508.724C105.271 490.729 144.23 450.006 144.876 449.331C182.486 406.349 124.076 346.331 80.0317 388.163Z" fill="#C30010"/>
<path d="M369.606 438.574H369.61C335.692 397.915 390.878 350.29 426.055 385.329C464.394 348.915 515.24 401.159 482.501 438.574C481.939 439.162 448.024 474.61 433.038 490.275C429.228 494.256 422.882 494.256 419.074 490.276C404.226 474.759 370.886 439.913 369.606 438.574V438.574Z" fill="#FF001E"/>
<path d="M385.606 72.5745H385.61C351.692 31.9152 406.878 -15.7104 442.055 19.3288C480.394 -17.0849 531.24 35.1591 498.501 72.5745C497.939 73.1623 464.024 108.61 449.038 124.275C445.228 128.256 438.882 128.256 435.074 124.276C420.226 108.759 386.886 73.913 385.606 72.5745V72.5745Z" fill="#FF001E"/>
<path d="M426.055 385.329C426.037 385.311 426.018 385.295 426 385.276V493.259C428.557 493.274 431.119 492.28 433.037 490.275C448.024 474.609 481.939 439.161 482.5 438.574C515.239 401.159 464.394 348.915 426.055 385.329Z" fill="#C30010"/>
<path d="M442.055 19.3288C442.037 19.3108 442.018 19.2948 442 19.2758V127.259C444.557 127.274 447.119 126.28 449.037 124.275C464.024 108.609 497.939 73.1613 498.5 72.5745C531.239 35.1591 480.394 -17.0849 442.055 19.3288Z" fill="#C30010"/>
</g>
<defs>
<clipPath id="clip0">
<rect width="512" height="512" fill="white"/>
</clipPath>
</defs>
</svg>
