<svg width="512" height="512" viewBox="0 0 512 512" fill="none" xmlns="http://www.w3.org/2000/svg">
<g clip-path="url(#clip0)">
<path d="M483.111 46.6272L473.768 45.8702C469.695 45.5402 466.462 42.3082 466.132 38.2352C465.772 33.7912 465.374 28.8902 465.374 28.8902C463.942 11.2252 448.194 -1.76181 430.579 0.195194C415.566 0.195194 403.256 12.0972 402.75 27.1012L401.693 58.4532C401.622 60.5662 400.751 62.5732 399.256 64.0672L374.328 88.9952L420.943 139.734L447.933 112.744C449.428 111.249 451.435 110.378 453.548 110.307L484.9 109.25C499.904 108.744 511.806 96.4342 511.806 81.4212V77.7422C511.806 61.9092 498.893 47.9072 483.111 46.6272V46.6272Z" fill="#CCBEB9"/>
<path d="M118.952 344.372L64.0691 399.255C62.5741 400.75 60.5671 401.621 58.4551 401.692L30.3731 402.639C14.7711 403.165 1.92115 415.063 0.197147 430.578C-1.75985 448.193 11.2271 463.941 28.8921 465.373L38.2351 466.131C42.3081 466.461 45.5411 469.693 45.8711 473.766C46.2311 478.21 46.6291 483.11 46.6291 483.11C48.0611 500.775 63.8091 513.762 81.4241 511.805C96.4371 511.805 108.747 499.903 109.253 484.899L110.31 453.548C110.381 451.435 111.252 449.428 112.747 447.933L210.86 349.82L118.952 344.372Z" fill="#E0D2CD"/>
<path d="M109.361 30.3723C108.794 13.5443 94.9882 0.195312 78.1502 0.195312H77.7432C61.9092 0.195312 47.9072 13.1083 46.6272 28.8903L45.8692 38.2333C45.5392 42.3063 42.3072 45.5393 38.2342 45.8693C33.7902 46.2293 28.8902 46.6273 28.8902 46.6273C11.2252 48.0593 -1.76181 63.8073 0.195194 81.4223C0.195194 96.4353 12.0972 108.745 27.1012 109.251L58.4532 110.308C60.5662 110.379 62.5732 111.25 64.0672 112.745L91.4892 140.167L137.693 89.0173L112.744 64.0683C111.249 62.5733 110.378 60.5663 110.307 58.4533L109.361 30.3723Z" fill="#F1E1DB"/>
<path d="M511.806 430.578C510.082 415.063 497.231 403.165 481.63 402.639L453.548 401.692C451.435 401.621 449.428 400.75 447.933 399.255L329.555 280.878L365.917 414.594L399.256 447.933C400.751 449.428 401.622 451.435 401.693 453.548L402.64 481.63C403.207 498.458 417.013 511.806 433.85 511.806H434.258C450.092 511.806 464.094 498.893 465.374 483.111L466.132 473.768C466.462 469.695 469.694 466.462 473.767 466.132C478.211 465.772 483.111 465.374 483.111 465.374C500.776 463.941 513.763 448.193 511.806 430.578V430.578Z" fill="#EDE0DE"/>
<path d="M256.001 30.542C139.794 30.542 45.5898 124.746 45.5898 240.952V292.521C45.5898 319.379 67.3628 341.152 94.2208 341.152C116.465 341.152 134.576 359.035 134.857 381.277L135.734 450.678C135.945 467.413 149.572 480.868 166.308 480.868H344.579C361.466 480.868 375.155 467.179 375.155 450.292V381.791C375.155 359.347 393.35 341.152 415.794 341.152H417.779C444.637 341.152 466.41 319.379 466.41 292.521V240.952C466.411 124.746 372.208 30.542 256.001 30.542V30.542Z" fill="#FFF4F4"/>
<path d="M256.001 30.542C255.668 30.542 255.338 30.553 255.006 30.555V480.869H344.579C361.466 480.869 375.155 467.18 375.155 450.293V381.792C375.155 359.348 393.35 341.153 415.794 341.153H417.779C444.637 341.153 466.41 319.38 466.41 292.522V240.953C466.411 124.746 372.208 30.542 256.001 30.542V30.542Z" fill="#E0D2CD"/>
<path d="M331.639 248.169C354.212 248.169 372.512 229.87 372.512 207.296C372.512 184.723 354.212 166.423 331.639 166.423C309.065 166.423 290.766 184.723 290.766 207.296C290.766 229.87 309.065 248.169 331.639 248.169Z" fill="#000F35"/>
<path d="M180.361 248.169C202.935 248.169 221.234 229.87 221.234 207.296C221.234 184.723 202.935 166.423 180.361 166.423C157.788 166.423 139.488 184.723 139.488 207.296C139.488 229.87 157.788 248.169 180.361 248.169Z" fill="#132C63"/>
<path d="M291.16 351.297C286.639 351.297 282.148 349.383 278.996 345.664L255.005 317.35L231.014 345.664C225.326 352.379 215.271 353.209 208.557 347.52C201.843 341.831 201.012 331.777 206.701 325.063L242.848 282.402C245.875 278.829 250.322 276.769 255.005 276.769C259.688 276.769 264.134 278.829 267.162 282.402L303.31 325.063C308.999 331.777 308.168 341.832 301.454 347.52C298.459 350.057 294.799 351.297 291.16 351.297V351.297Z" fill="#132C63"/>
<path d="M134.856 381.277L135.733 450.678C135.944 467.413 149.571 480.868 166.307 480.868H196.912L213.821 454.72L230.73 480.868H281.271L298.18 447.823L315.089 480.868H344.577C361.464 480.868 375.153 467.179 375.153 450.292V381.791C375.153 381.012 375.18 380.24 375.223 379.473H315.088L298.179 414.325L281.27 379.473H230.729L213.82 410.384L196.911 379.473H134.787C134.822 380.071 134.848 380.672 134.856 381.277V381.277Z" fill="#EDE0DE"/>
<path d="M375.154 450.292V381.791C375.154 381.712 375.161 381.635 375.161 381.556C375.165 380.866 375.185 380.18 375.223 379.498C375.223 379.489 375.223 379.481 375.224 379.472H315.089L298.18 405.95L281.271 379.473H255.006V480.868H281.271L298.18 435.507L315.089 480.868H344.577C361.464 480.868 375.154 467.179 375.154 450.292V450.292Z" fill="#CCBEB9"/>
<path d="M196.912 379.473H230.73V480.868H196.912V379.473Z" fill="white"/>
<path d="M281.271 379.473H315.089V480.868H281.271V379.473Z" fill="#FFF4F4"/>
<path d="M267.162 282.402C264.135 278.829 259.689 276.769 255.006 276.769V317.35L278.997 345.664C282.149 349.383 286.64 351.297 291.161 351.297C294.801 351.297 298.46 350.057 301.454 347.52C308.168 341.831 308.999 331.776 303.31 325.063L267.162 282.402Z" fill="#000F35"/>
<path d="M256.423 465.706C219.84 465.706 186.092 443.751 168.35 408.408C166.227 404.177 166.631 399.117 169.399 395.278C172.167 391.437 176.837 389.453 181.524 390.131L182.289 390.241C231.679 397.401 281.773 397.479 331.182 390.473C335.869 389.811 340.541 391.807 343.298 395.657C346.055 399.508 346.441 404.573 344.3 408.798C326.511 443.9 292.839 465.706 256.423 465.706Z" fill="#FF001E"/>
<path d="M331.182 390.125C306.322 393.65 281.289 395.378 256.26 395.317V465.355C256.315 465.355 256.37 465.358 256.425 465.358C292.84 465.358 326.512 443.552 344.3 408.45C346.441 404.225 346.054 399.16 343.297 395.31C340.54 391.459 335.868 389.463 331.182 390.125V390.125Z" fill="#C30010"/>
</g>
<defs>
<clipPath id="clip0">
<rect width="512" height="512" fill="white"/>
</clipPath>
</defs>
</svg>
