<svg width="512" height="512" viewBox="0 0 512 512" fill="none" xmlns="http://www.w3.org/2000/svg">
<path d="M256 511.915C397.385 511.915 512 397.338 512 256C512 114.662 397.385 0.0849609 256 0.0849609C114.615 0.0849609 0 114.662 0 256C0 397.338 114.615 511.915 256 511.915Z" fill="#FFEB00"/>
<path d="M255.999 0.0849609C255.969 0.0849609 255.938 0.0859606 255.908 0.0859606V511.913C255.938 511.913 255.969 511.914 255.999 511.914C397.384 511.914 511.999 397.338 511.999 255.999C511.999 114.66 397.384 0.0849609 255.999 0.0849609V0.0849609Z" fill="#FFBB00"/>
<path d="M395.8 299.617H116.016C109.673 299.617 104.775 305.13 105.439 311.438C106.965 325.908 111.263 339.691 117.869 352.396L256.001 379.034L393.948 352.396C400.553 339.691 404.851 325.909 406.377 311.438C407.041 305.13 402.143 299.617 395.8 299.617Z" fill="#FFF4F4"/>
<path d="M395.798 299.617H255.908V379.016L255.999 379.034L393.946 352.396C400.552 339.691 404.849 325.908 406.375 311.438C407.039 305.13 402.141 299.617 395.798 299.617V299.617Z" fill="#F1E1DB"/>
<path d="M117.867 352.396C141.423 397.702 194.364 429.283 255.907 429.283C317.45 429.283 370.391 397.703 393.947 352.396H117.867Z" fill="#132C63"/>
<path d="M255.908 429.282C317.45 429.281 370.391 397.701 393.946 352.395H255.908V429.282Z" fill="#000F35"/>
<path d="M201.691 215.724C193.41 215.724 186.697 209.01 186.697 200.729C186.697 188.801 176.993 179.097 165.065 179.097C153.136 179.097 143.432 188.801 143.432 200.729C143.432 209.01 136.719 215.724 128.438 215.724C120.157 215.724 113.443 209.01 113.443 200.729C113.443 172.265 136.6 149.108 165.065 149.108C193.529 149.108 216.686 172.265 216.686 200.729C216.686 209.01 209.972 215.724 201.691 215.724V215.724Z" fill="#132C63"/>
<path d="M381.955 215.724C373.674 215.724 366.96 209.01 366.96 200.729C366.96 188.801 357.257 179.097 345.328 179.097C333.4 179.097 323.696 188.801 323.696 200.729C323.696 209.01 316.983 215.724 308.702 215.724C300.421 215.724 293.707 209.01 293.707 200.729C293.707 172.265 316.864 149.108 345.328 149.108C373.793 149.108 396.95 172.265 396.95 200.729C396.95 209.01 390.236 215.724 381.955 215.724V215.724Z" fill="#000F35"/>
<path d="M18.1842 445.331H18.1882C-20.7757 398.622 42.6203 343.911 83.0316 384.163C127.076 342.331 185.485 402.35 147.875 445.331C147.229 446.006 108.269 486.728 91.0527 504.723C86.6773 509.298 79.3869 509.298 75.0105 504.724C57.9567 486.9 19.6556 446.868 18.1842 445.331Z" fill="#FF001E"/>
<path d="M83.0317 384.163C83.0107 384.142 82.9897 384.123 82.9688 384.103V508.152C85.9067 508.169 88.8496 507.029 91.0538 504.724C108.271 486.729 147.23 446.006 147.876 445.331C185.486 402.349 127.076 342.331 83.0317 384.163Z" fill="#C30010"/>
<path d="M372.606 434.574H372.61C338.692 393.915 393.878 346.29 429.055 381.329C467.394 344.915 518.24 397.159 485.501 434.574C484.939 435.162 451.024 470.61 436.038 486.275C432.228 490.256 425.882 490.256 422.074 486.276C407.226 470.759 373.886 435.913 372.606 434.574V434.574Z" fill="#FF001E"/>
<path d="M388.606 68.5745H388.61C354.692 27.9152 409.878 -19.7104 445.055 15.3288C483.394 -21.0849 534.24 31.1591 501.501 68.5745C500.939 69.1623 467.024 104.61 452.038 120.275C448.228 124.256 441.882 124.256 438.074 120.276C423.226 104.759 389.886 69.913 388.606 68.5745V68.5745Z" fill="#FF001E"/>
<path d="M429.055 381.329C429.037 381.311 429.018 381.295 429 381.276V489.259C431.557 489.274 434.119 488.28 436.037 486.275C451.024 470.609 484.939 435.161 485.5 434.574C518.239 397.159 467.394 344.915 429.055 381.329Z" fill="#C30010"/>
<path d="M445.055 15.3288C445.037 15.3108 445.018 15.2948 445 15.2758V123.259C447.557 123.274 450.119 122.28 452.037 120.275C467.024 104.609 500.939 69.1613 501.5 68.5745C534.239 31.1591 483.394 -21.0849 445.055 15.3288Z" fill="#C30010"/>
</svg>
