<svg width="512" height="512" viewBox="0 0 512 512" fill="none" xmlns="http://www.w3.org/2000/svg">
<path d="M256 511.915C397.385 511.915 512 397.338 512 256C512 114.662 397.385 0.0849609 256 0.0849609C114.615 0.0849609 0 114.662 0 256C0 397.338 114.615 511.915 256 511.915Z" fill="#FFEB00"/>
<path d="M255.999 0.0849609C255.969 0.0849609 255.938 0.0859606 255.908 0.0859606V511.913C255.938 511.913 255.969 511.914 255.999 511.914C397.384 511.914 511.999 397.338 511.999 255.999C511.999 114.66 397.384 0.0849609 255.999 0.0849609V0.0849609Z" fill="#FFBB00"/>
<path d="M201.6 231.1C193.319 231.1 186.605 224.387 186.605 216.106C186.605 204.178 176.901 194.473 164.973 194.473C153.044 194.473 143.341 204.178 143.341 216.106C143.341 224.387 136.627 231.1 128.346 231.1C120.065 231.1 113.352 224.387 113.352 216.106C113.352 187.642 136.508 164.484 164.973 164.484C193.437 164.484 216.594 187.642 216.594 216.106C216.594 224.387 209.88 231.1 201.6 231.1V231.1Z" fill="#132C63"/>
<path d="M381.861 231.1C373.58 231.1 366.867 224.387 366.867 216.106C366.867 204.178 357.163 194.473 345.235 194.473C333.306 194.473 323.602 204.178 323.602 216.106C323.602 224.387 316.889 231.1 308.608 231.1C300.327 231.1 293.613 224.387 293.613 216.106C293.613 187.642 316.77 164.484 345.235 164.484C373.699 164.484 396.856 187.642 396.856 216.106C396.856 224.387 390.142 231.1 381.861 231.1V231.1Z" fill="#000F35"/>
<path d="M446.926 491.322H64.3645C57.536 491.322 52 485.786 52 478.957V305.364C52 298.536 57.536 293 64.3645 293H446.926C453.754 293 459.29 298.536 459.29 305.364V478.957C459.29 485.786 453.754 491.322 446.926 491.322Z" fill="#FFF4F4"/>
<path d="M446.927 293H255.625V491.322H446.927C453.755 491.322 459.291 485.786 459.291 478.957V305.364C459.291 298.536 453.755 293 446.927 293Z" fill="#F1E1DB"/>
<path d="M304.468 378.832C313.436 378.832 320.707 371.562 320.707 362.593C320.707 353.624 313.436 346.354 304.468 346.354H303.797L303.776 342.669C303.723 333.732 296.465 326.525 287.54 326.525H287.443C278.474 326.577 271.248 333.89 271.3 342.858L271.32 346.353H239.841L239.85 344.256C239.888 335.288 232.65 327.987 223.681 327.948H223.61C214.674 327.948 207.411 335.174 207.372 344.118L207.362 346.352H206.823C197.854 346.352 190.584 353.622 190.584 362.591C190.584 371.56 197.854 378.83 206.823 378.83H207.224L207.116 404.188H206.824C197.855 404.188 190.585 411.458 190.585 420.427C190.585 429.396 197.855 436.666 206.824 436.666H206.978L206.963 440.187C206.925 449.155 214.163 456.456 223.132 456.495H223.203C232.139 456.495 239.402 449.269 239.441 440.326L239.457 436.667H271.846L271.867 440.352C271.92 449.288 279.179 456.496 288.104 456.496H288.201C297.169 456.443 304.396 449.13 304.344 440.163L304.324 436.668H304.468C313.436 436.668 320.707 429.398 320.707 420.429C320.707 411.46 313.436 404.19 304.468 404.19H304.134L303.986 378.832H304.468ZM271.656 404.19H239.594L239.702 378.832H271.508L271.656 404.19Z" fill="#132C63"/>
<path d="M129.358 323.584C120.39 323.584 113.119 330.854 113.119 339.823V385.977C113.119 394.946 120.39 402.216 129.358 402.216C138.327 402.216 145.597 394.946 145.597 385.977V339.823C145.597 330.854 138.327 323.584 129.358 323.584Z" fill="#132C63"/>
<path d="M128.589 456.496C137.557 456.496 144.828 449.225 144.828 440.257C144.828 431.288 137.557 424.018 128.589 424.018C119.62 424.018 112.35 431.288 112.35 440.257C112.35 449.225 119.62 456.496 128.589 456.496Z" fill="#132C63"/>
<path d="M379.524 377.863C370.556 377.863 363.285 385.134 363.285 394.102V440.257C363.285 449.225 370.556 456.496 379.524 456.496C388.493 456.496 395.763 449.225 395.763 440.257V394.102C395.763 385.134 388.493 377.863 379.524 377.863Z" fill="#000F35"/>
<path d="M380.294 356.062C389.262 356.062 396.533 348.792 396.533 339.823C396.533 330.854 389.262 323.584 380.294 323.584C371.325 323.584 364.055 330.854 364.055 339.823C364.055 348.792 371.325 356.062 380.294 356.062Z" fill="#000F35"/>
</svg>
