<svg width="512" height="512" viewBox="0 0 512 512" fill="none" xmlns="http://www.w3.org/2000/svg">
<g clip-path="url(#clip0)">
<path d="M256 511.915C397.385 511.915 512 397.338 512 256C512 114.662 397.385 0.0849609 256 0.0849609C114.615 0.0849609 0 114.662 0 256C0 397.338 114.615 511.915 256 511.915Z" fill="#FFEB00"/>
<path d="M255.999 0.0849609C255.969 0.0849609 255.938 0.0859606 255.908 0.0859606V511.913C255.938 511.913 255.969 511.914 255.999 511.914C397.384 511.914 511.999 397.338 511.999 255.999C511.999 114.66 397.384 0.0849609 255.999 0.0849609V0.0849609Z" fill="#FFBB00"/>
<path d="M154.975 258.836C183.694 258.836 206.975 235.555 206.975 206.836C206.975 178.117 183.694 154.836 154.975 154.836C126.256 154.836 102.975 178.117 102.975 206.836C102.975 235.555 126.256 258.836 154.975 258.836Z" fill="#FFF4F4"/>
<path d="M327.144 220.019C361.662 220.019 389.645 192.036 389.645 157.518C389.645 122.999 361.662 95.0166 327.144 95.0166C292.625 95.0166 264.643 122.999 264.643 157.518C264.643 192.036 292.625 220.019 327.144 220.019Z" fill="#F1E1DB"/>
<path d="M154.975 221.83C163.256 221.83 169.97 215.117 169.97 206.836C169.97 198.555 163.256 191.841 154.975 191.841C146.694 191.841 139.98 198.555 139.98 206.836C139.98 215.117 146.694 221.83 154.975 221.83Z" fill="#132C63"/>
<path d="M327.145 172.513C335.426 172.513 342.139 165.799 342.139 157.518C342.139 149.237 335.426 142.523 327.145 142.523C318.864 142.523 312.15 149.237 312.15 157.518C312.15 165.799 318.864 172.513 327.145 172.513Z" fill="#000F35"/>
<path d="M254.942 435.609C284.69 435.609 302.739 381.14 311.205 391.882V348.603C311.205 317.895 286.311 293 255.603 293C224.895 293 200 317.894 200 348.603V391.471C208.206 380.715 225.568 435.609 254.942 435.609V435.609Z" fill="#FF001E"/>
<path d="M255.602 293.001C255.427 293.001 255.256 293.013 255.082 293.014V435.605C284.746 435.433 302.752 381.157 311.205 391.882V348.603C311.205 317.895 286.311 293.001 255.602 293.001V293.001Z" fill="#C30010"/>
<path d="M254.942 364.225C225.568 364.225 208.207 380.715 200 391.471V398.825C200 429.533 224.894 454.428 255.603 454.428C286.311 454.428 311.205 429.534 311.205 398.825V391.882C302.739 381.14 284.69 364.225 254.942 364.225V364.225Z" fill="#FF9AC9"/>
<path d="M255.082 364.225V454.412C255.256 454.414 255.428 454.425 255.602 454.425C286.31 454.425 311.204 429.531 311.204 398.822V391.88C302.752 381.154 284.746 364.278 255.082 364.225Z" fill="#FF5CA8"/>
<path d="M84.4396 299.163C72.2525 277.559 44.6229 269.646 22.8474 281.524C1.051 293.413 -7.22799 320.071 4.00057 342.216L16.8943 367.645C26.7655 387.113 31.983 408.942 31.983 430.769V496.654C31.983 504.934 38.6958 511.647 46.9757 511.647H109.155C117.435 511.647 124.147 504.934 124.147 496.654V414.083C124.147 384.951 116.582 356.142 102.27 330.771L84.4396 299.163Z" fill="#FFF69A"/>
<path d="M487.028 281.523C465.256 269.647 437.624 277.558 425.437 299.163L407.607 330.771C393.295 356.144 385.729 384.953 385.729 414.084V496.655C385.729 504.935 392.441 511.648 400.721 511.648H462.9C471.18 511.648 477.893 504.935 477.893 496.655V430.77C477.893 408.943 483.111 387.114 492.982 367.647L505.876 342.217C517.105 320.072 508.826 293.412 487.028 281.523V281.523Z" fill="#FFEB00"/>
</g>
<defs>
<clipPath id="clip0">
<rect width="512" height="512" fill="white"/>
</clipPath>
</defs>
</svg>
