<svg width="512" height="512" viewBox="0 0 512 512" fill="none" xmlns="http://www.w3.org/2000/svg">
<g clip-path="url(#clip0)">
<path d="M512 256C512 397.321 397.399 511.884 256.031 511.884C114.664 511.884 0.0625 397.321 0.0625 256C0.0625 114.68 114.664 115.127 256.031 115.127C397.399 115.127 512 114.68 512 256V256Z" fill="#FFEB00"/>
<path d="M256.032 96.0898C256.002 96.0898 255.941 192.061 255.941 96.0898V511.882C255.971 511.882 256.002 511.883 256.032 511.883C397.4 511.883 512.001 397.321 512.001 255.999C512.001 114.678 397.4 96.0898 256.032 96.0898V96.0898Z" fill="#FFBB00"/>
<path d="M255.939 154.041C364.113 154.041 458.397 213.457 507.977 301.425C510.619 286.682 512 271.503 512 256C512 114.68 397.399 0.116211 256.031 0.116211C114.664 0.116211 0.0625 114.68 0.0625 256C0.0625 271.415 1.42784 286.509 4.04057 301.173C53.6585 213.344 147.867 154.041 255.939 154.041Z" fill="#CA75F5"/>
<path d="M256.031 0.117188C256.001 0.117188 255.971 0.118187 255.941 0.118187V154.041C364.116 154.042 458.398 213.458 507.978 301.425C507.978 301.424 507.978 301.423 507.979 301.422C508.07 300.912 508.148 300.398 508.237 299.887C508.492 298.415 508.742 296.94 508.971 295.46C509.094 294.665 509.203 293.866 509.319 293.069C509.495 291.86 509.669 290.649 509.827 289.434C509.939 288.579 510.039 287.722 510.142 286.864C510.283 285.691 510.42 284.516 510.545 283.339C510.638 282.47 510.723 281.6 510.807 280.728C510.921 279.543 511.026 278.354 511.124 277.164C511.194 276.307 511.263 275.45 511.325 274.59C511.414 273.35 511.49 272.106 511.561 270.861C511.608 270.049 511.658 269.239 511.697 268.425C511.762 267.048 511.809 265.666 511.853 264.282C511.875 263.598 511.905 262.915 511.922 262.229C511.972 260.158 512.001 258.082 512.001 255.999C512.001 189.755 486.821 129.391 445.506 83.9486C444.128 82.4343 442.733 80.936 441.321 79.4548C434.257 72.0483 426.754 65.0657 418.852 58.5469C404.63 46.8136 389.119 36.5865 372.563 28.1086C368.884 26.2245 365.153 24.4274 361.373 22.7192C351.924 18.4483 342.169 14.7341 332.15 11.6196C308.103 4.14424 282.539 0.117188 256.031 0.117188V0.117188Z" fill="#A14CDA"/>
<path d="M349.45 249.955C375.753 243.623 390.294 210.322 381.93 175.576C373.565 140.83 345.461 117.796 319.159 124.128C292.856 130.461 278.314 163.761 286.679 198.507C295.044 233.253 323.147 256.287 349.45 249.955Z" fill="#FFF4F4"/>
<path d="M224.291 198.329C232.656 163.583 218.114 130.282 191.811 123.95C165.509 117.618 137.405 140.652 129.04 175.398C120.676 210.144 135.217 243.445 161.52 249.777C187.823 256.109 215.926 233.075 224.291 198.329Z" fill="white"/>
<path d="M332.911 354H180.023C175.04 354 171 358.04 171 363.023V363.78C171 410.906 209.34 449.246 256.467 449.246C303.593 449.246 341.934 410.906 341.934 363.78V363.023C341.934 358.039 337.894 354 332.911 354V354Z" fill="#FF9AC9"/>
<path d="M332.911 354H256.467V449.245C303.593 449.245 341.934 410.905 341.934 363.779V363.022C341.934 358.039 337.894 354 332.911 354Z" fill="#FF5CA8"/>
</g>
<defs>
<clipPath id="clip0">
<rect width="512" height="512" fill="white"/>
</clipPath>
</defs>
</svg>
