<svg width="512" height="512" viewBox="0 0 512 512" fill="none" xmlns="http://www.w3.org/2000/svg">
<g clip-path="url(#clip0)">
<path d="M448.193 347.502C462.754 335.657 472.061 317.603 472.061 297.368C472.061 261.69 443.138 232.766 407.46 232.765C416.964 221.516 422.703 206.984 422.703 191.105C422.703 155.425 393.779 126.501 358.099 126.501H346.197C337.231 126.501 329.962 119.232 329.962 110.265C329.962 68.8687 296.403 35.3101 255.007 35.3101H174.138C167.96 35.3101 164.849 42.6923 169.102 47.1756C179.458 58.0917 192.352 77.3215 196.857 108.018C198.288 117.773 190.635 126.501 180.775 126.501H155.516C119.837 126.501 90.9124 155.425 90.9124 191.105C90.9124 206.985 96.6524 221.518 106.158 232.768C70.5271 232.826 41.6599 261.725 41.6599 297.368C41.6599 317.591 50.9569 335.636 65.5031 347.482H64.6038C28.9242 347.482 0 376.406 0 412.086C0 447.766 28.9242 476.69 64.6038 476.69H447.396C483.076 476.69 512 447.766 512 412.086C512 376.674 483.503 347.931 448.193 347.502V347.502Z" fill="#B34F03"/>
<path d="M448.193 347.492C462.754 335.647 472.061 317.593 472.061 297.359C472.061 261.68 443.138 232.757 407.459 232.755C416.962 221.506 422.702 206.974 422.702 191.095C422.702 155.415 393.778 126.491 358.098 126.491H346.197C337.23 126.491 329.961 119.222 329.961 110.255C329.961 68.9899 296.613 35.5214 255.396 35.3101V476.68H447.395C483.075 476.68 511.999 447.756 511.999 412.076C511.999 376.664 483.503 347.921 448.193 347.492V347.492Z" fill="#933D02"/>
<path d="M404.885 173.001H233.082L182.209 217.863L183.431 173.001H104.367C94.1007 189.956 88.2769 204.114 84.1015 226.223C82.1083 236.775 82.8325 247.668 86.1735 257.872C88.6421 265.41 93.1976 272.139 99.46 276.985C104.22 280.669 109.765 283.303 115.775 284.553C116.303 284.662 116.835 284.762 117.369 284.851C119.606 285.226 115.064 284.851 117.369 284.851L156.63 261.35L166.706 285.418H203.628C216.008 285.418 227.197 278.02 232.079 266.607C240.44 247.067 268.073 247.118 276.361 266.689L276.529 267.086C281.386 278.555 292.604 286.001 305.025 286.001H387.532C387.985 286.001 388.438 285.993 388.889 285.977C403.501 285.468 416.42 276.272 422.325 262.854C426.579 253.043 427.964 242.219 426.339 231.646C422.715 208.07 415.973 191.312 404.885 173.001V173.001Z" fill="#132C63"/>
<path d="M407.974 178.177C406.168 174.988 402.813 173 399.163 173H255V251.992C263.86 252.122 272.656 257.018 276.742 266.689L276.909 267.085C281.754 278.554 292.944 286 305.333 286H387.631C388.084 286 388.535 285.992 388.985 285.976C403.56 285.467 416.447 276.272 422.337 262.853C426.58 253.043 427.962 242.219 426.341 231.645C423.069 210.306 417.25 194.553 407.974 178.177Z" fill="#000F35"/>
<path d="M166.462 285L233 173H183.228L117 284.468C119.168 284.816 121.376 285 123.608 285H166.462Z" fill="#FFF4F4"/>
<path d="M256.395 425.33C215.957 425.33 178.564 402.648 158.809 366.134C154.869 358.849 157.579 349.751 164.862 345.81C172.145 341.868 181.245 344.58 185.186 351.863C199.694 378.681 226.981 395.341 256.395 395.341C285.672 395.341 312.894 378.797 327.44 352.166C331.411 344.898 340.521 342.226 347.787 346.193C355.055 350.163 357.728 359.272 353.759 366.54C333.954 402.802 296.646 425.33 256.395 425.33V425.33Z" fill="#132C63"/>
<path d="M347.788 346.193C340.521 342.225 331.411 344.898 327.441 352.166C312.895 378.798 285.673 395.341 256.396 395.341C256.333 395.341 256.271 395.338 256.209 395.338V425.327C256.272 425.327 256.334 425.33 256.396 425.33C296.647 425.33 333.955 402.803 353.761 366.54C357.729 359.272 355.055 350.163 347.788 346.193Z" fill="#000F35"/>
</g>
<defs>
<clipPath id="clip0">
<rect width="512" height="512" fill="white"/>
</clipPath>
</defs>
</svg>
