<svg width="512" height="512" viewBox="0 0 512 512" fill="none" xmlns="http://www.w3.org/2000/svg">
<g clip-path="url(#clip0)">
<path d="M448.193 347.502C462.754 335.657 472.061 317.603 472.061 297.368C472.061 261.69 443.138 232.766 407.46 232.765C416.964 221.516 422.703 206.984 422.703 191.105C422.703 155.425 393.779 126.501 358.099 126.501H346.197C337.231 126.501 329.962 119.232 329.962 110.265C329.962 68.8687 296.403 35.3101 255.007 35.3101H174.138C167.96 35.3101 164.849 42.6923 169.102 47.1756C179.458 58.0917 192.352 77.3215 196.857 108.018C198.288 117.773 190.635 126.501 180.775 126.501H155.516C119.837 126.501 90.9124 155.425 90.9124 191.105C90.9124 206.985 96.6524 221.518 106.158 232.768C70.5271 232.826 41.6599 261.725 41.6599 297.368C41.6599 317.591 50.9569 335.636 65.5031 347.482H64.6038C28.9242 347.482 0 376.406 0 412.086C0 447.766 28.9242 476.69 64.6038 476.69H447.396C483.076 476.69 512 447.766 512 412.086C512 376.674 483.503 347.931 448.193 347.502V347.502Z" fill="#B34F03"/>
<path d="M448.193 347.492C462.754 335.647 472.061 317.593 472.061 297.359C472.061 261.68 443.138 232.757 407.459 232.755C416.962 221.506 422.702 206.974 422.702 191.095C422.702 155.415 393.778 126.491 358.098 126.491H346.197C337.23 126.491 329.961 119.222 329.961 110.255C329.961 68.9899 296.613 35.5214 255.396 35.3101V476.68H447.395C483.075 476.68 511.999 447.756 511.999 412.076C511.999 376.664 483.503 347.921 448.193 347.492V347.492Z" fill="#933D02"/>
<path d="M226.1 270.205C217.307 270.205 210.179 263.076 210.179 254.283C210.179 245.363 202.922 238.106 194.002 238.106C185.082 238.106 177.825 245.363 177.825 254.283C177.825 263.077 170.696 270.205 161.904 270.205C153.111 270.205 145.982 263.076 145.982 254.283C145.982 227.805 167.524 206.263 194.003 206.263C220.481 206.263 242.023 227.805 242.023 254.283C242.022 263.077 234.893 270.205 226.1 270.205Z" fill="#132C63"/>
<path d="M348.889 270.205C340.096 270.205 332.968 263.076 332.968 254.283C332.968 245.363 325.711 238.106 316.791 238.106C307.871 238.106 300.614 245.363 300.614 254.283C300.614 263.077 293.485 270.205 284.693 270.205C275.9 270.205 268.771 263.076 268.771 254.283C268.771 227.805 290.313 206.263 316.792 206.263C343.27 206.263 364.812 227.805 364.812 254.283C364.81 263.077 357.682 270.205 348.889 270.205V270.205Z" fill="#000F35"/>
<path d="M100.039 309.053C104.85 361.576 146.933 406.177 201.888 424.101L307.383 424.191C361.645 405.996 404.204 361.216 409.115 309.068C409.625 303.657 405.306 299.001 399.872 299.001H109.285C103.856 299 99.5439 303.646 100.039 309.053V309.053Z" fill="#FF001E"/>
<path d="M399.871 299H254.586V424.146L307.384 424.192C361.645 405.996 404.205 361.216 409.116 309.068C409.625 303.657 405.306 299 399.871 299Z" fill="#C30010"/>
<path d="M298.889 353.102H210.28C205.04 353.102 200.793 357.349 200.793 362.588V413.758V457.783C200.793 487.491 224.876 511.574 254.584 511.574C284.293 511.574 308.376 487.491 308.376 457.783V420.457V362.589C308.376 357.349 304.128 353.102 298.889 353.102V353.102Z" fill="#FF9AC9"/>
<path d="M298.889 353.102H254.586V511.573H254.617C284.31 511.555 308.375 487.48 308.375 457.783V362.588C308.375 357.349 304.128 353.102 298.889 353.102V353.102Z" fill="#FF5CA8"/>
</g>
<defs>
<clipPath id="clip0">
<rect width="512" height="512" fill="white"/>
</clipPath>
</defs>
</svg>
