<svg width="512" height="512" viewBox="0 0 512 512" fill="none" xmlns="http://www.w3.org/2000/svg">
<path d="M256 511.915C397.385 511.915 512 397.338 512 256C512 114.662 397.385 0.0849609 256 0.0849609C114.615 0.0849609 0 114.662 0 256C0 397.338 114.615 511.915 256 511.915Z" fill="#FFEB00"/>
<path d="M255.999 0.0849609C255.969 0.0849609 255.938 0.0859606 255.908 0.0859606V511.913C255.938 511.913 255.969 511.914 255.999 511.914C397.384 511.914 511.999 397.338 511.999 255.999C511.999 114.66 397.384 0.0849609 255.999 0.0849609V0.0849609Z" fill="#FFBB00"/>
<path d="M353.81 304.758H231.901V335.874C231.901 344.15 225.192 350.859 216.916 350.859C208.64 350.859 201.931 344.15 201.931 335.874V304.758H165.251C162.825 304.758 160.859 306.724 160.859 309.149C160.859 359.299 201.513 399.953 251.663 399.953H265.857C265.797 399.407 265.76 398.854 265.76 398.292V370.382C265.76 362.106 272.47 355.397 280.745 355.397C289.021 355.397 295.731 362.106 295.731 370.382V395.438C332.005 383.535 358.202 349.404 358.202 309.148C358.202 306.724 356.236 304.758 353.81 304.758V304.758Z" fill="#132C63"/>
<path d="M182.701 239.401C202.97 239.401 219.401 222.97 219.401 202.701C219.401 182.431 202.97 166 182.701 166C162.431 166 146 182.431 146 202.701C146 222.97 162.431 239.401 182.701 239.401Z" fill="#132C63"/>
<path d="M328.886 239.401C349.155 239.401 365.587 222.97 365.587 202.701C365.587 182.431 349.155 166 328.886 166C308.617 166 292.186 182.431 292.186 202.701C292.186 222.97 308.617 239.401 328.886 239.401Z" fill="#000F35"/>
<path d="M353.809 304.759H255.631V399.954H265.857C265.797 399.408 265.76 398.855 265.76 398.293V370.383C265.76 362.107 272.469 355.398 280.745 355.398C289.021 355.398 295.73 362.107 295.73 370.383V395.439C332.004 383.536 358.201 349.404 358.201 309.149C358.201 306.725 356.235 304.759 353.809 304.759V304.759Z" fill="#000F35"/>
</svg>
