<svg width="512" height="512" viewBox="0 0 512 512" fill="none" xmlns="http://www.w3.org/2000/svg">
<path d="M287.522 85.845H225.018V10.3789C225.018 4.78741 229.551 0.253906 235.143 0.253906H277.397C282.988 0.253906 287.522 4.78741 287.522 10.3789V85.845Z" fill="#41FF93"/>
<path d="M337.608 80.084H288.5V511.747H337.608C433.922 511.747 511.999 433.669 511.999 337.356V254.475C511.999 158.162 433.922 80.084 337.608 80.084V80.084Z" fill="#FF001E"/>
<path d="M181.959 80.084C81.4662 80.084 0 161.55 0 262.043V329.787C0 430.281 81.4662 511.747 181.959 511.747H223.499V80.084H181.959Z" fill="#FFBB00"/>
<path d="M305.468 511.747H215.388C143.34 511.747 84.9336 453.341 84.9336 381.292V210.539C84.9336 138.49 143.34 80.084 215.388 80.084H305.468C377.516 80.084 435.922 138.49 435.922 210.539V381.292C435.922 453.341 377.516 511.747 305.468 511.747Z" fill="#FF8700"/>
<path d="M277.704 0.253906H256.27V85.845H287.522V10.0712C287.522 4.64955 283.126 0.253906 277.704 0.253906V0.253906Z" fill="#00E2B4"/>
<path d="M309.965 80.084H256.27V511.747H309.965C379.529 511.747 435.922 455.354 435.922 385.79V206.041C435.922 136.477 379.529 80.084 309.965 80.084V80.084Z" fill="#FF641A"/>
<path d="M108.994 213.895C100.802 213.895 94.1089 207.306 94.0049 199.09C93.804 183.241 99.7868 168.262 110.853 156.912C121.919 145.563 136.74 139.202 152.59 139.001C152.655 139.001 152.72 139 152.784 139C160.976 139 167.669 145.589 167.773 153.805C167.877 162.085 161.25 168.883 152.969 168.988C136.786 169.193 123.787 182.526 123.992 198.71C124.096 206.99 117.469 213.789 109.188 213.894C109.123 213.895 109.058 213.895 108.994 213.895V213.895Z" fill="#132C63"/>
<path d="M410.665 212.774C402.473 212.774 395.779 206.185 395.675 197.969C395.473 181.912 382.343 168.989 366.332 168.989C366.205 168.989 366.08 168.989 365.954 168.991C365.889 168.991 365.824 168.992 365.76 168.992C357.568 168.992 350.875 162.403 350.771 154.187C350.667 145.907 357.293 139.11 365.574 139.004C381.439 138.828 396.404 144.787 407.752 155.852C419.102 166.917 425.463 181.739 425.664 197.588C425.768 205.868 419.141 212.667 410.86 212.772C410.794 212.774 410.73 212.774 410.665 212.774Z" fill="#000F35"/>
<path d="M173.677 312.052C195.172 312.052 212.598 294.632 212.598 273.144C212.598 251.656 195.172 234.236 173.677 234.236C152.181 234.236 134.756 251.656 134.756 273.144C134.756 294.632 152.181 312.052 173.677 312.052Z" fill="#132C63"/>
<path d="M365.989 312.052C387.485 312.052 404.91 294.632 404.91 273.144C404.91 251.656 387.485 234.236 365.989 234.236C344.494 234.236 327.068 251.656 327.068 273.144C327.068 294.632 344.494 312.052 365.989 312.052Z" fill="#000F35"/>
<path d="M256.353 450.706C279.192 450.706 297.706 432.192 297.706 409.353C297.706 386.514 279.192 368 256.353 368C233.514 368 215 386.514 215 409.353C215 432.192 233.514 450.706 256.353 450.706Z" fill="#132C63"/>
<path d="M257 368V450.705C279.838 450.704 298.351 432.191 298.351 409.353C298.351 386.515 279.838 368.001 257 368Z" fill="#000F35"/>
</svg>
