<svg width="512" height="512" viewBox="0 0 512 512" fill="none" xmlns="http://www.w3.org/2000/svg">
<path d="M287.522 85.845H225.018V10.3789C225.018 4.78741 229.551 0.253906 235.143 0.253906H277.397C282.988 0.253906 287.522 4.78741 287.522 10.3789V85.845Z" fill="#41FF93"/>
<path d="M337.608 80.084H288.5V511.747H337.608C433.922 511.747 511.999 433.669 511.999 337.356V254.475C511.999 158.162 433.922 80.084 337.608 80.084V80.084Z" fill="#FF001E"/>
<path d="M181.959 80.084C81.4662 80.084 0 161.55 0 262.043V329.787C0 430.281 81.4662 511.747 181.959 511.747H223.499V80.084H181.959Z" fill="#FFBB00"/>
<path d="M305.468 511.747H215.388C143.34 511.747 84.9336 453.341 84.9336 381.292V210.539C84.9336 138.49 143.34 80.084 215.388 80.084H305.468C377.516 80.084 435.922 138.49 435.922 210.539V381.292C435.922 453.341 377.516 511.747 305.468 511.747Z" fill="#FF8700"/>
<path d="M277.704 0.253906H256.27V85.845H287.522V10.0712C287.522 4.64955 283.126 0.253906 277.704 0.253906V0.253906Z" fill="#00E2B4"/>
<path d="M309.965 80.084H256.27V511.747H309.965C379.529 511.747 435.922 455.354 435.922 385.79V206.041C435.922 136.477 379.529 80.084 309.965 80.084V80.084Z" fill="#FF641A"/>
<path d="M104.994 224.895C96.8024 224.895 90.1089 218.306 90.0049 210.09C89.804 194.241 95.7868 179.262 106.853 167.912C117.919 156.563 132.74 150.202 148.59 150.001C148.655 150.001 148.72 150 148.784 150C156.976 150 163.669 156.589 163.773 164.805C163.877 173.085 157.25 179.883 148.969 179.988C132.786 180.193 119.787 193.526 119.992 209.71C120.096 217.99 113.469 224.789 105.188 224.894C105.123 224.895 105.058 224.895 104.994 224.895V224.895Z" fill="#132C63"/>
<path d="M406.665 223.774C398.473 223.774 391.779 217.185 391.675 208.969C391.473 192.912 378.343 179.989 362.332 179.989C362.205 179.989 362.08 179.989 361.954 179.991C361.889 179.991 361.824 179.992 361.76 179.992C353.568 179.992 346.875 173.403 346.771 165.187C346.667 156.907 353.293 150.11 361.574 150.004C377.439 149.828 392.404 155.787 403.752 166.852C415.102 177.917 421.463 192.739 421.664 208.588C421.768 216.868 415.141 223.667 406.86 223.772C406.794 223.774 406.73 223.774 406.665 223.774Z" fill="#000F35"/>
<path d="M256.353 450.706C279.192 450.706 297.706 432.192 297.706 409.353C297.706 386.514 279.192 368 256.353 368C233.514 368 215 386.514 215 409.353C215 432.192 233.514 450.706 256.353 450.706Z" fill="#132C63"/>
<path d="M257 368V450.705C279.838 450.704 298.351 432.191 298.351 409.353C298.351 386.515 279.838 368.001 257 368Z" fill="#000F35"/>
<path d="M405.885 235.001H234.082L183.209 279.863L184.431 235.001H105.367C95.1007 251.956 89.2769 266.114 85.1015 288.223C83.1083 298.775 83.8325 309.668 87.1735 319.872C89.6421 327.41 94.1976 334.139 100.46 338.985C105.22 342.669 110.765 345.303 116.775 346.553C117.303 346.662 117.835 346.762 118.369 346.851C120.606 347.226 116.064 346.851 118.369 346.851L157.63 323.35L167.706 347.418H204.628C217.008 347.418 228.197 340.02 233.079 328.607C241.44 309.067 269.073 309.118 277.361 328.689L277.529 329.086C282.386 340.555 293.604 348.001 306.025 348.001H388.532C388.985 348.001 389.438 347.993 389.889 347.977C404.501 347.468 417.42 338.272 423.325 324.854C427.579 315.043 428.964 304.219 427.339 293.646C423.715 270.07 416.973 253.312 405.885 235.001V235.001Z" fill="#132C63"/>
<path d="M408.974 240.177C407.168 236.988 403.813 235 400.163 235H256V313.992C264.86 314.122 273.656 319.018 277.742 328.689L277.909 329.085C282.754 340.554 293.944 348 306.333 348H388.631C389.084 348 389.535 347.992 389.985 347.976C404.56 347.467 417.447 338.272 423.337 324.853C427.58 315.043 428.962 304.219 427.341 293.645C424.069 272.306 418.25 256.553 408.974 240.177Z" fill="#000F35"/>
<path d="M167.462 347L234 235H184.228L118 346.468C120.168 346.816 122.376 347 124.608 347H167.462Z" fill="#FFF4F4"/>
</svg>
