<svg width="512" height="512" viewBox="0 0 512 512" fill="none" xmlns="http://www.w3.org/2000/svg">
<g clip-path="url(#clip0)">
<path d="M256 511.915C397.385 511.915 512 397.338 512 256C512 114.662 397.385 0.0849609 256 0.0849609C114.615 0.0849609 0 114.662 0 256C0 397.338 114.615 511.915 256 511.915Z" fill="#FFEB00"/>
<path d="M255.999 0.0849609C255.969 0.0849609 255.938 0.0859606 255.908 0.0859606V511.913C255.938 511.913 255.969 511.914 255.999 511.914C397.384 511.914 511.999 397.338 511.999 255.999C511.999 114.66 397.384 0.0849609 255.999 0.0849609V0.0849609Z" fill="#FFBB00"/>
<path d="M346.123 266.653C317.66 266.653 294.502 243.493 294.502 215.024C294.502 206.743 301.216 200.029 309.497 200.029C317.777 200.029 324.491 206.743 324.491 215.024C324.491 226.957 334.196 236.664 346.123 236.664C358.051 236.664 367.755 226.957 367.755 215.024C367.755 206.743 374.469 200.029 382.75 200.029C391.031 200.029 397.744 206.743 397.744 215.024C397.744 243.493 374.587 266.653 346.123 266.653Z" fill="#000F35"/>
<path d="M165.861 266.653C137.398 266.653 114.24 243.493 114.24 215.024C114.24 206.743 120.954 200.029 129.235 200.029C137.516 200.029 144.229 206.743 144.229 215.024C144.229 226.957 153.934 236.664 165.861 236.664C177.789 236.664 187.493 226.957 187.493 215.024C187.493 206.743 194.206 200.029 202.487 200.029C210.768 200.029 217.482 206.743 217.482 215.024C217.482 243.493 194.325 266.653 165.861 266.653Z" fill="#132C63"/>
<path d="M129.221 167.434C125.988 167.434 122.73 166.391 119.982 164.243C113.458 159.142 112.32 149.697 117.422 143.174C118.781 141.435 151.295 100.569 201.79 98.2229C210.067 97.846 217.08 104.233 217.464 112.506C217.848 120.779 211.454 127.795 203.181 128.18C166.659 129.877 141.266 161.37 141.013 161.688C138.061 165.463 133.666 167.434 129.221 167.434Z" fill="#132C63"/>
<path d="M382.76 167.405C378.319 167.405 373.924 165.442 370.967 161.682C370.532 161.139 345.191 129.871 308.801 128.179C300.529 127.794 294.135 120.777 294.518 112.505C294.902 104.233 301.921 97.8414 310.193 98.2222C360.688 100.568 393.203 141.435 394.561 143.173C399.662 149.697 398.509 159.12 391.985 164.221C389.245 166.366 385.99 167.405 382.76 167.405Z" fill="#000F35"/>
<path d="M446.926 512.322H64.3645C57.536 512.322 52 506.786 52 499.957V326.364C52 319.536 57.536 314 64.3645 314H446.926C453.754 314 459.29 319.536 459.29 326.364V499.957C459.29 506.786 453.754 512.322 446.926 512.322Z" fill="#FFF4F4"/>
<path d="M446.927 314H255.625V512.322H446.927C453.755 512.322 459.291 506.786 459.291 499.957V326.364C459.291 319.536 453.755 314 446.927 314Z" fill="#F1E1DB"/>
<path d="M304.468 399.832C313.436 399.832 320.707 392.562 320.707 383.593C320.707 374.625 313.436 367.354 304.468 367.354H303.797L303.776 363.67C303.723 354.733 296.465 347.525 287.54 347.525H287.443C278.474 347.577 271.248 354.891 271.3 363.858L271.32 367.353H239.841L239.85 365.257C239.888 356.288 232.65 348.988 223.681 348.949H223.61C214.674 348.949 207.411 356.174 207.372 365.118L207.362 367.352H206.823C197.854 367.352 190.584 374.623 190.584 383.591C190.584 392.56 197.854 399.83 206.823 399.83H207.224L207.116 425.188H206.824C197.855 425.188 190.585 432.459 190.585 441.427C190.585 450.396 197.855 457.666 206.824 457.666H206.978L206.963 461.187C206.925 470.156 214.163 477.456 223.132 477.495H223.203C232.139 477.495 239.402 470.27 239.441 461.326L239.457 457.667H271.846L271.867 461.352C271.92 470.289 279.179 477.496 288.104 477.496H288.201C297.169 477.443 304.396 470.131 304.344 461.163L304.324 457.668H304.468C313.436 457.668 320.707 450.398 320.707 441.429C320.707 432.461 313.436 425.19 304.468 425.19H304.134L303.986 399.832H304.468ZM271.656 425.19H239.594L239.702 399.832H271.508L271.656 425.19Z" fill="#132C63"/>
<path d="M129.358 344.584C120.39 344.584 113.119 351.854 113.119 360.823V406.977C113.119 415.946 120.39 423.216 129.358 423.216C138.327 423.216 145.597 415.946 145.597 406.977V360.823C145.597 351.854 138.327 344.584 129.358 344.584Z" fill="#132C63"/>
<path d="M128.589 477.496C137.557 477.496 144.828 470.225 144.828 461.257C144.828 452.288 137.557 445.018 128.589 445.018C119.62 445.018 112.35 452.288 112.35 461.257C112.35 470.225 119.62 477.496 128.589 477.496Z" fill="#132C63"/>
<path d="M379.524 398.863C370.556 398.863 363.285 406.134 363.285 415.102V461.257C363.285 470.225 370.556 477.496 379.524 477.496C388.493 477.496 395.763 470.225 395.763 461.257V415.102C395.763 406.134 388.493 398.863 379.524 398.863Z" fill="#000F35"/>
<path d="M380.294 377.062C389.262 377.062 396.533 369.792 396.533 360.823C396.533 351.854 389.262 344.584 380.294 344.584C371.325 344.584 364.055 351.854 364.055 360.823C364.055 369.792 371.325 377.062 380.294 377.062Z" fill="#000F35"/>
</g>
<defs>
<clipPath id="clip0">
<rect width="512" height="512" fill="white"/>
</clipPath>
</defs>
</svg>
