<svg width="512" height="512" viewBox="0 0 512 512" fill="none" xmlns="http://www.w3.org/2000/svg">
<path d="M157.889 60.2088C157.631 60.0825 131.997 47.0784 118.675 7.82315C117.483 4.31282 114.831 1.6086 111.512 0.518967C108.192 -0.570664 104.593 0.0829559 101.788 2.28207C101.07 2.84436 84.0913 16.3686 74.1421 42.9844C57.844 86.5831 72.4926 131.004 87.6512 160.591C89.4828 164.166 92.8871 166.48 96.6703 166.725C96.8914 166.739 97.1118 166.746 97.3307 166.746C100.873 166.746 104.218 164.913 106.303 161.791L162.265 78.0027C164.197 75.1094 164.826 71.4363 163.978 67.9919C163.131 64.5459 160.896 61.6908 157.889 60.2088V60.2088Z" fill="#A14CDA"/>
<path d="M436.857 42.9829C426.908 16.3672 409.93 2.84292 409.212 2.28064C406.406 0.0807258 402.803 -0.572894 399.487 0.517531C396.168 1.60716 393.517 4.31138 392.326 7.82171C379.174 46.5695 353.471 60.0414 352.444 60.5656C349.425 62.0555 347.187 64.9288 346.35 68.3915C345.512 71.8542 346.163 75.5392 348.123 78.4285L404.745 161.864C406.834 164.943 410.155 166.745 413.667 166.745C413.9 166.745 414.135 166.737 414.37 166.721C418.137 166.463 421.523 164.152 423.347 160.59C438.507 131.002 453.155 86.5825 436.857 42.9829V42.9829Z" fill="#6E3097"/>
<path d="M256 511.915C397.385 511.915 512 397.338 512 256C512 114.662 397.385 0.0849609 256 0.0849609C114.615 0.0849609 0 114.662 0 256C0 397.338 114.615 511.915 256 511.915Z" fill="#FFEB00"/>
<path d="M255.999 0.0849609C255.969 0.0849609 255.938 0.0859606 255.908 0.0859606V511.913C255.938 511.913 255.969 511.914 255.999 511.914C397.384 511.914 511.999 397.338 511.999 255.999C511.999 114.66 397.384 0.0849609 255.999 0.0849609V0.0849609Z" fill="#FFBB00"/>
<path d="M134.342 307.702C82.5857 307.702 40.6289 265.745 40.6289 213.989V163.59C40.6289 143.094 57.2439 126.479 77.7394 126.479H190.944C211.44 126.479 228.055 143.094 228.055 163.59V213.989C228.055 265.745 186.098 307.702 134.342 307.702V307.702Z" fill="#FFF4F4"/>
<path d="M228.05 217.268C226.193 217.268 224.305 216.92 222.474 216.186C214.788 213.104 211.055 204.375 214.138 196.688C218.561 185.659 232.343 166.994 255.945 166.994C279.518 166.994 293.352 185.631 297.811 196.643L270.012 207.896L270.077 208.052C269.881 207.6 265.177 196.983 255.944 196.983C246.742 196.983 242.014 207.741 241.97 207.85C239.624 213.706 233.996 217.268 228.05 217.268V217.268Z" fill="#132C63"/>
<path d="M377.684 307.702C325.927 307.702 283.971 265.745 283.971 213.989V163.59C283.971 143.094 300.586 126.479 321.081 126.479H434.286C454.782 126.479 471.397 143.094 471.397 163.59V213.989C471.397 265.745 429.44 307.702 377.684 307.702Z" fill="#F1E1DB"/>
<path d="M131.899 252.88C153.395 252.88 170.82 235.461 170.82 213.972C170.82 192.484 153.395 175.064 131.899 175.064C110.404 175.064 92.9785 192.484 92.9785 213.972C92.9785 235.461 110.404 252.88 131.899 252.88Z" fill="#132C63"/>
<path d="M377.683 252.88C399.178 252.88 416.603 235.461 416.603 213.972C416.603 192.484 399.178 175.064 377.683 175.064C356.187 175.064 338.762 192.484 338.762 213.972C338.762 235.461 356.187 252.88 377.683 252.88Z" fill="#000F35"/>
<path d="M255.944 166.994C255.932 166.994 255.92 166.995 255.908 166.995V196.984C255.92 196.984 255.932 196.983 255.944 196.983C265.176 196.983 269.88 207.6 270.077 208.052L270.012 207.896L297.811 196.643C293.352 185.63 279.518 166.994 255.944 166.994Z" fill="#000F35"/>
<path d="M134.342 322.696C74.4011 322.696 25.6348 273.929 25.6348 213.988V163.589C25.6348 134.859 49.0093 111.484 77.7398 111.484H190.945C219.675 111.484 243.05 134.859 243.05 163.589V213.988C243.05 273.93 194.283 322.696 134.342 322.696V322.696ZM77.7398 141.473C65.5453 141.473 55.6239 151.395 55.6239 163.589V213.988C55.6239 257.393 90.937 292.707 134.342 292.707C177.748 292.707 213.061 257.393 213.061 213.988V163.589C213.061 151.395 203.139 141.473 190.945 141.473H77.7398Z" fill="#033A7C"/>
<path d="M377.682 322.696C317.741 322.696 268.975 273.929 268.975 213.988V163.589C268.975 134.859 292.349 111.484 321.08 111.484H434.285C463.015 111.484 486.39 134.859 486.39 163.589V213.988C486.391 273.93 437.623 322.696 377.682 322.696ZM321.08 141.473C308.885 141.473 298.964 151.395 298.964 163.589V213.988C298.964 257.393 334.277 292.707 377.682 292.707C421.087 292.707 456.4 257.393 456.4 213.988V163.589C456.4 151.395 446.479 141.473 434.285 141.473H321.08Z" fill="#132C63"/>
<path d="M349.951 363H228.042V394.116C228.042 402.392 221.332 409.101 213.056 409.101C204.781 409.101 198.071 402.392 198.071 394.116V363H161.392C158.966 363 157 364.966 157 367.392C157 417.541 197.654 458.196 247.804 458.196H261.998C261.938 457.649 261.901 457.097 261.901 456.534V428.624C261.901 420.348 268.61 413.639 276.886 413.639C285.162 413.639 291.871 420.348 291.871 428.624V453.68C328.145 441.777 354.342 407.646 354.342 367.391C354.342 364.966 352.376 363 349.951 363V363Z" fill="#132C63"/>
<path d="M349.95 363H251.771V458.196H261.997C261.937 457.649 261.9 457.097 261.9 456.534V428.624C261.9 420.348 268.61 413.639 276.886 413.639C285.161 413.639 291.871 420.348 291.871 428.624V453.68C328.145 441.777 354.342 407.646 354.342 367.391C354.342 364.966 352.376 363 349.95 363V363Z" fill="#000F35"/>
</svg>
