<svg width="512" height="512" viewBox="0 0 512 512" fill="none" xmlns="http://www.w3.org/2000/svg">
<g clip-path="url(#clip0)">
<path d="M256.237 512C383.219 512 486.159 409.094 486.159 282.154C486.159 155.213 383.219 52.3076 256.237 52.3076C129.254 52.3076 26.3145 155.213 26.3145 282.154C26.3145 409.094 129.254 512 256.237 512Z" fill="#CA75F5"/>
<path d="M256.236 52.3086C256.209 52.3086 256.182 52.3095 256.154 52.3095V511.999C256.182 511.999 256.209 512 256.236 512C383.218 512 486.158 409.094 486.158 282.154C486.158 155.213 383.218 52.3086 256.236 52.3086V52.3086Z" fill="#A14CDA"/>
<path d="M203.855 237.195L174.177 205.538C168.6 199.589 159.257 199.287 153.309 204.865C147.36 210.442 147.059 219.785 152.636 225.733L159.645 233.21C148.272 239.855 140.627 252.18 140.627 266.299C140.627 287.457 157.785 304.608 178.95 304.608C200.114 304.608 217.272 287.456 217.272 266.299C217.272 254.648 212.063 244.221 203.855 237.195V237.195Z" fill="#132C63"/>
<path d="M308.632 237.195L338.31 205.538C343.887 199.589 353.23 199.287 359.178 204.865C365.127 210.442 365.428 219.785 359.851 225.733L352.842 233.21C364.215 239.855 371.86 252.18 371.86 266.299C371.86 287.457 354.702 304.608 333.537 304.608C312.373 304.608 295.215 287.456 295.215 266.299C295.215 254.648 300.424 244.221 308.632 237.195Z" fill="#000F35"/>
<path d="M389.064 355.693H122.975C116.943 355.693 112.285 360.936 112.917 366.935C114.368 380.697 118.456 393.805 124.738 405.889L256.108 431.223L387.303 405.889C393.585 393.805 397.672 380.698 399.124 366.935C399.755 360.936 395.097 355.693 389.064 355.693Z" fill="#FFF4F4"/>
<path d="M124.736 405.512C147.139 448.6 197.489 478.635 256.019 478.635C314.549 478.635 364.9 448.601 387.302 405.512H124.736Z" fill="#132C63"/>
<path d="M379.264 81.2763L374.142 62.1733L319.399 49.6177L366.669 34.3061L362.311 18.0513C359.459 7.42325 349.772 0 338.756 0H174.89C160.526 0 156.809 3.18954 152.801 12.7753L146.385 34.4022L196.499 51.0536L138.092 62.3587L132.765 80.3168C130.524 87.8694 134.83 95.809 142.383 98.0495C149.935 100.288 157.875 95.984 160.114 88.4304L198.29 118.669L305.467 128.129L351.709 88.6634C353.418 95.0358 359.18 99.2372 365.478 99.2372C366.701 99.2372 367.944 99.0784 369.181 98.7465C376.789 96.7086 381.305 88.8859 379.264 81.2763V81.2763Z" fill="#B34F03"/>
<path d="M492.662 108.75C479.468 76.8306 450.548 56.2061 418.985 56.2061C390.647 56.2061 372.039 63.964 356.479 73.7752C350.168 77.754 344.356 82.0695 338.603 86.345C318.498 101.288 299.507 115.403 256.364 115.403C213.311 115.403 194.32 101.289 174.214 86.345C168.474 82.079 162.675 77.773 156.38 73.8008C140.812 63.9774 122.196 56.2061 93.833 56.2061C62.2695 56.2061 33.3496 76.8306 20.1559 108.75C12.7526 126.661 11.0542 146.407 15.2451 165.853C19.358 184.937 28.7907 202.773 43.3024 218.983C45.9471 207.509 49.5084 196.387 53.881 185.681C40.6549 164.316 37.7859 140.78 46.5215 119.647C55.2875 98.4376 73.8589 84.7341 93.8321 84.7341C108.137 84.7341 118.93 87.1315 128.272 91.0961C138.777 95.5542 147.445 101.994 157.196 109.241C179.073 125.501 203.869 143.931 256.453 143.931C308.947 143.931 333.744 125.502 355.621 109.241C365.389 101.981 374.071 95.5304 384.601 91.0714C393.93 87.121 404.709 84.7341 418.984 84.7341C438.958 84.7341 457.528 98.4385 466.295 119.647C475.019 140.753 472.171 164.252 458.99 185.595C463.368 196.302 466.937 207.426 469.587 218.903C484.059 202.714 493.466 184.905 497.571 165.853C501.763 146.407 500.065 126.661 492.662 108.75V108.75Z" fill="#E56705"/>
<path d="M374.143 62.1742L319.399 49.6177L366.67 34.3061L362.312 18.0513C359.46 7.42325 349.773 0 338.756 0H256.377V123.797L305.468 128.129L351.709 88.6644C353.418 95.0368 359.181 99.2382 365.479 99.2382C366.701 99.2382 367.944 99.0793 369.182 98.7475C376.79 96.7067 381.306 88.884 379.266 81.2754L374.143 62.1742Z" fill="#933D02"/>
<path d="M418.986 56.2061C390.648 56.2061 372.04 63.964 356.48 73.7752C350.169 77.754 344.357 82.0695 338.604 86.3451C318.501 101.287 299.512 115.4 256.377 115.403V143.931C256.404 143.931 256.428 143.932 256.455 143.932C308.949 143.932 333.746 125.503 355.623 109.242C365.391 101.982 374.072 95.5314 384.603 91.0723C393.931 87.122 404.711 84.7351 418.986 84.7351C438.96 84.7351 457.53 98.4395 466.297 119.648C475.02 140.754 472.172 164.253 458.992 185.596C463.37 196.303 466.939 207.427 469.589 218.904C484.06 202.715 493.467 184.906 497.573 165.854C501.764 146.407 500.066 126.661 492.662 108.75C479.469 76.8306 450.549 56.2061 418.986 56.2061V56.2061Z" fill="#B34F03"/>
<path d="M146.432 34.4169L138.139 62.3735C156.491 63.9758 206.39 67.8025 264.412 67.8025C299.743 67.8025 338.089 66.3799 374.141 62.1738L366.668 34.3057C281.36 43.6584 181.345 37.2071 146.432 34.4169V34.4169Z" fill="#FFBE46"/>
<path d="M256.377 39.1623V67.7759C259.039 67.7921 261.714 67.8025 264.414 67.8025C299.745 67.8025 338.091 66.3799 374.143 62.1738L366.67 34.3057C330.522 38.2693 291.735 39.3943 256.377 39.1623V39.1623Z" fill="#E56705"/>
</g>
<defs>
<clipPath id="clip0">
<rect width="512" height="512" fill="white"/>
</clipPath>
</defs>
</svg>
