<svg width="512" height="512" viewBox="0 0 512 512" fill="none" xmlns="http://www.w3.org/2000/svg">
<path d="M256 511.915C397.385 511.915 512 397.338 512 256C512 114.662 397.385 0.0849609 256 0.0849609C114.615 0.0849609 0 114.662 0 256C0 397.338 114.615 511.915 256 511.915Z" fill="#FFEB00"/>
<path d="M255.999 0.0849609C255.969 0.0849609 255.938 0.0859606 255.908 0.0859606V511.913C255.938 511.913 255.969 511.914 255.999 511.914C397.384 511.914 511.999 397.338 511.999 255.999C511.999 114.66 397.384 0.0849609 255.999 0.0849609V0.0849609Z" fill="#FFBB00"/>
<path d="M105.069 184.408C96.8767 184.408 90.1831 177.82 90.0791 169.604C89.8782 153.755 95.861 138.776 106.927 127.426C117.993 116.076 132.815 109.716 148.664 109.515C148.729 109.515 148.794 109.514 148.858 109.514C157.05 109.514 163.743 116.102 163.847 124.318C163.951 132.598 157.325 139.397 149.044 139.502C132.861 139.707 119.861 153.04 120.066 169.224C120.17 177.504 113.544 184.303 105.263 184.407C105.198 184.408 105.133 184.408 105.069 184.408V184.408Z" fill="#132C63"/>
<path d="M406.739 183.288C398.547 183.288 391.854 176.699 391.75 168.483C391.547 152.426 378.418 139.503 362.406 139.503C362.279 139.503 362.154 139.503 362.028 139.505C361.963 139.505 361.899 139.506 361.835 139.506C353.643 139.506 346.949 132.917 346.845 124.701C346.741 116.421 353.368 109.623 361.649 109.517C377.513 109.342 392.478 115.3 403.826 126.365C415.176 137.43 421.537 152.253 421.738 168.102C421.842 176.382 415.215 183.181 406.934 183.286C406.868 183.288 406.804 183.288 406.739 183.288Z" fill="#000F35"/>
<path d="M159.751 279.566C181.246 279.566 198.672 262.146 198.672 240.658C198.672 219.17 181.246 201.75 159.751 201.75C138.256 201.75 120.83 219.17 120.83 240.658C120.83 262.146 138.256 279.566 159.751 279.566Z" fill="#132C63"/>
<path d="M352.063 279.566C373.559 279.566 390.984 262.146 390.984 240.658C390.984 219.17 373.559 201.75 352.063 201.75C330.568 201.75 313.143 219.17 313.143 240.658C313.143 262.146 330.568 279.566 352.063 279.566Z" fill="#000F35"/>
<path d="M275.582 395.247C274.923 395.247 274.26 395.234 273.591 395.21C257.326 394.601 241.314 386.763 224.361 378.466C202.782 367.905 180.467 356.985 157.403 360.734C149.226 362.064 141.526 356.513 140.196 348.34C138.868 340.166 144.417 332.462 152.591 331.134C185.077 325.855 214.17 340.09 237.544 351.53C273.955 369.352 283.731 371.231 296.193 348.754C300.208 341.511 309.335 338.896 316.577 342.909C323.821 346.925 326.437 356.051 322.422 363.294C310.663 384.505 294.911 395.247 275.582 395.247Z" fill="#132C63"/>
<path d="M316.577 342.908C309.335 338.894 300.208 341.51 296.192 348.753C285.657 367.755 277.038 369.348 252.625 358.618V390.938C259.629 393.34 266.587 394.947 273.589 395.21C274.258 395.234 274.921 395.247 275.581 395.247C294.91 395.247 310.661 384.506 322.42 363.293C326.436 356.05 323.82 346.924 316.577 342.908V342.908Z" fill="#000F35"/>
</svg>
