<svg width="512" height="512" viewBox="0 0 512 512" fill="none" xmlns="http://www.w3.org/2000/svg">
<path d="M256 511.915C397.385 511.915 512 397.338 512 256C512 114.662 397.385 0.0849609 256 0.0849609C114.615 0.0849609 0 114.662 0 256C0 397.338 114.615 511.915 256 511.915Z" fill="#FFEB00"/>
<path d="M255.999 0.0849609C255.969 0.0849609 255.938 0.0859606 255.908 0.0859606V511.913C255.938 511.913 255.969 511.914 255.999 511.914C397.384 511.914 511.999 397.338 511.999 255.999C511.999 114.66 397.384 0.0849609 255.999 0.0849609V0.0849609Z" fill="#FFBB00"/>
<path d="M346.123 266.653C317.66 266.653 294.502 243.493 294.502 215.024C294.502 206.743 301.216 200.029 309.497 200.029C317.777 200.029 324.491 206.743 324.491 215.024C324.491 226.957 334.196 236.664 346.123 236.664C358.051 236.664 367.755 226.957 367.755 215.024C367.755 206.743 374.469 200.029 382.75 200.029C391.031 200.029 397.744 206.743 397.744 215.024C397.744 243.493 374.587 266.653 346.123 266.653Z" fill="#000F35"/>
<path d="M165.861 266.653C137.398 266.653 114.24 243.493 114.24 215.024C114.24 206.743 120.954 200.029 129.235 200.029C137.516 200.029 144.229 206.743 144.229 215.024C144.229 226.957 153.934 236.664 165.861 236.664C177.789 236.664 187.493 226.957 187.493 215.024C187.493 206.743 194.206 200.029 202.487 200.029C210.768 200.029 217.482 206.743 217.482 215.024C217.482 243.493 194.325 266.653 165.861 266.653Z" fill="#132C63"/>
<path d="M129.221 167.434C125.988 167.434 122.73 166.391 119.982 164.243C113.458 159.142 112.32 149.697 117.422 143.174C118.781 141.435 151.295 100.569 201.79 98.2229C210.067 97.846 217.08 104.233 217.464 112.506C217.848 120.779 211.454 127.795 203.181 128.18C166.659 129.877 141.266 161.37 141.013 161.688C138.061 165.463 133.666 167.434 129.221 167.434Z" fill="#132C63"/>
<path d="M382.76 167.405C378.319 167.405 373.924 165.442 370.967 161.682C370.532 161.139 345.191 129.871 308.801 128.179C300.529 127.794 294.135 120.777 294.518 112.505C294.902 104.233 301.921 97.8414 310.193 98.2222C360.688 100.568 393.203 141.435 394.561 143.173C399.662 149.697 398.509 159.12 391.985 164.221C389.245 166.366 385.99 167.405 382.76 167.405Z" fill="#000F35"/>
<path d="M278.582 394.247C277.923 394.247 277.26 394.234 276.591 394.21C260.326 393.601 244.314 385.763 227.361 377.466C205.782 366.905 183.467 355.985 160.403 359.734C152.226 361.064 144.526 355.513 143.196 347.34C141.868 339.166 147.417 331.462 155.591 330.134C188.077 324.855 217.17 339.09 240.544 350.53C276.955 368.352 286.731 370.231 299.193 347.754C303.208 340.511 312.335 337.896 319.577 341.909C326.821 345.925 329.437 355.051 325.422 362.294C313.663 383.505 297.911 394.247 278.582 394.247Z" fill="#132C63"/>
<path d="M319.577 341.908C312.335 337.894 303.208 340.51 299.192 347.753C288.657 366.755 280.038 368.348 255.625 357.618V389.938C262.629 392.34 269.587 393.947 276.589 394.21C277.258 394.234 277.921 394.247 278.581 394.247C297.91 394.247 313.661 383.506 325.42 362.293C329.436 355.05 326.82 345.924 319.577 341.908V341.908Z" fill="#000F35"/>
</svg>
