<svg width="512" height="512" viewBox="0 0 512 512" fill="none" xmlns="http://www.w3.org/2000/svg">
<path d="M256 511.915C397.385 511.915 512 397.338 512 256C512 114.662 397.385 0.0849609 256 0.0849609C114.615 0.0849609 0 114.662 0 256C0 397.338 114.615 511.915 256 511.915Z" fill="#FF001E"/>
<path d="M255.999 0.0849609C255.969 0.0849609 255.938 0.0859606 255.908 0.0859606V511.913C255.938 511.913 255.969 511.914 255.999 511.914C397.384 511.914 511.999 397.338 511.999 255.999C511.999 114.66 397.384 0.0849609 255.999 0.0849609V0.0849609Z" fill="#C30010"/>
<path d="M195.257 156.902L164.063 123.628C158.201 117.375 148.381 117.057 142.129 122.92C135.876 128.782 135.559 138.603 141.421 144.854L148.789 152.713C136.835 159.698 128.799 172.653 128.799 187.493C128.799 209.732 146.833 227.759 169.079 227.759C191.325 227.759 209.36 209.731 209.36 187.493C209.359 175.247 203.885 164.287 195.257 156.902V156.902Z" fill="#132C63"/>
<path d="M316.542 156.902L347.736 123.628C353.598 117.375 363.418 117.057 369.67 122.92C375.923 128.782 376.24 138.603 370.378 144.854L363.01 152.713C374.964 159.698 383 172.653 383 187.493C383 209.732 364.966 227.759 342.72 227.759C320.474 227.759 302.439 209.731 302.439 187.493C302.439 175.247 307.914 164.287 316.542 156.902Z" fill="#000F35"/>
<path d="M415.126 256.099L93.7682 296.657C86.4829 297.577 81.6556 304.618 83.334 311.767C87.1836 328.167 94.1181 343.374 103.547 357.009L266.066 367.582L420.648 316.989C426.393 301.438 429.332 284.984 428.987 268.143C428.837 260.801 422.412 255.179 415.126 256.099V256.099Z" fill="#FFF4F4"/>
<path d="M415.125 256.099L254.854 276.326V366.851L266.065 367.581L420.648 316.988C426.393 301.437 429.332 284.983 428.987 268.142C428.836 260.801 422.411 255.179 415.125 256.099V256.099Z" fill="#F1E1DB"/>
<path d="M103.547 357.009C137.17 405.632 202.556 434.231 273.243 425.31C343.931 416.388 400.161 372.44 420.649 316.988L103.547 357.009Z" fill="#132C63"/>
<path d="M254.854 426.932C260.932 426.714 267.066 426.238 273.243 425.458C343.93 416.537 400.161 372.589 420.648 317.137L254.854 338.061V426.932Z" fill="#000F35"/>
<path d="M103.388 279.266L121.559 213.395C122.783 208.961 121.562 204.211 118.355 200.916C115.18 197.63 110.431 196.274 105.966 197.378L38.9783 213.936C31.5161 215.781 23.513 218.587 15.5449 226.556C-5.18162 247.283 -5.18162 281.006 15.5449 301.732C36.2713 322.458 69.9951 322.457 90.7205 301.732C96.8983 295.552 100.806 288.624 103.388 279.266V279.266Z" fill="#9BFCFF"/>
<path d="M121.558 213.395C122.782 208.962 121.561 204.211 118.354 200.917C118.025 200.576 117.674 200.261 117.313 199.962L15.543 301.732C36.2694 322.458 69.9932 322.457 90.7187 301.732C96.8984 295.552 100.806 288.625 103.387 279.267L121.558 213.395Z" fill="#00FAFF"/>
<path d="M407.742 250.726L389.469 184.487C388.239 180.028 389.466 175.252 392.692 171.938C395.885 168.634 400.66 167.27 405.15 168.38L472.511 185.031C480.015 186.886 488.063 189.708 496.076 197.721C516.917 218.562 516.918 252.475 496.076 273.316C475.234 294.158 441.322 294.158 420.48 273.316C414.267 267.102 410.338 260.135 407.742 250.726V250.726Z" fill="#00FAFF"/>
<path d="M389.469 184.487C388.24 180.028 389.466 175.252 392.692 171.938C393.023 171.595 393.375 171.278 393.739 170.979L496.076 273.316C475.235 294.158 441.322 294.158 420.481 273.316C414.267 267.103 410.337 260.135 407.741 250.726L389.469 184.487Z" fill="#17CDF5"/>
</svg>
