<svg width="512" height="512" viewBox="0 0 512 512" fill="none" xmlns="http://www.w3.org/2000/svg">
<path d="M256 511.915C397.385 511.915 512 397.338 512 256C512 114.662 397.385 0.0849609 256 0.0849609C114.615 0.0849609 0 114.662 0 256C0 397.338 114.615 511.915 256 511.915Z" fill="#FFEB00"/>
<path d="M255.999 0.0849609C255.969 0.0849609 255.938 0.0859606 255.908 0.0859606V511.913C255.938 511.913 255.969 511.914 255.999 511.914C397.384 511.914 511.999 397.338 511.999 255.999C511.999 114.66 397.384 0.0849609 255.999 0.0849609V0.0849609Z" fill="#FFBB00"/>
<path d="M395.8 299.617H116.016C109.673 299.617 104.775 305.13 105.439 311.438C106.965 325.908 111.263 339.691 117.869 352.396L256.001 379.034L393.948 352.396C400.553 339.691 404.851 325.909 406.377 311.438C407.041 305.13 402.143 299.617 395.8 299.617Z" fill="#FFF4F4"/>
<path d="M395.798 299.617H255.908V379.016L255.999 379.034L393.946 352.396C400.552 339.691 404.849 325.908 406.375 311.438C407.039 305.13 402.141 299.617 395.798 299.617V299.617Z" fill="#F1E1DB"/>
<path d="M117.867 352.396C141.423 397.701 194.364 429.283 255.907 429.283C317.45 429.283 370.391 397.702 393.947 352.396H117.867Z" fill="#132C63"/>
<path d="M255.908 429.282C317.45 429.281 370.391 397.7 393.946 352.395H255.908V429.282Z" fill="#000F35"/>
<path d="M195.458 153.179L164.264 119.905C158.402 113.653 148.582 113.335 142.33 119.198C136.077 125.059 135.761 134.88 141.622 141.132L148.99 148.991C137.036 155.975 129 168.931 129 183.77C129 206.009 147.034 224.037 169.28 224.037C191.526 224.037 209.561 206.008 209.561 183.77C209.56 171.525 204.086 160.565 195.458 153.179V153.179Z" fill="#132C63"/>
<path d="M316.744 153.179L347.937 119.905C353.799 113.653 363.619 113.335 369.871 119.198C376.124 125.059 376.441 134.88 370.579 141.132L363.212 148.991C375.165 155.975 383.201 168.931 383.201 183.77C383.201 206.009 365.167 224.037 342.921 224.037C320.675 224.037 302.641 206.008 302.641 183.77C302.641 171.525 308.116 160.565 316.744 153.179Z" fill="#000F35"/>
</svg>
