<svg width="512" height="512" viewBox="0 0 512 512" fill="none" xmlns="http://www.w3.org/2000/svg">
<g clip-path="url(#clip0)">
<path d="M287.504 85.5911H225V10.125C225 4.5335 229.534 0 235.125 0H277.379C282.97 0 287.504 4.5335 287.504 10.125V85.5911Z" fill="#41FF93"/>
<path d="M277.687 0H256.252V85.5911H287.504V9.81726C287.504 4.39564 283.108 0 277.687 0V0Z" fill="#00E2B4"/>
<path d="M123.562 75.8109C123.212 75.6519 88.4334 59.2779 70.3574 9.84995C68.7404 5.42995 65.1424 2.02495 60.6394 0.652947C56.1354 -0.719053 51.2514 0.103947 47.4454 2.87295C46.4714 3.58095 23.4354 20.6099 9.93635 54.1229C-12.1766 109.02 7.69835 164.952 28.2654 202.206C30.7504 206.708 35.3694 209.622 40.5024 209.93C40.8024 209.948 41.1014 209.956 41.3984 209.956C46.2044 209.956 50.7434 207.648 53.5714 203.718L129.5 98.2159C132.121 94.5729 132.975 89.9479 131.824 85.6109C130.675 81.2719 127.643 77.6769 123.562 75.8109V75.8109Z" fill="#A14CDA"/>
<path d="M502.064 54.1216C488.565 20.6086 465.529 3.57965 464.555 2.87165C460.748 0.101645 455.86 -0.721355 451.361 0.651645C446.858 2.02365 443.26 5.42864 441.644 9.84864C423.8 58.6376 388.927 75.6007 387.534 76.2607C383.437 78.1367 380.401 81.7546 379.265 86.1146C378.128 90.4746 379.012 95.1146 381.671 98.7526L458.494 203.81C461.329 207.687 465.835 209.956 470.6 209.956C470.916 209.956 471.235 209.946 471.553 209.926C476.665 209.601 481.258 206.691 483.734 202.206C504.302 164.951 524.177 109.02 502.064 54.1216V54.1216Z" fill="#6E3097"/>
<path d="M255.785 512.001C389.303 512.001 497.541 403.799 497.541 270.325C497.541 136.851 389.303 28.6494 255.785 28.6494C122.267 28.6494 14.0293 136.851 14.0293 270.325C14.0293 403.799 122.267 512.001 255.785 512.001Z" fill="#CA75F5"/>
<path d="M255.785 28.6504C255.756 28.6504 255.728 28.6514 255.699 28.6514V512C255.728 512 255.756 512.001 255.785 512.001C389.303 512.001 497.541 403.799 497.541 270.325C497.541 136.851 389.303 28.6504 255.785 28.6504V28.6504Z" fill="#A14CDA"/>
<path d="M182.701 226.401C202.97 226.401 219.401 209.97 219.401 189.701C219.401 169.431 202.97 153 182.701 153C162.431 153 146 169.431 146 189.701C146 209.97 162.431 226.401 182.701 226.401Z" fill="#132C63"/>
<path d="M328.886 226.401C349.155 226.401 365.587 209.97 365.587 189.701C365.587 169.431 349.155 153 328.886 153C308.617 153 292.186 169.431 292.186 189.701C292.186 209.97 308.617 226.401 328.886 226.401Z" fill="#000F35"/>
</g>
<defs>
<clipPath id="clip0">
<rect width="512" height="512" fill="white"/>
</clipPath>
</defs>
</svg>
