<svg width="512" height="512" viewBox="0 0 512 512" fill="none" xmlns="http://www.w3.org/2000/svg">
<path d="M123.316 75.8109C122.966 75.6519 88.1873 59.2779 70.1113 9.84995C68.4943 5.42995 64.8963 2.02495 60.3933 0.652947C55.8893 -0.719053 51.0053 0.103947 47.1993 2.87295C46.2253 3.58095 23.1893 20.6099 9.69026 54.1229C-12.4227 109.02 7.45226 164.952 28.0193 202.206C30.5043 206.708 35.1233 209.622 40.2563 209.93C40.5563 209.948 40.8553 209.956 41.1523 209.956C45.9583 209.956 50.4973 207.648 53.3253 203.718L129.254 98.2159C131.875 94.5729 132.729 89.9479 131.578 85.6109C130.429 81.2719 127.397 77.6769 123.316 75.8109V75.8109Z" fill="#A14CDA"/>
<path d="M501.818 54.1216C488.319 20.6086 465.283 3.57965 464.309 2.87165C460.502 0.101645 455.614 -0.721355 451.115 0.651645C446.612 2.02365 443.014 5.42864 441.398 9.84864C423.554 58.6376 388.681 75.6007 387.288 76.2607C383.191 78.1367 380.155 81.7546 379.019 86.1146C377.882 90.4746 378.766 95.1146 381.425 98.7526L458.248 203.81C461.083 207.687 465.589 209.956 470.354 209.956C470.67 209.956 470.989 209.946 471.307 209.926C476.419 209.601 481.012 206.691 483.488 202.206C504.056 164.951 523.931 109.02 501.818 54.1216V54.1216Z" fill="#6E3097"/>
<path d="M471.475 276.8H471.461C601.058 121.444 390.198 -60.5291 255.789 73.3519C109.297 -65.7811 -84.9781 133.84 40.1169 276.8C42.2639 279.045 171.847 414.49 229.111 474.344C243.665 489.557 267.913 489.559 282.468 474.347C339.189 415.062 466.58 281.915 471.475 276.8V276.8Z" fill="#FF001E"/>
<path d="M256.062 73.0918V485.755C265.672 485.684 275.258 481.888 282.467 474.354C339.189 415.069 466.58 281.922 471.475 276.807H471.461C600.97 121.556 390.484 -60.2712 256.062 73.0918V73.0918Z" fill="#C30010"/>
<path d="M355.653 235.911C385.452 235.911 409.608 211.754 409.608 181.956C409.608 152.157 385.452 128 355.653 128C325.854 128 301.697 152.157 301.697 181.956C301.697 211.754 325.854 235.911 355.653 235.911Z" fill="#000F35"/>
<path d="M155.956 235.911C185.754 235.911 209.911 211.754 209.911 181.956C209.911 152.157 185.754 128 155.956 128C126.157 128 102 152.157 102 181.956C102 211.754 126.157 235.911 155.956 235.911Z" fill="#132C63"/>
<path d="M290.157 375.238C285.896 375.238 281.664 373.434 278.693 369.929L256.083 343.246L233.474 369.929C228.113 376.257 218.636 377.04 212.31 371.678C205.982 366.318 205.199 356.842 210.56 350.513L244.626 310.309C247.479 306.942 251.669 305 256.082 305C260.495 305 264.685 306.941 267.539 310.309L301.606 350.513C306.966 356.84 306.184 366.317 299.856 371.678C297.037 374.07 293.588 375.238 290.157 375.238V375.238Z" fill="#132C63"/>
<path d="M267.54 310.309C264.687 306.942 260.497 305 256.084 305C256.021 305 255.959 305.01 255.895 305.01V343.467L256.084 343.245L278.693 369.929C281.664 373.433 285.896 375.237 290.158 375.237C293.587 375.237 297.036 374.069 299.857 371.677C306.185 366.317 306.968 356.84 301.607 350.512L267.54 310.309Z" fill="#000F35"/>
</svg>
