<svg width="512" height="512" viewBox="0 0 512 512" fill="none" xmlns="http://www.w3.org/2000/svg">
<g clip-path="url(#clip0)">
<path d="M123.316 75.8109C122.966 75.6519 88.1873 59.2779 70.1113 9.84995C68.4943 5.42995 64.8963 2.02495 60.3933 0.652947C55.8893 -0.719053 51.0053 0.103947 47.1993 2.87295C46.2253 3.58095 23.1893 20.6099 9.69026 54.1229C-12.4227 109.02 7.45226 164.952 28.0193 202.206C30.5043 206.708 35.1233 209.622 40.2563 209.93C40.5563 209.948 40.8553 209.956 41.1523 209.956C45.9583 209.956 50.4973 207.648 53.3253 203.718L129.254 98.2159C131.875 94.5729 132.729 89.9479 131.578 85.6109C130.429 81.2719 127.397 77.6769 123.316 75.8109V75.8109Z" fill="#A14CDA"/>
<path d="M501.818 54.1216C488.319 20.6086 465.283 3.57965 464.309 2.87165C460.502 0.101645 455.614 -0.721355 451.115 0.651645C446.612 2.02365 443.014 5.42864 441.398 9.84864C423.554 58.6376 388.681 75.6007 387.288 76.2607C383.191 78.1367 380.155 81.7546 379.019 86.1146C377.882 90.4746 378.766 95.1146 381.425 98.7526L458.248 203.81C461.083 207.687 465.589 209.956 470.354 209.956C470.67 209.956 470.989 209.946 471.307 209.926C476.419 209.601 481.012 206.691 483.488 202.206C504.056 164.951 523.931 109.02 501.818 54.1216V54.1216Z" fill="#6E3097"/>
<path d="M256 0C123.879 0 16.7734 107.105 16.7734 239.227V297.858C16.7734 328.395 41.5283 353.149 72.0645 353.149C97.3549 353.149 117.945 373.482 118.266 398.77L119.263 477.676C119.503 496.702 134.996 512.001 154.024 512.001H356.711C375.91 512.001 391.474 496.437 391.474 477.237V399.355C391.474 373.837 412.161 353.15 437.678 353.15H439.936C470.472 353.15 495.227 328.396 495.227 297.859V239.228C495.228 107.105 388.122 0 256 0V0Z" fill="#FFF4F4"/>
<path d="M256 0C255.622 0 255.247 0.0130141 254.869 0.0140152V512H356.71C375.91 512 391.473 496.436 391.473 477.236V399.354C391.473 373.836 412.16 353.149 437.678 353.149H439.935C470.471 353.149 495.226 328.395 495.226 297.858V239.227C495.228 107.105 388.122 0 256 0V0Z" fill="#E0D2CD"/>
<path d="M348.951 378H227.042V409.116C227.042 417.392 220.332 424.101 212.056 424.101C203.781 424.101 197.071 417.392 197.071 409.116V378H160.392C157.966 378 156 379.966 156 382.392C156 432.541 196.654 473.196 246.804 473.196H260.998C260.938 472.649 260.901 472.097 260.901 471.534V443.624C260.901 435.348 267.61 428.639 275.886 428.639C284.162 428.639 290.871 435.348 290.871 443.624V468.68C327.145 456.777 353.342 422.646 353.342 382.391C353.342 379.966 351.376 378 348.951 378V378Z" fill="#132C63"/>
<path d="M348.95 378H250.771V473.196H260.997C260.937 472.649 260.9 472.097 260.9 471.534V443.624C260.9 435.348 267.61 428.639 275.886 428.639C284.161 428.639 290.871 435.348 290.871 443.624V468.68C327.145 456.777 353.342 422.646 353.342 382.391C353.342 379.966 351.376 378 348.95 378V378Z" fill="#000F35"/>
<path d="M227.117 209.942C218.324 209.942 211.196 202.813 211.196 194.021C211.196 185.1 203.939 177.843 195.02 177.843C186.099 177.843 178.842 185.1 178.842 194.021C178.842 202.814 171.713 209.942 162.921 209.942C154.129 209.942 147 202.813 147 194.021C147 167.542 168.542 146 195.021 146C221.499 146 243.041 167.542 243.041 194.021C243.04 202.814 235.911 209.942 227.117 209.942Z" fill="#132C63"/>
<path d="M349.906 209.942C341.113 209.942 333.985 202.813 333.985 194.021C333.985 185.1 326.728 177.843 317.809 177.843C308.888 177.843 301.631 185.1 301.631 194.021C301.631 202.814 294.502 209.942 285.71 209.942C276.918 209.942 269.789 202.813 269.789 194.021C269.789 167.542 291.331 146 317.81 146C344.288 146 365.83 167.542 365.83 194.021C365.828 202.814 358.7 209.942 349.906 209.942V209.942Z" fill="#000F35"/>
</g>
<defs>
<clipPath id="clip0">
<rect width="512" height="512" fill="white"/>
</clipPath>
</defs>
</svg>
