<svg width="512" height="512" viewBox="0 0 512 512" fill="none" xmlns="http://www.w3.org/2000/svg">
<g clip-path="url(#clip0)">
<path d="M123.316 75.8109C122.966 75.6519 88.1873 59.2779 70.1113 9.84995C68.4943 5.42995 64.8963 2.02495 60.3933 0.652947C55.8893 -0.719053 51.0053 0.103947 47.1993 2.87295C46.2253 3.58095 23.1893 20.6099 9.69026 54.1229C-12.4227 109.02 7.45226 164.952 28.0193 202.206C30.5043 206.708 35.1233 209.622 40.2563 209.93C40.5563 209.948 40.8553 209.956 41.1523 209.956C45.9583 209.956 50.4973 207.648 53.3253 203.718L129.254 98.2159C131.875 94.5729 132.729 89.9479 131.578 85.6109C130.429 81.2719 127.397 77.6769 123.316 75.8109V75.8109Z" fill="#A14CDA"/>
<path d="M501.818 54.1216C488.319 20.6086 465.283 3.57965 464.309 2.87165C460.502 0.101645 455.614 -0.721355 451.115 0.651645C446.612 2.02365 443.014 5.42864 441.398 9.84864C423.554 58.6376 388.681 75.6007 387.288 76.2607C383.191 78.1367 380.155 81.7546 379.019 86.1146C377.882 90.4746 378.766 95.1146 381.425 98.7526L458.248 203.81C461.083 207.687 465.589 209.956 470.354 209.956C470.67 209.956 470.989 209.946 471.307 209.926C476.419 209.601 481.012 206.691 483.488 202.206C504.056 164.951 523.931 109.02 501.818 54.1216V54.1216Z" fill="#6E3097"/>
<path d="M256 0C123.879 0 16.7734 107.105 16.7734 239.227V297.858C16.7734 328.395 41.5283 353.149 72.0645 353.149C97.3549 353.149 117.945 373.482 118.266 398.77L119.263 477.676C119.503 496.702 134.996 512.001 154.024 512.001H356.711C375.91 512.001 391.474 496.437 391.474 477.237V399.355C391.474 373.837 412.161 353.15 437.678 353.15H439.936C470.472 353.15 495.227 328.396 495.227 297.859V239.228C495.228 107.105 388.122 0 256 0V0Z" fill="#FFF4F4"/>
<path d="M256 0C255.622 0 255.247 0.0130141 254.869 0.0140152V512H356.71C375.91 512 391.473 496.436 391.473 477.236V399.354C391.473 373.836 412.16 353.149 437.678 353.149H439.935C470.471 353.149 495.226 328.395 495.226 297.858V239.227C495.228 107.105 388.122 0 256 0V0Z" fill="#E0D2CD"/>
<path d="M374.919 389H136.08C130.666 389 126.484 393.706 127.052 399.091C128.354 411.443 132.023 423.209 137.662 434.055L255.579 456.795L373.338 434.055C378.977 423.209 382.645 411.444 383.948 399.091C384.515 393.706 380.334 389 374.919 389Z" fill="#FFF4F4"/>
<path d="M374.918 389H255.5V456.779L255.578 456.795L373.337 434.055C378.976 423.209 382.644 411.443 383.946 399.091C384.514 393.706 380.332 389 374.918 389V389Z" fill="#F1E1DB"/>
<path d="M137.66 434.055C157.768 472.73 202.962 499.69 255.499 499.69C308.035 499.69 353.229 472.731 373.337 434.055H137.66Z" fill="#132C63"/>
<path d="M255.5 499.689C308.035 499.688 353.228 472.729 373.337 434.054H255.5V499.689Z" fill="#000F35"/>
<path d="M410.114 152.001H232.317L179.669 198.279L180.935 152.001H99.1125C88.4879 169.491 82.461 184.096 78.1399 206.903C76.0772 217.788 76.8267 229.025 80.2843 239.55C82.8389 247.327 87.5533 254.268 94.0342 259.267C98.9598 263.067 104.698 265.784 110.918 267.073C111.465 267.187 112.015 267.29 112.568 267.382C114.883 267.768 110.183 267.382 112.568 267.382L153.198 243.138L163.626 267.966H201.836C214.647 267.966 226.227 260.335 231.28 248.562C239.932 228.404 268.529 228.457 277.106 248.646L277.28 249.055C282.306 260.886 293.916 268.568 306.77 268.568H392.155C392.624 268.568 393.093 268.559 393.56 268.543C408.681 268.018 422.051 258.532 428.162 244.69C432.564 234.57 433.998 223.404 432.316 212.497C428.565 188.177 421.588 170.89 410.114 152.001V152.001Z" fill="#132C63"/>
<path d="M413.259 157.341C411.385 154.051 407.904 152 404.118 152H254.549V233.486C263.741 233.62 272.867 238.671 277.106 248.647L277.279 249.056C282.306 260.886 293.916 268.568 306.77 268.568H392.153C392.623 268.568 393.092 268.56 393.558 268.543C408.68 268.018 422.05 258.532 428.16 244.69C432.562 234.57 433.997 223.404 432.315 212.497C428.92 190.484 422.883 174.233 413.259 157.341Z" fill="#000F35"/>
<path d="M163.628 267.966L232.319 152H180.936L112.564 267.415C114.803 267.776 117.083 267.966 119.387 267.966H163.628Z" fill="#FFF4F4"/>
</g>
<defs>
<clipPath id="clip0">
<rect width="512" height="512" fill="white"/>
</clipPath>
</defs>
</svg>
