<svg width="512" height="512" viewBox="0 0 512 512" fill="none" xmlns="http://www.w3.org/2000/svg">
<g clip-path="url(#clip0)">
<path d="M256 0C123.879 0 16.7734 107.105 16.7734 239.227V297.858C16.7734 328.395 41.5283 353.149 72.0645 353.149C97.3549 353.149 117.945 373.482 118.266 398.77L119.263 477.676C119.503 496.702 134.996 512.001 154.024 512.001H356.711C375.91 512.001 391.474 496.437 391.474 477.237V399.355C391.474 373.837 412.161 353.15 437.678 353.15H439.936C470.472 353.15 495.227 328.396 495.227 297.859V239.228C495.228 107.105 388.122 0 256 0V0Z" fill="#FFF4F4"/>
<path d="M256 0C255.622 0 255.247 0.0130141 254.869 0.0140152V512H356.71C375.91 512 391.473 496.436 391.473 477.236V399.354C391.473 373.836 412.16 353.149 437.678 353.149H439.935C470.471 353.149 495.226 328.395 495.226 297.858V239.227C495.228 107.105 388.122 0 256 0V0Z" fill="#E0D2CD"/>
<path d="M159.921 210.816C181.416 210.816 198.842 193.396 198.842 171.908C198.842 150.42 181.416 133 159.921 133C138.425 133 121 150.42 121 171.908C121 193.396 138.425 210.816 159.921 210.816Z" fill="#132C63"/>
<path d="M352.233 210.816C373.729 210.816 391.154 193.396 391.154 171.908C391.154 150.42 373.729 133 352.233 133C330.738 133 313.312 150.42 313.312 171.908C313.312 193.396 330.738 210.816 352.233 210.816Z" fill="#000F35"/>
<path d="M167.006 440.077C165.227 440.077 163.418 439.759 161.655 439.088C153.916 436.143 150.041 427.447 152.986 419.707C153.444 418.504 164.542 389.969 194.263 366.566C221.393 345.205 269.792 323.962 346.28 344.073C354.29 346.178 359.075 354.378 356.969 362.387C354.862 370.397 346.661 375.183 338.655 373.076C287.445 359.615 245.475 365.065 213.904 389.282C190.178 407.481 181.077 430.212 180.988 430.439C178.714 436.418 173.039 440.077 167.006 440.077V440.077Z" fill="#132C63"/>
<path d="M346.279 344.073C308.022 334.015 276.793 334.302 251.736 339.774V370.517C276.696 363.599 305.766 364.431 338.655 373.076C346.662 375.183 354.862 370.397 356.968 362.387C359.074 354.377 354.288 346.178 346.279 344.073V344.073Z" fill="#000F35"/>
</g>
<defs>
<clipPath id="clip0">
<rect width="512" height="512" fill="white"/>
</clipPath>
</defs>
</svg>
