<svg width="512" height="512" viewBox="0 0 512 512" fill="none" xmlns="http://www.w3.org/2000/svg">
<g clip-path="url(#clip0)">
<path d="M256 57.1312C247.717 57.1312 241.002 50.4162 241.002 42.1335V14.9977C241.002 6.71496 247.717 0 256 0C264.282 0 270.997 6.71496 270.997 14.9977V42.1335C270.997 50.4162 264.282 57.1312 256 57.1312Z" fill="#1428BF"/>
<path d="M256.271 0V57.1032C264.428 56.9572 270.998 50.3102 270.998 42.1195V14.9837C270.998 6.79295 264.428 0.145977 256.271 0V0Z" fill="#132C63"/>
<path d="M342.929 42.1338H169.067C161.057 42.1338 154.564 48.6268 154.564 56.6376V99.7609H357.433V56.6376C357.433 48.6268 350.939 42.1338 342.929 42.1338V42.1338Z" fill="#17CDF5"/>
<path d="M107.932 216.403H14.5418C6.53206 216.403 0.0390625 222.896 0.0390625 230.906V337.806C0.0390625 345.815 6.53206 352.308 14.5418 352.308H122.93L107.932 216.403Z" fill="#FF001E"/>
<path d="M497.457 216.403H357.868L352.539 352.309H497.457C505.466 352.309 511.959 345.816 511.959 337.807V230.907C511.959 222.897 505.466 216.403 497.457 216.403Z" fill="#C30010"/>
<path d="M411.302 84.7324H101.239C75.0845 84.7324 53.8828 105.934 53.8828 132.088V464.645C53.8828 490.799 75.0845 512 101.239 512H411.302C437.456 512 458.657 490.799 458.657 464.645V132.088C458.657 105.934 437.456 84.7324 411.302 84.7324V84.7324Z" fill="#76E2F8"/>
<path d="M342.931 42.1338H256.271V99.7609H357.435V56.6376C357.435 48.6268 350.941 42.1338 342.931 42.1338V42.1338Z" fill="#59A7FF"/>
<path d="M411.303 84.7324H256.271V512H411.304C437.458 512 458.659 490.799 458.659 464.645V132.088C458.658 105.934 437.457 84.7324 411.303 84.7324V84.7324Z" fill="#17CDF5"/>
<path d="M339.315 432.474L325.348 334.204H256.262L246.68 432.474H339.315Z" fill="#F1E1DB"/>
<path d="M339.316 334.204H325.348V432.474H339.314C366.451 432.474 388.449 410.475 388.449 383.34C388.45 356.203 366.451 334.204 339.316 334.204V334.204Z" fill="#E0D2CD"/>
<path d="M256.263 334.204H187.177V363.12L166.307 357.011L187.177 432.474H256.263V383.34V334.204Z" fill="#E0D2CD"/>
<path d="M177.681 334.205C150.544 334.205 128.547 356.204 128.547 383.34C128.547 410.476 150.545 432.474 177.681 432.474H187.178V334.204H177.681V334.205Z" fill="#FFF4F4"/>
<path d="M114.677 220.527H114.68C90.1277 186.718 130.076 147.116 155.54 176.252C183.293 145.973 220.099 189.415 196.4 220.527C195.993 221.016 171.443 250.492 160.595 263.517C157.837 266.828 153.243 266.828 150.486 263.518C139.738 250.615 115.604 221.64 114.677 220.527V220.527Z" fill="#FF001E"/>
<path d="M292.707 213.251H292.709C264.867 174.032 310.168 128.094 339.045 161.892C370.518 126.768 412.257 177.162 385.381 213.251C384.92 213.818 357.08 248.01 344.777 263.119C341.65 266.96 336.441 266.96 333.314 263.12C321.127 248.154 293.758 214.542 292.707 213.251Z" fill="#FF001E"/>
</g>
<defs>
<clipPath id="clip0">
<rect width="512" height="512" fill="white"/>
</clipPath>
</defs>
</svg>
