<svg width="512" height="512" viewBox="0 0 512 512" fill="none" xmlns="http://www.w3.org/2000/svg">
<g clip-path="url(#clip0)">
<path d="M256 57.1312C247.717 57.1312 241.002 50.4162 241.002 42.1335V14.9977C241.002 6.71496 247.717 0 256 0C264.282 0 270.997 6.71496 270.997 14.9977V42.1335C270.997 50.4162 264.282 57.1312 256 57.1312Z" fill="#1428BF"/>
<path d="M256.271 0V57.1032C264.428 56.9572 270.998 50.3102 270.998 42.1195V14.9837C270.998 6.79295 264.428 0.145977 256.271 0V0Z" fill="#132C63"/>
<path d="M342.929 42.1338H169.067C161.057 42.1338 154.564 48.6268 154.564 56.6376V99.7609H357.433V56.6376C357.433 48.6268 350.939 42.1338 342.929 42.1338V42.1338Z" fill="#17CDF5"/>
<path d="M107.932 216.403H14.5418C6.53206 216.403 0.0390625 222.896 0.0390625 230.906V337.806C0.0390625 345.815 6.53206 352.308 14.5418 352.308H122.93L107.932 216.403Z" fill="#FF001E"/>
<path d="M497.457 216.403H357.868L352.539 352.309H497.457C505.466 352.309 511.959 345.816 511.959 337.807V230.907C511.959 222.897 505.466 216.403 497.457 216.403Z" fill="#C30010"/>
<path d="M411.302 84.7324H101.239C75.0845 84.7324 53.8828 105.934 53.8828 132.088V464.645C53.8828 490.799 75.0845 512 101.239 512H411.302C437.456 512 458.657 490.799 458.657 464.645V132.088C458.657 105.934 437.456 84.7324 411.302 84.7324V84.7324Z" fill="#76E2F8"/>
<path d="M342.931 42.1338H256.271V99.7609H357.435V56.6376C357.435 48.6268 350.941 42.1338 342.931 42.1338V42.1338Z" fill="#59A7FF"/>
<path d="M411.303 84.7324H256.271V512H411.304C437.458 512 458.659 490.799 458.659 464.645V132.088C458.658 105.934 437.457 84.7324 411.303 84.7324V84.7324Z" fill="#17CDF5"/>
<path d="M337.539 258.938C357.771 258.938 374.173 242.536 374.173 222.303C374.173 202.071 357.771 185.669 337.539 185.669C317.306 185.669 300.904 202.071 300.904 222.303C300.904 242.536 317.306 258.938 337.539 258.938Z" fill="#FFF4F4"/>
<path d="M337.54 273.935C309.07 273.935 285.908 250.774 285.908 222.303C285.908 193.832 309.07 170.671 337.54 170.671C366.011 170.671 389.172 193.832 389.172 222.303C389.172 250.774 366.01 273.935 337.54 273.935ZM337.54 200.666C325.609 200.666 315.904 210.372 315.904 222.303C315.904 234.234 325.609 243.94 337.54 243.94C349.471 243.94 359.177 234.234 359.177 222.303C359.177 210.372 349.47 200.666 337.54 200.666V200.666Z" fill="#000F35"/>
<path d="M174.457 258.938C194.689 258.938 211.091 242.536 211.091 222.303C211.091 202.071 194.689 185.669 174.457 185.669C154.224 185.669 137.822 202.071 137.822 222.303C137.822 242.536 154.224 258.938 174.457 258.938Z" fill="white"/>
<path d="M174.456 273.935C145.986 273.935 122.824 250.774 122.824 222.303C122.824 193.832 145.986 170.671 174.456 170.671C202.927 170.671 226.088 193.832 226.088 222.303C226.088 250.774 202.927 273.935 174.456 273.935ZM174.456 200.666C162.525 200.666 152.82 210.372 152.82 222.303C152.82 234.234 162.525 243.94 174.456 243.94C186.387 243.94 196.093 234.234 196.093 222.303C196.093 210.372 186.387 200.666 174.456 200.666V200.666Z" fill="#132C63"/>
<path d="M163.006 456.077C161.227 456.077 159.418 455.759 157.655 455.088C149.916 452.143 146.041 443.447 148.986 435.707C149.444 434.504 160.542 405.969 190.263 382.566C217.393 361.205 265.792 339.962 342.28 360.073C350.29 362.178 355.075 370.378 352.969 378.387C350.862 386.397 342.661 391.183 334.655 389.076C283.445 375.615 241.475 381.065 209.904 405.282C186.178 423.481 177.077 446.212 176.988 446.439C174.714 452.418 169.039 456.077 163.006 456.077V456.077Z" fill="#132C63"/>
<path d="M342.279 360.073C304.022 350.015 272.793 350.302 247.736 355.774V386.517C272.696 379.599 301.766 380.431 334.655 389.076C342.662 391.183 350.862 386.397 352.968 378.387C355.074 370.377 350.288 362.178 342.279 360.073V360.073Z" fill="#000F35"/>
</g>
<defs>
<clipPath id="clip0">
<rect width="512" height="512" fill="white"/>
</clipPath>
</defs>
</svg>
