<svg width="512" height="512" viewBox="0 0 512 512" fill="none" xmlns="http://www.w3.org/2000/svg">
<g clip-path="url(#clip0)">
<path d="M256 57.1312C247.717 57.1312 241.002 50.4162 241.002 42.1335V14.9977C241.002 6.71496 247.717 0 256 0C264.282 0 270.997 6.71496 270.997 14.9977V42.1335C270.997 50.4162 264.282 57.1312 256 57.1312Z" fill="#1428BF"/>
<path d="M256.271 0V57.1032C264.428 56.9572 270.998 50.3102 270.998 42.1195V14.9837C270.998 6.79295 264.428 0.145977 256.271 0V0Z" fill="#132C63"/>
<path d="M342.929 42.1338H169.067C161.057 42.1338 154.564 48.6268 154.564 56.6376V99.7609H357.433V56.6376C357.433 48.6268 350.939 42.1338 342.929 42.1338V42.1338Z" fill="#17CDF5"/>
<path d="M107.932 216.403H14.5418C6.53206 216.403 0.0390625 222.896 0.0390625 230.906V337.806C0.0390625 345.815 6.53206 352.308 14.5418 352.308H122.93L107.932 216.403Z" fill="#FF001E"/>
<path d="M497.457 216.403H357.868L352.539 352.309H497.457C505.466 352.309 511.959 345.816 511.959 337.807V230.907C511.959 222.897 505.466 216.403 497.457 216.403Z" fill="#C30010"/>
<path d="M411.302 84.7324H101.239C75.0845 84.7324 53.8828 105.934 53.8828 132.088V464.645C53.8828 490.799 75.0845 512 101.239 512H411.302C437.456 512 458.657 490.799 458.657 464.645V132.088C458.657 105.934 437.456 84.7324 411.302 84.7324V84.7324Z" fill="#76E2F8"/>
<path d="M342.931 42.1338H256.271V99.7609H357.435V56.6376C357.435 48.6268 350.941 42.1338 342.931 42.1338V42.1338Z" fill="#59A7FF"/>
<path d="M411.303 84.7324H256.271V512H411.304C437.458 512 458.659 490.799 458.659 464.645V132.088C458.658 105.934 437.457 84.7324 411.303 84.7324V84.7324Z" fill="#17CDF5"/>
<path d="M337.539 258.938C357.771 258.938 374.173 242.536 374.173 222.303C374.173 202.071 357.771 185.669 337.539 185.669C317.306 185.669 300.904 202.071 300.904 222.303C300.904 242.536 317.306 258.938 337.539 258.938Z" fill="#FFF4F4"/>
<path d="M337.54 273.935C309.07 273.935 285.908 250.774 285.908 222.303C285.908 193.832 309.07 170.671 337.54 170.671C366.011 170.671 389.172 193.832 389.172 222.303C389.172 250.774 366.01 273.935 337.54 273.935ZM337.54 200.666C325.609 200.666 315.904 210.372 315.904 222.303C315.904 234.234 325.609 243.94 337.54 243.94C349.471 243.94 359.177 234.234 359.177 222.303C359.177 210.372 349.47 200.666 337.54 200.666V200.666Z" fill="#000F35"/>
<path d="M174.457 258.938C194.689 258.938 211.091 242.536 211.091 222.303C211.091 202.071 194.689 185.669 174.457 185.669C154.224 185.669 137.822 202.071 137.822 222.303C137.822 242.536 154.224 258.938 174.457 258.938Z" fill="white"/>
<path d="M174.456 273.935C145.986 273.935 122.824 250.774 122.824 222.303C122.824 193.832 145.986 170.671 174.456 170.671C202.927 170.671 226.088 193.832 226.088 222.303C226.088 250.774 202.927 273.935 174.456 273.935ZM174.456 200.666C162.525 200.666 152.82 210.372 152.82 222.303C152.82 234.234 162.525 243.94 174.456 243.94C186.387 243.94 196.093 234.234 196.093 222.303C196.093 210.372 186.387 200.666 174.456 200.666V200.666Z" fill="#132C63"/>
<path d="M415.57 480H97.287C91.6058 480 87 475.394 87 469.713V325.287C87 319.606 91.6058 315 97.287 315H415.57C421.252 315 425.857 319.606 425.857 325.287V469.713C425.857 475.394 421.252 480 415.57 480Z" fill="#FFF4F4"/>
<path d="M415.571 315H256.412V480H415.571C421.252 480 425.858 475.394 425.858 469.713V325.287C425.858 319.606 421.252 315 415.571 315Z" fill="#F1E1DB"/>
<path d="M297.048 386.411C304.51 386.411 310.558 380.362 310.558 372.9C310.558 365.439 304.51 359.39 297.048 359.39H296.49L296.472 356.324C296.428 348.889 290.389 342.893 282.964 342.893H282.883C275.422 342.936 269.409 349.02 269.453 356.481L269.469 359.389H243.28L243.287 357.645C243.319 350.183 237.297 344.109 229.835 344.077H229.776C222.341 344.077 216.298 350.088 216.266 357.529L216.258 359.388H215.809C208.348 359.388 202.299 365.437 202.299 372.899C202.299 380.361 208.348 386.409 215.809 386.409H216.143L216.053 407.507H215.81C208.348 407.507 202.3 413.555 202.3 421.017C202.3 428.479 208.348 434.528 215.81 434.528H215.938L215.926 437.457C215.894 444.919 221.916 450.992 229.378 451.025H229.437C236.872 451.025 242.915 445.014 242.947 437.573L242.96 434.529H269.908L269.925 437.594C269.969 445.029 276.008 451.026 283.433 451.026H283.514C290.976 450.982 296.988 444.898 296.945 437.437L296.928 434.529H297.048C304.51 434.529 310.558 428.481 310.558 421.019C310.558 413.557 304.51 407.508 297.048 407.508H296.77L296.647 386.411H297.048ZM269.749 407.508H243.074L243.164 386.411H269.626L269.749 407.508Z" fill="#132C63"/>
<path d="M151.36 340.445C143.898 340.445 137.85 346.494 137.85 353.956V392.355C137.85 399.817 143.898 405.866 151.36 405.866C158.822 405.866 164.871 399.817 164.871 392.355V353.956C164.871 346.494 158.822 340.445 151.36 340.445Z" fill="#132C63"/>
<path d="M150.72 451.025C158.181 451.025 164.23 444.976 164.23 437.515C164.23 430.053 158.181 424.004 150.72 424.004C143.258 424.004 137.209 430.053 137.209 437.515C137.209 444.976 143.258 451.025 150.72 451.025Z" fill="#132C63"/>
<path d="M359.493 385.604C352.031 385.604 345.982 391.653 345.982 399.115V437.515C345.982 444.976 352.031 451.025 359.493 451.025C366.955 451.025 373.004 444.976 373.004 437.515V399.115C373.004 391.653 366.955 385.604 359.493 385.604Z" fill="#000F35"/>
<path d="M360.134 367.467C367.595 367.467 373.644 361.418 373.644 353.956C373.644 346.494 367.595 340.445 360.134 340.445C352.672 340.445 346.623 346.494 346.623 353.956C346.623 361.418 352.672 367.467 360.134 367.467Z" fill="#000F35"/>
</g>
<defs>
<clipPath id="clip0">
<rect width="512" height="512" fill="white"/>
</clipPath>
</defs>
</svg>
