<svg width="512" height="512" viewBox="0 0 512 512" fill="none" xmlns="http://www.w3.org/2000/svg">
<g clip-path="url(#clip0)">
<path d="M256 57.1312C247.717 57.1312 241.002 50.4162 241.002 42.1335V14.9977C241.002 6.71496 247.717 0 256 0C264.282 0 270.997 6.71496 270.997 14.9977V42.1335C270.997 50.4162 264.282 57.1312 256 57.1312Z" fill="#1428BF"/>
<path d="M256.271 0V57.1032C264.428 56.9572 270.998 50.3102 270.998 42.1195V14.9837C270.998 6.79295 264.428 0.145977 256.271 0V0Z" fill="#132C63"/>
<path d="M342.929 42.1338H169.067C161.057 42.1338 154.564 48.6268 154.564 56.6376V99.7609H357.433V56.6376C357.433 48.6268 350.939 42.1338 342.929 42.1338V42.1338Z" fill="#17CDF5"/>
<path d="M107.932 216.403H14.5418C6.53206 216.403 0.0390625 222.896 0.0390625 230.906V337.806C0.0390625 345.815 6.53206 352.308 14.5418 352.308H122.93L107.932 216.403Z" fill="#FF001E"/>
<path d="M497.457 216.403H357.868L352.539 352.309H497.457C505.466 352.309 511.959 345.816 511.959 337.807V230.907C511.959 222.897 505.466 216.403 497.457 216.403Z" fill="#C30010"/>
<path d="M411.302 84.7324H101.239C75.0845 84.7324 53.8828 105.934 53.8828 132.088V464.645C53.8828 490.799 75.0845 512 101.239 512H411.302C437.456 512 458.657 490.799 458.657 464.645V132.088C458.657 105.934 437.456 84.7324 411.302 84.7324V84.7324Z" fill="#76E2F8"/>
<path d="M342.931 42.1338H256.271V99.7609H357.435V56.6376C357.435 48.6268 350.941 42.1338 342.931 42.1338V42.1338Z" fill="#59A7FF"/>
<path d="M411.303 84.7324H256.271V512H411.304C437.458 512 458.659 490.799 458.659 464.645V132.088C458.658 105.934 437.457 84.7324 411.303 84.7324V84.7324Z" fill="#17CDF5"/>
<path d="M211.248 249.616C202.967 249.616 196.253 242.902 196.253 234.621C196.253 222.694 186.55 212.989 174.621 212.989C162.693 212.989 152.989 222.694 152.989 234.621C152.989 242.902 146.276 249.616 137.995 249.616C129.714 249.616 123 242.902 123 234.621C123 206.158 146.157 183 174.621 183C203.086 183 226.242 206.158 226.242 234.621C226.242 242.902 219.529 249.616 211.248 249.616V249.616Z" fill="#132C63"/>
<path d="M377.248 249.616C368.967 249.616 362.253 242.902 362.253 234.621C362.253 222.694 352.55 212.989 340.621 212.989C328.693 212.989 318.989 222.694 318.989 234.621C318.989 242.902 312.276 249.616 303.995 249.616C295.714 249.616 289 242.902 289 234.621C289 206.158 312.157 183 340.621 183C369.086 183 392.242 206.158 392.242 234.621C392.242 242.902 385.529 249.616 377.248 249.616V249.616Z" fill="#000F35"/>
<path d="M101.039 308.053C105.85 360.576 147.933 405.177 202.888 423.101L308.383 423.191C362.645 404.996 405.204 360.216 410.115 308.068C410.625 302.657 406.306 298.001 400.872 298.001H110.285C104.856 298 100.544 302.646 101.039 308.053V308.053Z" fill="#FF001E"/>
<path d="M400.871 298H255.586V423.146L308.384 423.192C362.645 404.996 405.205 360.216 410.116 308.068C410.625 302.657 406.306 298 400.871 298Z" fill="#C30010"/>
<path d="M299.889 352.103H211.28C206.04 352.103 201.793 356.35 201.793 361.589V412.758V456.784C201.793 486.492 225.876 510.575 255.584 510.575C285.293 510.575 309.376 486.492 309.376 456.784V419.458V361.59C309.376 356.35 305.128 352.103 299.889 352.103V352.103Z" fill="#FF9AC9"/>
<path d="M299.889 352.103H255.586V510.574H255.617C285.31 510.556 309.375 486.481 309.375 456.784V361.589C309.375 356.35 305.128 352.103 299.889 352.103V352.103Z" fill="#FF5CA8"/>
</g>
<defs>
<clipPath id="clip0">
<rect width="512" height="512" fill="white"/>
</clipPath>
</defs>
</svg>
