<svg width="512" height="512" viewBox="0 0 512 512" fill="none" xmlns="http://www.w3.org/2000/svg">
<g clip-path="url(#clip0)">
<path d="M256 57.1312C247.717 57.1312 241.002 50.4162 241.002 42.1335V14.9977C241.002 6.71496 247.717 0 256 0C264.282 0 270.997 6.71496 270.997 14.9977V42.1335C270.997 50.4162 264.282 57.1312 256 57.1312Z" fill="#1428BF"/>
<path d="M256.271 0V57.1032C264.428 56.9572 270.998 50.3102 270.998 42.1195V14.9837C270.998 6.79295 264.428 0.145977 256.271 0V0Z" fill="#132C63"/>
<path d="M342.929 42.1338H169.067C161.057 42.1338 154.564 48.6268 154.564 56.6376V99.7609H357.433V56.6376C357.433 48.6268 350.939 42.1338 342.929 42.1338V42.1338Z" fill="#17CDF5"/>
<path d="M107.932 216.403H14.5418C6.53206 216.403 0.0390625 222.896 0.0390625 230.906V337.806C0.0390625 345.815 6.53206 352.308 14.5418 352.308H122.93L107.932 216.403Z" fill="#FF001E"/>
<path d="M497.457 216.403H357.868L352.539 352.309H497.457C505.466 352.309 511.959 345.816 511.959 337.807V230.907C511.959 222.897 505.466 216.403 497.457 216.403Z" fill="#C30010"/>
<path d="M411.302 84.7324H101.239C75.0845 84.7324 53.8828 105.934 53.8828 132.088V464.645C53.8828 490.799 75.0845 512 101.239 512H411.302C437.456 512 458.657 490.799 458.657 464.645V132.088C458.657 105.934 437.456 84.7324 411.302 84.7324V84.7324Z" fill="#76E2F8"/>
<path d="M342.931 42.1338H256.271V99.7609H357.435V56.6376C357.435 48.6268 350.941 42.1338 342.931 42.1338V42.1338Z" fill="#59A7FF"/>
<path d="M411.303 84.7324H256.271V512H411.304C437.458 512 458.659 490.799 458.659 464.645V132.088C458.658 105.934 437.457 84.7324 411.303 84.7324V84.7324Z" fill="#17CDF5"/>
<path d="M159.921 243.816C181.416 243.816 198.842 226.396 198.842 204.908C198.842 183.42 181.416 166 159.921 166C138.425 166 121 183.42 121 204.908C121 226.396 138.425 243.816 159.921 243.816Z" fill="#132C63"/>
<path d="M351.479 243.816C372.975 243.816 390.4 226.396 390.4 204.908C390.4 183.42 372.975 166 351.479 166C329.984 166 312.559 183.42 312.559 204.908C312.559 226.396 329.984 243.816 351.479 243.816Z" fill="#000F35"/>
<path d="M279.582 423.247C278.923 423.247 278.26 423.234 277.591 423.21C261.326 422.601 245.314 414.763 228.361 406.466C206.782 395.905 184.467 384.985 161.403 388.734C153.226 390.064 145.526 384.513 144.196 376.34C142.868 368.166 148.417 360.462 156.591 359.134C189.077 353.855 218.17 368.09 241.544 379.53C277.955 397.352 287.731 399.231 300.193 376.754C304.208 369.511 313.335 366.896 320.577 370.909C327.821 374.925 330.437 384.051 326.422 391.294C314.663 412.505 298.911 423.247 279.582 423.247Z" fill="#132C63"/>
<path d="M320.577 370.908C313.335 366.894 304.208 369.51 300.192 376.753C289.657 395.755 281.038 397.348 256.625 386.618V418.938C263.629 421.34 270.587 422.947 277.589 423.21C278.258 423.234 278.921 423.247 279.581 423.247C298.91 423.247 314.661 412.506 326.42 391.293C330.436 384.05 327.82 374.924 320.577 370.908Z" fill="#000F35"/>
</g>
<defs>
<clipPath id="clip0">
<rect width="512" height="512" fill="white"/>
</clipPath>
</defs>
</svg>
