<svg width="512" height="512" viewBox="0 0 512 512" fill="none" xmlns="http://www.w3.org/2000/svg">
<g clip-path="url(#clip0)">
<path d="M136.183 72.9666C135.864 72.822 104.225 57.9263 87.7813 12.9608C86.3103 8.93989 83.0372 5.8423 78.9407 4.59417C74.8434 3.34604 70.4003 4.09474 66.9379 6.61374C66.0519 7.25782 45.0956 22.7494 32.8154 53.2367C12.6988 103.177 30.7794 154.06 49.4896 187.95C51.7502 192.046 55.9522 194.697 60.6218 194.977C60.8947 194.993 61.1667 195 61.4369 195C65.809 195 69.9382 192.901 72.5108 189.326L141.585 93.3488C143.969 90.0347 144.746 85.8273 143.699 81.8818C142.654 77.9346 139.895 74.6641 136.183 72.9666V72.9666Z" fill="#A14CDA"/>
<path d="M480.511 53.2353C468.231 22.748 447.275 7.25646 446.389 6.61238C442.925 4.09247 438.479 3.34377 434.386 4.59281C430.289 5.84094 427.016 8.93852 425.546 12.9595C409.313 57.3436 377.589 72.7751 376.321 73.3755C372.594 75.0822 369.832 78.3735 368.799 82.3399C367.765 86.3062 368.569 90.5273 370.988 93.8369L440.875 189.409C443.454 192.936 447.553 195 451.888 195C452.175 195 452.466 194.991 452.755 194.973C457.405 194.677 461.584 192.03 463.836 187.95C482.547 154.058 500.628 103.177 480.511 53.2353V53.2353Z" fill="#6E3097"/>
<path d="M256 57.1312C247.717 57.1312 241.002 50.4162 241.002 42.1335V14.9977C241.002 6.71496 247.717 0 256 0C264.282 0 270.997 6.71496 270.997 14.9977V42.1335C270.997 50.4162 264.282 57.1312 256 57.1312Z" fill="#1428BF"/>
<path d="M256.271 0V57.1032C264.428 56.9572 270.998 50.3102 270.998 42.1195V14.9837C270.998 6.79295 264.428 0.145977 256.271 0V0Z" fill="#132C63"/>
<path d="M342.929 42.1338H169.067C161.057 42.1338 154.564 48.6268 154.564 56.6376V99.7609H357.433V56.6376C357.433 48.6268 350.939 42.1338 342.929 42.1338V42.1338Z" fill="#17CDF5"/>
<path d="M107.932 216.403H14.5418C6.53206 216.403 0.0390625 222.896 0.0390625 230.906V337.806C0.0390625 345.815 6.53206 352.308 14.5418 352.308H122.93L107.932 216.403Z" fill="#FF001E"/>
<path d="M497.457 216.403H357.868L352.539 352.309H497.457C505.466 352.309 511.959 345.816 511.959 337.807V230.907C511.959 222.897 505.466 216.403 497.457 216.403Z" fill="#C30010"/>
<path d="M411.302 84.7324H101.239C75.0845 84.7324 53.8828 105.934 53.8828 132.088V464.645C53.8828 490.799 75.0845 512 101.239 512H411.302C437.456 512 458.657 490.799 458.657 464.645V132.088C458.657 105.934 437.456 84.7324 411.302 84.7324V84.7324Z" fill="#76E2F8"/>
<path d="M342.931 42.1338H256.271V99.7609H357.435V56.6376C357.435 48.6268 350.941 42.1338 342.931 42.1338V42.1338Z" fill="#59A7FF"/>
<path d="M411.303 84.7324H256.271V512H411.304C437.458 512 458.659 490.799 458.659 464.645V132.088C458.658 105.934 437.457 84.7324 411.303 84.7324V84.7324Z" fill="#17CDF5"/>
<path d="M337.539 258.938C357.771 258.938 374.173 242.536 374.173 222.303C374.173 202.071 357.771 185.669 337.539 185.669C317.306 185.669 300.904 202.071 300.904 222.303C300.904 242.536 317.306 258.938 337.539 258.938Z" fill="#FFF4F4"/>
<path d="M337.54 273.935C309.07 273.935 285.908 250.774 285.908 222.303C285.908 193.832 309.07 170.671 337.54 170.671C366.011 170.671 389.172 193.832 389.172 222.303C389.172 250.774 366.01 273.935 337.54 273.935ZM337.54 200.666C325.609 200.666 315.904 210.372 315.904 222.303C315.904 234.234 325.609 243.94 337.54 243.94C349.471 243.94 359.177 234.234 359.177 222.303C359.177 210.372 349.47 200.666 337.54 200.666V200.666Z" fill="#000F35"/>
<path d="M174.457 258.938C194.689 258.938 211.091 242.536 211.091 222.303C211.091 202.071 194.689 185.669 174.457 185.669C154.224 185.669 137.822 202.071 137.822 222.303C137.822 242.536 154.224 258.938 174.457 258.938Z" fill="white"/>
<path d="M174.456 273.935C145.986 273.935 122.824 250.774 122.824 222.303C122.824 193.832 145.986 170.671 174.456 170.671C202.927 170.671 226.088 193.832 226.088 222.303C226.088 250.774 202.927 273.935 174.456 273.935ZM174.456 200.666C162.525 200.666 152.82 210.372 152.82 222.303C152.82 234.234 162.525 243.94 174.456 243.94C186.387 243.94 196.093 234.234 196.093 222.303C196.093 210.372 186.387 200.666 174.456 200.666V200.666Z" fill="#132C63"/>
<path d="M395.421 352H115.637C109.294 352 104.396 357.513 105.06 363.821C106.586 378.29 110.884 392.073 117.49 404.779L255.622 431.417L393.569 404.779C400.174 392.073 404.472 378.291 405.998 363.821C406.662 357.513 401.764 352 395.421 352Z" fill="#FFF4F4"/>
<path d="M395.419 352H255.529V431.399L255.62 431.417L393.567 404.779C400.173 392.073 404.47 378.29 405.996 363.821C406.66 357.513 401.762 352 395.419 352V352Z" fill="#F1E1DB"/>
<path d="M117.488 404.778C141.044 450.084 193.985 481.665 255.528 481.665C317.071 481.665 370.013 450.085 393.568 404.778H117.488Z" fill="#132C63"/>
<path d="M255.529 481.664C317.071 481.663 370.012 450.083 393.567 404.777H255.529V481.664Z" fill="#000F35"/>
</g>
<defs>
<clipPath id="clip0">
<rect width="512" height="512" fill="white"/>
</clipPath>
</defs>
</svg>
