<svg width="512" height="512" viewBox="0 0 512 512" fill="none" xmlns="http://www.w3.org/2000/svg">
<path d="M471.475 276.8H471.461C601.058 121.444 390.198 -60.5291 255.789 73.3519C109.297 -65.7811 -84.9781 133.84 40.1169 276.8C42.2639 279.045 171.847 414.49 229.111 474.344C243.665 489.557 267.913 489.559 282.468 474.347C339.189 415.062 466.58 281.915 471.475 276.8V276.8Z" fill="#FF001E"/>
<path d="M256.062 73.0918V485.755C265.672 485.684 275.258 481.888 282.467 474.354C339.189 415.069 466.58 281.922 471.475 276.807H471.461C600.97 121.556 390.484 -60.2712 256.062 73.0918V73.0918Z" fill="#C30010"/>
<path d="M399.795 108.091L397.479 99.9237C395.216 91.9453 386.916 87.3125 378.937 89.5759L358.039 95.5031C297.082 112.79 261.555 176.445 278.843 237.402L281.16 245.57C283.035 252.178 289.052 256.491 295.598 256.491C296.953 256.491 298.333 256.305 299.703 255.917L320.601 249.99C381.555 232.704 417.082 169.049 399.795 108.091V108.091Z" fill="#000F35"/>
<path d="M230.047 245.567L232.362 237.401C240.737 207.873 237.111 176.852 222.154 150.05C207.196 123.248 182.696 103.877 153.169 95.5028L132.271 89.5756C124.295 87.3072 115.99 91.9461 113.729 99.9234L111.412 108.092C103.037 137.62 106.663 168.641 121.621 195.443C136.578 222.245 161.078 241.616 190.606 249.99L211.505 255.917C212.85 256.299 214.228 256.487 215.602 256.487C218.14 256.487 220.663 255.842 222.92 254.583C226.397 252.643 228.961 249.399 230.047 245.567V245.567Z" fill="#132C63"/>
<path d="M273.07 332H239.016C230.723 332 224 338.723 224 347.016C224 355.308 230.723 362.031 239.016 362.031H273.07C281.363 362.031 288.086 355.308 288.086 347.016C288.086 338.723 281.363 332 273.07 332Z" fill="#132C63"/>
<path d="M273.07 332H256.043V362.031H273.07C281.362 362.031 288.085 355.308 288.085 347.016C288.085 338.723 281.362 332 273.07 332Z" fill="#000F35"/>
</svg>
