<svg width="512" height="512" viewBox="0 0 512 512" fill="none" xmlns="http://www.w3.org/2000/svg">
<path d="M471.475 276.8H471.461C601.058 121.444 390.198 -60.5291 255.789 73.3519C109.297 -65.7811 -84.9781 133.84 40.1169 276.8C42.2639 279.045 171.847 414.49 229.111 474.344C243.665 489.557 267.913 489.559 282.468 474.347C339.189 415.062 466.58 281.915 471.475 276.8V276.8Z" fill="#FF001E"/>
<path d="M256.062 73.0918V485.755C265.672 485.684 275.258 481.888 282.467 474.354C339.189 415.069 466.58 281.922 471.475 276.807H471.461C600.97 121.556 390.484 -60.2712 256.062 73.0918V73.0918Z" fill="#C30010"/>
<path d="M94.9945 192.895C86.8024 192.895 80.1089 186.306 80.0049 178.09C79.804 162.241 85.7868 147.262 96.8528 135.912C107.919 124.563 122.74 118.202 138.59 118.001C138.655 118.001 138.72 118 138.784 118C146.976 118 153.669 124.589 153.773 132.805C153.877 141.085 147.25 147.883 138.969 147.988C122.786 148.193 109.787 161.526 109.992 177.71C110.096 185.99 103.469 192.789 95.1884 192.894C95.1234 192.895 95.0584 192.895 94.9945 192.895V192.895Z" fill="#132C63"/>
<path d="M396.666 191.774C388.474 191.774 381.78 185.185 381.676 176.969C381.473 160.912 368.344 147.989 352.333 147.989C352.206 147.989 352.081 147.989 351.955 147.991C351.89 147.991 351.825 147.992 351.761 147.992C343.569 147.992 336.876 141.403 336.772 133.187C336.668 124.907 343.294 118.11 351.575 118.004C367.44 117.828 382.405 123.787 393.753 134.852C405.103 145.917 411.464 160.739 411.665 176.588C411.768 184.868 405.142 191.667 396.861 191.772C396.795 191.774 396.731 191.774 396.666 191.774Z" fill="#000F35"/>
<path d="M152.921 255.816C174.416 255.816 191.842 238.396 191.842 216.908C191.842 195.42 174.416 178 152.921 178C131.425 178 114 195.42 114 216.908C114 238.396 131.425 255.816 152.921 255.816Z" fill="#132C63"/>
<path d="M345.233 255.816C366.729 255.816 384.154 238.396 384.154 216.908C384.154 195.42 366.729 178 345.233 178C323.738 178 306.312 195.42 306.312 216.908C306.312 238.396 323.738 255.816 345.233 255.816Z" fill="#000F35"/>
<path d="M255.353 382.706C278.192 382.706 296.706 364.192 296.706 341.353C296.706 318.514 278.192 300 255.353 300C232.514 300 214 318.514 214 341.353C214 364.192 232.514 382.706 255.353 382.706Z" fill="#132C63"/>
<path d="M256 300V382.705C278.838 382.704 297.351 364.191 297.351 341.353C297.351 318.515 278.838 300.001 256 300Z" fill="#000F35"/>
</svg>
