<svg width="512" height="512" viewBox="0 0 512 512" fill="none" xmlns="http://www.w3.org/2000/svg">
<path d="M471.475 276.8H471.461C601.058 121.444 390.198 -60.5291 255.789 73.3519C109.297 -65.7811 -84.9781 133.84 40.1169 276.8C42.2639 279.045 171.847 414.49 229.111 474.344C243.665 489.557 267.913 489.559 282.468 474.347C339.189 415.062 466.58 281.915 471.475 276.8V276.8Z" fill="#FF001E"/>
<path d="M256.062 73.0918V485.755C265.672 485.684 275.258 481.888 282.467 474.354C339.189 415.069 466.58 281.922 471.475 276.807H471.461C600.97 121.556 390.484 -60.2712 256.062 73.0918V73.0918Z" fill="#C30010"/>
<path d="M369.06 213.156C366.516 213.156 363.937 212.508 361.576 211.144L293.886 172.064C289.247 169.386 286.389 164.435 286.389 159.078C286.389 153.721 289.247 148.771 293.886 146.093L361.576 107.012C368.748 102.873 377.918 105.327 382.059 112.5C386.2 119.672 383.743 128.842 376.571 132.983L331.372 159.078L376.571 185.174C383.743 189.314 386.2 198.485 382.059 205.656C379.281 210.467 374.241 213.156 369.06 213.156V213.156Z" fill="#000F35"/>
<path d="M146.849 213.155C141.665 213.155 136.626 210.466 133.849 205.656C129.709 198.485 132.166 189.314 139.337 185.174L184.536 159.078L139.337 132.983C132.166 128.842 129.709 119.671 133.849 112.5C137.989 105.328 147.159 102.871 154.332 107.012L222.022 146.093C226.662 148.771 229.519 153.721 229.519 159.078C229.519 164.435 226.662 169.385 222.022 172.063L154.332 211.144C151.971 212.508 149.393 213.155 146.849 213.155V213.155Z" fill="#132C63"/>
<path d="M363.509 376.248C358.732 376.248 354.036 373.971 351.129 369.734L328.285 336.43L305.752 369.281C303.019 373.594 298.25 376.246 293.088 376.246C287.979 376.246 283.251 373.649 280.503 369.415L257.557 335.962C252.509 340.395 244.916 341.011 239.142 337.018C232.331 332.309 230.626 322.969 235.337 316.157L245.545 301.392C248.345 297.342 252.955 294.926 257.878 294.926H257.906C262.84 294.935 267.453 297.37 270.243 301.438L293.083 334.734L315.921 301.438C318.717 297.362 323.343 294.926 328.286 294.926C333.229 294.926 337.854 297.363 340.651 301.438L375.861 352.77C380.546 359.599 378.806 368.932 371.977 373.616C369.385 375.396 366.432 376.248 363.509 376.248V376.248Z" fill="#000F35"/>
<path d="M231.694 234.421C209.172 246.491 159.255 267.038 93.4032 257.344C86.4977 254.697 78.8585 253.532 70.8614 254.293C47.048 256.558 28.0469 275.909 26.2286 299.762C24.6971 319.842 35.1383 337.636 51.1585 346.761C54.7322 348.796 54.9322 353.88 51.5834 356.268C35.1833 367.964 24.8261 387.585 26.1066 409.541C27.918 440.599 53.3767 465.536 84.4644 466.755C107.403 467.654 127.65 455.858 138.771 437.829C141.129 434.006 146.733 434.313 148.711 438.346C156.778 454.796 173.683 466.122 193.242 466.122C212.588 466.122 229.334 455.037 237.506 438.878L237.716 439.118C269.756 369.429 255.984 278.402 248.518 242.25C246.951 234.664 238.522 230.762 231.694 234.421Z" fill="#FFF4F4"/>
<path d="M138.771 437.83C141.13 434.007 146.734 434.314 148.712 438.347C156.779 454.797 173.684 466.123 193.243 466.123C212.588 466.123 229.334 455.038 237.507 438.879L237.716 439.119C269.757 369.43 255.985 278.403 248.519 242.251C248.007 239.774 246.756 237.7 245.076 236.144L45.1914 450.167C55.5746 459.951 69.3486 466.162 84.4651 466.755C107.404 467.654 127.65 455.858 138.771 437.83V437.83Z" fill="#F1E1DB"/>
</svg>
