<svg width="512" height="512" viewBox="0 0 512 512" fill="none" xmlns="http://www.w3.org/2000/svg">
<path d="M471.475 276.8H471.461C601.058 121.444 390.198 -60.5291 255.789 73.3519C109.297 -65.7811 -84.9781 133.84 40.1169 276.8C42.2639 279.045 171.847 414.49 229.111 474.344C243.665 489.557 267.913 489.559 282.468 474.347C339.189 415.062 466.58 281.915 471.475 276.8V276.8Z" fill="#FF001E"/>
<path d="M256.062 73.0918V485.755C265.672 485.684 275.258 481.888 282.467 474.354C339.189 415.069 466.58 281.922 471.475 276.807H471.461C600.97 121.556 390.484 -60.2712 256.062 73.0918V73.0918Z" fill="#C30010"/>
<path d="M200.011 177.116C208.302 177.116 215.023 170.395 215.023 162.104C215.023 153.814 208.302 147.093 200.011 147.093C191.721 147.093 185 153.814 185 162.104C185 170.395 191.721 177.116 200.011 177.116Z" fill="#132C63"/>
<path d="M318.82 197.347C339.071 197.347 355.488 180.93 355.488 160.679C355.488 140.428 339.071 124.011 318.82 124.011C298.569 124.011 282.152 140.428 282.152 160.679C282.152 180.93 298.569 197.347 318.82 197.347Z" fill="#9BFCFF"/>
<path d="M318.82 212.358C290.323 212.358 267.141 189.175 267.141 160.679C267.141 132.183 290.323 109 318.82 109C347.316 109 370.498 132.183 370.498 160.679C370.498 189.175 347.316 212.358 318.82 212.358ZM318.82 139.023C306.878 139.023 297.163 148.737 297.163 160.679C297.163 172.62 306.878 182.335 318.82 182.335C330.761 182.335 340.475 172.62 340.475 160.679C340.475 148.737 330.761 139.023 318.82 139.023V139.023Z" fill="#000F35"/>
<path d="M297.365 238.497H215.023C206.733 238.497 200.012 245.218 200.012 253.508V299.701C200.012 330.679 225.216 355.883 256.195 355.883C287.174 355.883 312.377 330.679 312.377 299.701V253.508C312.376 245.217 305.655 238.497 297.365 238.497V238.497Z" fill="#FF9AC9"/>
<path d="M297.367 238.497H256.195V355.883H256.196C287.175 355.883 312.378 330.679 312.378 299.701V253.508C312.378 245.217 305.657 238.497 297.367 238.497V238.497Z" fill="#FF5CA8"/>
</svg>
