<svg width="512" height="512" viewBox="0 0 512 512" fill="none" xmlns="http://www.w3.org/2000/svg">
<g clip-path="url(#clip0)">
<path d="M483.784 109.204C468.227 109.204 455.61 121.811 455.599 137.369L455.589 152.09C455.578 167.649 442.962 180.255 427.404 180.255H413.739L413.777 289.28C481.477 289.28 511.968 234.398 511.968 166.699V137.39C511.97 121.824 499.351 109.204 483.784 109.204V109.204Z" fill="#E0D2CD"/>
<path d="M84.5955 180.255C69.0367 180.255 56.4211 167.649 56.4101 152.09L56.4001 137.369C56.3891 121.811 43.7735 109.204 28.2147 109.204C12.6489 109.204 0.0292969 121.823 0.0292969 137.39V166.699C0.0292969 234.398 33.5918 289.28 101.291 289.28V180.255H84.5955Z" fill="#F2E9E7"/>
<path d="M257.552 0C163.125 0 86.3047 76.8214 86.3047 171.247V456.157C86.3047 470.732 94.2437 484.142 107.022 491.153C119.802 498.162 135.378 497.653 147.67 489.82L147.778 489.751C150.988 487.705 155.144 487.693 158.367 489.725L184.028 505.892C196.954 514.039 213.658 514.037 226.584 505.893L252.321 489.678C255.523 487.658 259.664 487.659 262.869 489.677L288.603 505.892C295.067 509.965 302.474 512.002 309.884 512.001C317.29 512.001 324.7 509.964 331.162 505.892L356.811 489.732C360.036 487.701 364.196 487.713 367.408 489.762C379.7 497.609 395.28 498.128 408.068 491.119C420.856 484.111 428.8 470.699 428.8 456.116V171.247C428.799 76.8214 351.978 0 257.552 0V0Z" fill="#FFF4F4"/>
<path d="M262.869 489.676L288.603 505.891C295.067 509.964 302.474 512.001 309.884 512C317.29 512 324.7 509.963 331.162 505.891L356.811 489.731C360.036 487.7 364.196 487.712 367.408 489.761C379.7 497.608 395.28 498.127 408.068 491.118C420.856 484.11 428.8 470.698 428.8 456.115V171.247C428.799 76.8214 351.977 0 257.552 0V488.166C259.402 488.158 261.255 488.659 262.869 489.676Z" fill="#F2E9E7"/>
<path d="M339.542 172.266C359.774 172.266 376.176 155.864 376.176 135.632C376.176 115.399 359.774 98.9976 339.542 98.9976C319.309 98.9976 302.907 115.399 302.907 135.632C302.907 155.864 319.309 172.266 339.542 172.266Z" fill="#FFF4F4"/>
<path d="M339.542 187.264C311.072 187.264 287.91 164.103 287.91 135.632C287.91 107.161 311.072 84 339.542 84C368.013 84 391.174 107.161 391.174 135.632C391.174 164.103 368.012 187.264 339.542 187.264ZM339.542 113.995C327.611 113.995 317.906 123.701 317.906 135.632C317.906 147.563 327.611 157.269 339.542 157.269C351.473 157.269 361.179 147.563 361.179 135.632C361.179 123.701 351.472 113.995 339.542 113.995V113.995Z" fill="#000F35"/>
<path d="M176.459 172.266C196.691 172.266 213.093 155.864 213.093 135.632C213.093 115.399 196.691 98.9976 176.459 98.9976C156.226 98.9976 139.824 115.399 139.824 135.632C139.824 155.864 156.226 172.266 176.459 172.266Z" fill="white"/>
<path d="M176.458 187.264C147.988 187.264 124.826 164.103 124.826 135.632C124.826 107.161 147.988 84 176.458 84C204.929 84 228.09 107.161 228.09 135.632C228.09 164.103 204.929 187.264 176.458 187.264ZM176.458 113.995C164.527 113.995 154.822 123.701 154.822 135.632C154.822 147.563 164.527 157.269 176.458 157.269C188.389 157.269 198.095 147.563 198.095 135.632C198.095 123.701 188.389 113.995 176.458 113.995V113.995Z" fill="#132C63"/>
<path d="M417.57 393.33H99.287C93.6058 393.33 89 388.724 89 383.043V238.617C89 232.935 93.6058 228.33 99.287 228.33H417.57C423.252 228.33 427.857 232.935 427.857 238.617V383.043C427.857 388.724 423.252 393.33 417.57 393.33Z" fill="#FFF4F4"/>
<path d="M417.571 228.33H258.412V393.33H417.571C423.252 393.33 427.858 388.724 427.858 383.043V238.617C427.858 232.935 423.252 228.33 417.571 228.33Z" fill="#F1E1DB"/>
<path d="M299.048 299.741C306.51 299.741 312.558 293.692 312.558 286.23C312.558 278.768 306.51 272.719 299.048 272.719H298.49L298.472 269.654C298.428 262.219 292.389 256.222 284.964 256.222H284.883C277.422 256.265 271.409 262.35 271.453 269.811L271.469 272.719H245.28L245.287 270.974C245.319 263.513 239.297 257.439 231.835 257.406H231.776C224.341 257.406 218.298 263.418 218.266 270.859L218.258 272.718H217.809C210.348 272.718 204.299 278.766 204.299 286.228C204.299 293.69 210.348 299.739 217.809 299.739H218.143L218.053 320.836H217.81C210.348 320.836 204.3 326.885 204.3 334.347C204.3 341.809 210.348 347.857 217.81 347.857H217.938L217.926 350.787C217.894 358.248 223.916 364.322 231.378 364.355H231.437C238.872 364.355 244.915 358.343 244.947 350.902L244.96 347.858H271.908L271.925 350.924C271.969 358.359 278.008 364.355 285.433 364.355H285.514C292.976 364.311 298.988 358.228 298.945 350.767L298.928 347.859H299.048C306.51 347.859 312.558 341.81 312.558 334.348C312.558 326.887 306.51 320.838 299.048 320.838H298.77L298.647 299.741H299.048ZM271.749 320.838H245.074L245.164 299.741H271.626L271.749 320.838Z" fill="#132C63"/>
<path d="M153.36 253.775C145.898 253.775 139.85 259.824 139.85 267.286V305.685C139.85 313.147 145.898 319.196 153.36 319.196C160.822 319.196 166.871 313.147 166.871 305.685V267.286C166.871 259.824 160.822 253.775 153.36 253.775Z" fill="#132C63"/>
<path d="M152.721 364.355C160.182 364.355 166.231 358.306 166.231 350.844C166.231 343.382 160.182 337.333 152.721 337.333C145.259 337.333 139.21 343.382 139.21 350.844C139.21 358.306 145.259 364.355 152.721 364.355Z" fill="#132C63"/>
<path d="M361.494 298.934C354.032 298.934 347.983 304.983 347.983 312.445V350.844C347.983 358.306 354.032 364.355 361.494 364.355C368.956 364.355 375.005 358.306 375.005 350.844V312.445C375.005 304.983 368.956 298.934 361.494 298.934Z" fill="#000F35"/>
<path d="M362.134 280.796C369.595 280.796 375.644 274.747 375.644 267.286C375.644 259.824 369.595 253.775 362.134 253.775C354.672 253.775 348.623 259.824 348.623 267.286C348.623 274.747 354.672 280.796 362.134 280.796Z" fill="#000F35"/>
</g>
<defs>
<clipPath id="clip0">
<rect width="512" height="512" fill="white"/>
</clipPath>
</defs>
</svg>
