<svg width="512" height="512" viewBox="0 0 512 512" fill="none" xmlns="http://www.w3.org/2000/svg">
<g clip-path="url(#clip0)">
<path d="M483.784 109.204C468.227 109.204 455.61 121.811 455.599 137.369L455.589 152.09C455.578 167.649 442.962 180.255 427.404 180.255H413.739L413.777 289.28C481.477 289.28 511.968 234.398 511.968 166.699V137.39C511.97 121.824 499.351 109.204 483.784 109.204V109.204Z" fill="#E0D2CD"/>
<path d="M84.5955 180.255C69.0367 180.255 56.4211 167.649 56.4101 152.09L56.4001 137.369C56.3891 121.811 43.7735 109.204 28.2147 109.204C12.6489 109.204 0.0292969 121.823 0.0292969 137.39V166.699C0.0292969 234.398 33.5918 289.28 101.291 289.28V180.255H84.5955Z" fill="#F2E9E7"/>
<path d="M257.552 0C163.125 0 86.3047 76.8214 86.3047 171.247V456.157C86.3047 470.732 94.2437 484.142 107.022 491.153C119.802 498.162 135.378 497.653 147.67 489.82L147.778 489.751C150.988 487.705 155.144 487.693 158.367 489.725L184.028 505.892C196.954 514.039 213.658 514.037 226.584 505.893L252.321 489.678C255.523 487.658 259.664 487.659 262.869 489.677L288.603 505.892C295.067 509.965 302.474 512.002 309.884 512.001C317.29 512.001 324.7 509.964 331.162 505.892L356.811 489.732C360.036 487.701 364.196 487.713 367.408 489.762C379.7 497.609 395.28 498.128 408.068 491.119C420.856 484.111 428.8 470.699 428.8 456.116V171.247C428.799 76.8214 351.978 0 257.552 0V0Z" fill="#FFF4F4"/>
<path d="M262.869 489.676L288.603 505.891C295.067 509.964 302.474 512.001 309.884 512C317.29 512 324.7 509.963 331.162 505.891L356.811 489.731C360.036 487.7 364.196 487.712 367.408 489.761C379.7 497.608 395.28 498.127 408.068 491.118C420.856 484.11 428.8 470.698 428.8 456.115V171.247C428.799 76.8214 351.977 0 257.552 0V488.166C259.402 488.158 261.255 488.659 262.869 489.676Z" fill="#F2E9E7"/>
<path d="M200.011 161.116C208.302 161.116 215.023 154.395 215.023 146.104C215.023 137.814 208.302 131.093 200.011 131.093C191.721 131.093 185 137.814 185 146.104C185 154.395 191.721 161.116 200.011 161.116Z" fill="#132C63"/>
<path d="M318.82 181.347C339.071 181.347 355.488 164.93 355.488 144.679C355.488 124.428 339.071 108.011 318.82 108.011C298.569 108.011 282.152 124.428 282.152 144.679C282.152 164.93 298.569 181.347 318.82 181.347Z" fill="#9BFCFF"/>
<path d="M318.82 196.358C290.323 196.358 267.141 173.175 267.141 144.679C267.141 116.183 290.323 93 318.82 93C347.316 93 370.498 116.183 370.498 144.679C370.498 173.175 347.316 196.358 318.82 196.358ZM318.82 123.023C306.878 123.023 297.163 132.737 297.163 144.679C297.163 156.62 306.878 166.335 318.82 166.335C330.761 166.335 340.475 156.62 340.475 144.679C340.475 132.737 330.761 123.023 318.82 123.023V123.023Z" fill="#000F35"/>
<path d="M297.365 222.497H215.023C206.733 222.497 200.012 229.218 200.012 237.508V283.701C200.012 314.679 225.216 339.883 256.195 339.883C287.174 339.883 312.377 314.679 312.377 283.701V237.508C312.376 229.217 305.655 222.497 297.365 222.497V222.497Z" fill="#FF9AC9"/>
<path d="M297.367 222.497H256.195V339.883H256.196C287.175 339.883 312.378 314.679 312.378 283.701V237.508C312.378 229.217 305.657 222.497 297.367 222.497V222.497Z" fill="#FF5CA8"/>
</g>
<defs>
<clipPath id="clip0">
<rect width="512" height="512" fill="white"/>
</clipPath>
</defs>
</svg>
