<svg width="512" height="512" viewBox="0 0 512 512" fill="none" xmlns="http://www.w3.org/2000/svg">
<g clip-path="url(#clip0)">
<path d="M483.784 109.204C468.227 109.204 455.61 121.811 455.599 137.369L455.589 152.09C455.578 167.649 442.962 180.255 427.404 180.255H413.739L413.777 289.28C481.477 289.28 511.968 234.398 511.968 166.699V137.39C511.97 121.824 499.351 109.204 483.784 109.204V109.204Z" fill="#E0D2CD"/>
<path d="M84.5955 180.255C69.0367 180.255 56.4211 167.649 56.4101 152.09L56.4001 137.369C56.3891 121.811 43.7735 109.204 28.2147 109.204C12.6489 109.204 0.0292969 121.823 0.0292969 137.39V166.699C0.0292969 234.398 33.5918 289.28 101.291 289.28V180.255H84.5955Z" fill="#F2E9E7"/>
<path d="M257.552 0C163.125 0 86.3047 76.8214 86.3047 171.247V456.157C86.3047 470.732 94.2437 484.142 107.022 491.153C119.802 498.162 135.378 497.653 147.67 489.82L147.778 489.751C150.988 487.705 155.144 487.693 158.367 489.725L184.028 505.892C196.954 514.039 213.658 514.037 226.584 505.893L252.321 489.678C255.523 487.658 259.664 487.659 262.869 489.677L288.603 505.892C295.067 509.965 302.474 512.002 309.884 512.001C317.29 512.001 324.7 509.964 331.162 505.892L356.811 489.732C360.036 487.701 364.196 487.713 367.408 489.762C379.7 497.609 395.28 498.128 408.068 491.119C420.856 484.111 428.8 470.699 428.8 456.116V171.247C428.799 76.8214 351.978 0 257.552 0V0Z" fill="#FFF4F4"/>
<path d="M262.869 489.676L288.603 505.891C295.067 509.964 302.474 512.001 309.884 512C317.29 512 324.7 509.963 331.162 505.891L356.811 489.731C360.036 487.7 364.196 487.712 367.408 489.761C379.7 497.608 395.28 498.127 408.068 491.118C420.856 484.11 428.8 470.698 428.8 456.115V171.247C428.799 76.8214 351.977 0 257.552 0V488.166C259.402 488.158 261.255 488.659 262.869 489.676Z" fill="#F2E9E7"/>
<path d="M353.81 247.758H231.901V278.874C231.901 287.15 225.192 293.86 216.916 293.86C208.64 293.86 201.931 287.15 201.931 278.874V247.758H165.251C162.825 247.758 160.859 249.724 160.859 252.15C160.859 302.299 201.513 342.954 251.663 342.954H265.857C265.797 342.407 265.76 341.855 265.76 341.292V313.382C265.76 305.106 272.47 298.397 280.745 298.397C289.021 298.397 295.731 305.106 295.731 313.382V338.438C332.005 326.535 358.202 292.404 358.202 252.149C358.202 249.724 356.236 247.758 353.81 247.758V247.758Z" fill="#132C63"/>
<path d="M182.701 182.401C202.97 182.401 219.401 165.97 219.401 145.701C219.401 125.431 202.97 109 182.701 109C162.431 109 146 125.431 146 145.701C146 165.97 162.431 182.401 182.701 182.401Z" fill="#132C63"/>
<path d="M328.886 182.401C349.155 182.401 365.587 165.97 365.587 145.701C365.587 125.431 349.155 109 328.886 109C308.617 109 292.186 125.431 292.186 145.701C292.186 165.97 308.617 182.401 328.886 182.401Z" fill="#000F35"/>
<path d="M353.809 247.758H255.631V342.954H265.857C265.797 342.407 265.76 341.855 265.76 341.292V313.382C265.76 305.106 272.469 298.397 280.745 298.397C289.021 298.397 295.73 305.106 295.73 313.382V338.438C332.004 326.535 358.201 292.404 358.201 252.149C358.201 249.724 356.235 247.758 353.809 247.758V247.758Z" fill="#000F35"/>
</g>
<defs>
<clipPath id="clip0">
<rect width="512" height="512" fill="white"/>
</clipPath>
</defs>
</svg>
