<svg width="512" height="512" viewBox="0 0 512 512" fill="none" xmlns="http://www.w3.org/2000/svg">
<g clip-path="url(#clip0)">
<path d="M483.784 109.204C468.227 109.204 455.61 121.811 455.599 137.369L455.589 152.09C455.578 167.649 442.962 180.255 427.404 180.255H413.739L413.777 289.28C481.477 289.28 511.968 234.398 511.968 166.699V137.39C511.97 121.824 499.351 109.204 483.784 109.204V109.204Z" fill="#E0D2CD"/>
<path d="M84.5955 180.255C69.0367 180.255 56.4211 167.649 56.4101 152.09L56.4001 137.369C56.3891 121.811 43.7735 109.204 28.2147 109.204C12.6489 109.204 0.0292969 121.823 0.0292969 137.39V166.699C0.0292969 234.398 33.5918 289.28 101.291 289.28V180.255H84.5955Z" fill="#F2E9E7"/>
<path d="M257.552 0C163.125 0 86.3047 76.8214 86.3047 171.247V456.157C86.3047 470.732 94.2437 484.142 107.022 491.153C119.802 498.162 135.378 497.653 147.67 489.82L147.778 489.751C150.988 487.705 155.144 487.693 158.367 489.725L184.028 505.892C196.954 514.039 213.658 514.037 226.584 505.893L252.321 489.678C255.523 487.658 259.664 487.659 262.869 489.677L288.603 505.892C295.067 509.965 302.474 512.002 309.884 512.001C317.29 512.001 324.7 509.964 331.162 505.892L356.811 489.732C360.036 487.701 364.196 487.713 367.408 489.762C379.7 497.609 395.28 498.128 408.068 491.119C420.856 484.111 428.8 470.699 428.8 456.116V171.247C428.799 76.8214 351.978 0 257.552 0V0Z" fill="#FFF4F4"/>
<path d="M262.869 489.676L288.603 505.891C295.067 509.964 302.474 512.001 309.884 512C317.29 512 324.7 509.963 331.162 505.891L356.811 489.731C360.036 487.7 364.196 487.712 367.408 489.761C379.7 497.608 395.28 498.127 408.068 491.118C420.856 484.11 428.8 470.698 428.8 456.115V171.247C428.799 76.8214 351.977 0 257.552 0V488.166C259.402 488.158 261.255 488.659 262.869 489.676Z" fill="#F2E9E7"/>
<path d="M182.507 227.242C151.319 227.242 126.035 201.958 126.035 170.769V140.399C126.035 128.048 136.047 118.036 148.398 118.036H216.616C228.967 118.036 238.98 128.048 238.98 140.399V170.769C238.98 201.958 213.696 227.242 182.507 227.242V227.242Z" fill="#FFF4F4"/>
<path d="M238.978 172.746C237.858 172.746 236.72 172.536 235.617 172.094C230.986 170.237 228.736 164.976 230.594 160.345C233.259 153.699 241.564 142.451 255.787 142.451C269.993 142.451 278.329 153.682 281.016 160.318L264.264 167.099L264.303 167.193C264.185 166.92 261.35 160.522 255.787 160.522C250.242 160.522 247.392 167.005 247.366 167.071C245.952 170.6 242.561 172.746 238.978 172.746V172.746Z" fill="#132C63"/>
<path d="M289.087 267.575V295.973C289.087 303.72 282.807 310 275.06 310H236.58C228.833 310 222.553 303.72 222.553 295.973V267.575L255.765 282.52L289.087 267.575Z" fill="white"/>
<path d="M329.147 227.242C297.958 227.242 272.675 201.958 272.675 170.769V140.399C272.675 128.048 282.687 118.036 295.038 118.036H363.256C375.607 118.036 385.619 128.048 385.619 140.399V170.769C385.619 201.958 360.336 227.242 329.147 227.242Z" fill="#F1E1DB"/>
<path d="M181.036 194.206C193.989 194.206 204.49 183.709 204.49 170.76C204.49 157.811 193.989 147.314 181.036 147.314C168.083 147.314 157.582 157.811 157.582 170.76C157.582 183.709 168.083 194.206 181.036 194.206Z" fill="#132C63"/>
<path d="M329.146 194.206C342.1 194.206 352.6 183.709 352.6 170.76C352.6 157.811 342.1 147.314 329.146 147.314C316.193 147.314 305.692 157.811 305.692 170.76C305.692 183.709 316.193 194.206 329.146 194.206Z" fill="#000F35"/>
<path d="M255.787 142.451C255.78 142.451 255.773 142.451 255.766 142.451V160.523C255.773 160.523 255.78 160.522 255.787 160.522C261.35 160.522 264.185 166.92 264.304 167.193L264.265 167.099L281.017 160.318C278.329 153.681 269.993 142.451 255.787 142.451Z" fill="#000F35"/>
<path d="M182.508 236.278C146.387 236.278 117 206.891 117 170.77V140.399C117 123.086 131.086 109 148.399 109H216.617C233.93 109 248.016 123.086 248.016 140.399V170.77C248.016 206.891 218.629 236.278 182.508 236.278V236.278ZM148.399 127.072C141.05 127.072 135.072 133.05 135.072 140.399V170.77C135.072 196.926 156.352 218.206 182.508 218.206C208.664 218.206 229.944 196.926 229.944 170.77V140.399C229.944 133.05 223.966 127.072 216.617 127.072H148.399Z" fill="#033A7C"/>
<path d="M329.148 236.278C293.027 236.278 263.64 206.891 263.64 170.77V140.399C263.64 123.086 277.725 109 295.039 109H363.257C380.57 109 394.656 123.086 394.656 140.399V170.77C394.656 206.891 365.269 236.278 329.148 236.278ZM295.039 127.072C287.69 127.072 281.711 133.05 281.711 140.399V170.77C281.711 196.926 302.991 218.206 329.148 218.206C355.304 218.206 376.584 196.926 376.584 170.77V140.399C376.584 133.05 370.605 127.072 363.257 127.072H295.039Z" fill="#132C63"/>
<path d="M275.06 310C282.807 310 289.087 303.72 289.087 295.973V267.575L255.765 282.52V310H275.06Z" fill="#F1E1DB"/>
<path d="M255.869 286.797C235.155 286.797 215.86 277.121 205.512 261.545C202.751 257.389 203.882 251.78 208.038 249.019C212.194 246.258 217.802 247.388 220.565 251.545C227.605 262.142 241.133 268.726 255.869 268.726C270.538 268.726 284.036 262.186 291.097 251.659C293.876 247.515 299.49 246.408 303.634 249.188C307.778 251.967 308.885 257.581 306.105 261.725C295.734 277.19 276.484 286.797 255.869 286.797V286.797Z" fill="#132C63"/>
<path d="M303.635 249.187C299.49 246.407 293.877 247.514 291.098 251.658C284.036 262.186 270.538 268.725 255.869 268.725C255.834 268.725 255.8 268.724 255.766 268.724V286.796C255.8 286.796 255.835 286.797 255.869 286.797C276.484 286.797 295.734 277.19 306.106 261.725C308.886 257.58 307.779 251.967 303.635 249.187Z" fill="#000F35"/>
</g>
<defs>
<clipPath id="clip0">
<rect width="512" height="512" fill="white"/>
</clipPath>
</defs>
</svg>
