<svg width="512" height="512" viewBox="0 0 512 512" fill="none" xmlns="http://www.w3.org/2000/svg">
<g clip-path="url(#clip0)">
<path d="M483.784 109.204C468.227 109.204 455.61 121.811 455.599 137.369L455.589 152.09C455.578 167.649 442.962 180.255 427.404 180.255H413.739L413.777 289.28C481.477 289.28 511.968 234.398 511.968 166.699V137.39C511.97 121.824 499.351 109.204 483.784 109.204V109.204Z" fill="#E0D2CD"/>
<path d="M84.5955 180.255C69.0367 180.255 56.4211 167.649 56.4101 152.09L56.4001 137.369C56.3891 121.811 43.7735 109.204 28.2147 109.204C12.6489 109.204 0.0292969 121.823 0.0292969 137.39V166.699C0.0292969 234.398 33.5918 289.28 101.291 289.28V180.255H84.5955Z" fill="#F2E9E7"/>
<path d="M257.552 0C163.125 0 86.3047 76.8214 86.3047 171.247V456.157C86.3047 470.732 94.2437 484.142 107.022 491.153C119.802 498.162 135.378 497.653 147.67 489.82L147.778 489.751C150.988 487.705 155.144 487.693 158.367 489.725L184.028 505.892C196.954 514.039 213.658 514.037 226.584 505.893L252.321 489.678C255.523 487.658 259.664 487.659 262.869 489.677L288.603 505.892C295.067 509.965 302.474 512.002 309.884 512.001C317.29 512.001 324.7 509.964 331.162 505.892L356.811 489.732C360.036 487.701 364.196 487.713 367.408 489.762C379.7 497.609 395.28 498.128 408.068 491.119C420.856 484.111 428.8 470.699 428.8 456.116V171.247C428.799 76.8214 351.978 0 257.552 0V0Z" fill="#FFF4F4"/>
<path d="M262.869 489.676L288.603 505.891C295.067 509.964 302.474 512.001 309.884 512C317.29 512 324.7 509.963 331.162 505.891L356.811 489.731C360.036 487.7 364.196 487.712 367.408 489.761C379.7 497.608 395.28 498.127 408.068 491.118C420.856 484.11 428.8 470.698 428.8 456.115V171.247C428.799 76.8214 351.977 0 257.552 0V488.166C259.402 488.158 261.255 488.659 262.869 489.676Z" fill="#F2E9E7"/>
<path d="M262.73 288.923C238.579 288.923 216.248 275.377 204.45 253.57C202.096 249.22 203.715 243.786 208.065 241.432C212.414 239.078 217.849 240.697 220.202 245.047C228.867 261.064 245.163 271.013 262.73 271.013C280.215 271.013 296.473 261.133 305.16 245.228C307.531 240.888 312.972 239.292 317.311 241.661C321.652 244.032 323.249 249.472 320.878 253.812C309.05 275.469 286.769 288.923 262.73 288.923V288.923Z" fill="#132C63"/>
<path d="M394.586 106.001H243.758L199.096 145.26L200.169 106.001H130.758C121.745 120.838 116.633 133.227 112.967 152.575C111.217 161.809 111.853 171.342 114.786 180.27C116.953 186.867 120.953 192.756 126.45 196.997C130.629 200.22 135.497 202.525 140.773 203.619C141.237 203.715 141.704 203.802 142.173 203.88C144.137 204.208 140.149 203.88 142.173 203.88L176.64 183.314L185.486 204.376H217.9C228.768 204.376 238.591 197.902 242.878 187.915C250.218 170.815 274.477 170.86 281.753 187.987L281.901 188.333C286.164 198.37 296.013 204.886 306.918 204.886H379.351C379.749 204.886 380.146 204.879 380.542 204.865C393.37 204.42 404.712 196.373 409.896 184.63C413.63 176.045 414.847 166.573 413.42 157.32C410.238 136.689 404.319 122.025 394.586 106.001V106.001Z" fill="#132C63"/>
<path d="M397.253 110.531C395.664 107.74 392.711 106 389.499 106H262.617V175.126C270.415 175.24 278.157 179.524 281.752 187.987L281.9 188.334C286.164 198.37 296.013 204.886 306.917 204.886H379.349C379.747 204.886 380.145 204.879 380.541 204.865C393.369 204.42 404.711 196.373 409.894 184.63C413.629 176.046 414.845 166.573 413.419 157.32C410.539 138.647 405.417 124.861 397.253 110.531Z" fill="#000F35"/>
<path d="M317.311 241.661C312.971 239.291 307.53 240.888 305.16 245.228C296.473 261.133 280.215 271.013 262.73 271.013C262.692 271.013 262.655 271.011 262.618 271.011V288.922C262.656 288.922 262.693 288.923 262.73 288.923C286.769 288.923 309.05 275.47 320.878 253.812C323.248 249.472 321.651 244.032 317.311 241.661Z" fill="#000F35"/>
<path d="M185.487 204.376L243.758 106H200.17L142.169 203.908C144.068 204.214 146.002 204.376 147.956 204.376H185.487Z" fill="#FFF4F4"/>
</g>
<defs>
<clipPath id="clip0">
<rect width="512" height="512" fill="white"/>
</clipPath>
</defs>
</svg>
