<svg width="512" height="512" viewBox="0 0 512 512" fill="none" xmlns="http://www.w3.org/2000/svg">
<g clip-path="url(#clip0)">
<path d="M257.552 0C163.125 0 86.3047 76.8214 86.3047 171.247V456.157C86.3047 470.732 94.2437 484.142 107.022 491.153C119.802 498.162 135.378 497.653 147.67 489.82L147.778 489.751C150.988 487.705 155.144 487.693 158.367 489.725L184.028 505.892C196.954 514.039 213.658 514.037 226.584 505.893L252.321 489.678C255.523 487.658 259.664 487.659 262.869 489.677L288.603 505.892C295.067 509.965 302.474 512.002 309.884 512.001C317.29 512.001 324.7 509.964 331.162 505.892L356.811 489.732C360.036 487.701 364.196 487.713 367.408 489.762C379.7 497.609 395.28 498.128 408.068 491.119C420.856 484.111 428.8 470.699 428.8 456.116V171.247C428.799 76.8214 351.978 0 257.552 0V0Z" fill="#FFF4F4"/>
<path d="M262.869 489.676L288.603 505.891C295.067 509.964 302.474 512.001 309.884 512C317.29 512 324.7 509.963 331.162 505.891L356.811 489.731C360.036 487.7 364.196 487.712 367.408 489.761C379.7 497.608 395.28 498.127 408.068 491.118C420.856 484.11 428.8 470.698 428.8 456.115V171.247C428.799 76.8214 351.977 0 257.552 0V488.166C259.402 488.158 261.255 488.659 262.869 489.676Z" fill="#F2E9E7"/>
<path d="M130.613 153.002C123.722 153.002 118.092 147.46 118.004 140.548C117.835 127.216 122.868 114.616 132.177 105.068C141.486 95.5205 153.954 90.1699 167.286 90.0008C167.341 90.0008 167.395 90 167.449 90C174.34 90 179.971 95.5424 180.059 102.454C180.146 109.419 174.572 115.138 167.606 115.226C153.992 115.399 143.057 126.615 143.23 140.229C143.317 147.194 137.743 152.913 130.777 153.001C130.722 153.002 130.667 153.002 130.613 153.002V153.002Z" fill="#132C63"/>
<path d="M384.383 152.059C377.491 152.059 371.861 146.517 371.773 139.606C371.603 126.098 360.558 115.227 347.089 115.227C346.983 115.227 346.878 115.227 346.772 115.229C346.717 115.229 346.662 115.229 346.608 115.229C339.717 115.229 334.087 109.687 333.999 102.776C333.912 95.8105 339.486 90.0923 346.452 90.0032C359.797 89.8552 372.386 94.8678 381.932 104.176C391.48 113.484 396.831 125.953 397 139.285C397.087 146.25 391.513 151.969 384.547 152.058C384.491 152.059 384.437 152.059 384.383 152.059Z" fill="#000F35"/>
<path d="M176.613 233.049C194.695 233.049 209.353 218.396 209.353 200.319C209.353 182.243 194.695 167.59 176.613 167.59C158.531 167.59 143.872 182.243 143.872 200.319C143.872 218.396 158.531 233.049 176.613 233.049Z" fill="#132C63"/>
<path d="M338.388 233.049C356.47 233.049 371.129 218.396 371.129 200.319C371.129 182.243 356.47 167.59 338.388 167.59C320.306 167.59 305.647 182.243 305.647 200.319C305.647 218.396 320.306 233.049 338.388 233.049Z" fill="#000F35"/>
</g>
<defs>
<clipPath id="clip0">
<rect width="512" height="512" fill="white"/>
</clipPath>
</defs>
</svg>
