<svg width="512" height="512" viewBox="0 0 512 512" fill="none" xmlns="http://www.w3.org/2000/svg">
<g clip-path="url(#clip0)">
<path d="M257.552 0C163.125 0 86.3047 76.8214 86.3047 171.247V456.157C86.3047 470.732 94.2437 484.142 107.022 491.153C119.802 498.162 135.378 497.653 147.67 489.82L147.778 489.751C150.988 487.705 155.144 487.693 158.367 489.725L184.028 505.892C196.954 514.039 213.658 514.037 226.584 505.893L252.321 489.678C255.523 487.658 259.664 487.659 262.869 489.677L288.603 505.892C295.067 509.965 302.474 512.002 309.884 512.001C317.29 512.001 324.7 509.964 331.162 505.892L356.811 489.732C360.036 487.701 364.196 487.713 367.408 489.762C379.7 497.609 395.28 498.128 408.068 491.119C420.856 484.111 428.8 470.699 428.8 456.116V171.247C428.799 76.8214 351.978 0 257.552 0V0Z" fill="#FFF4F4"/>
<path d="M262.869 489.676L288.603 505.891C295.067 509.964 302.474 512.001 309.884 512C317.29 512 324.7 509.963 331.162 505.891L356.811 489.731C360.036 487.7 364.196 487.712 367.408 489.761C379.7 497.608 395.28 498.127 408.068 491.118C420.856 484.11 428.8 470.698 428.8 456.115V171.247C428.799 76.8214 351.977 0 257.552 0V488.166C259.402 488.158 261.255 488.659 262.869 489.676Z" fill="#F2E9E7"/>
<path d="M295.615 237.471C268.8 223.642 236.781 225.665 211.374 242.812C191.58 254.31 205.309 282.336 225.845 275.322L225.846 275.326C246.226 266.797 269.708 266.713 290.215 275.358L290.221 275.345C295.995 277.165 300.612 276.733 304.508 274.601L295.615 237.471Z" fill="#132C63"/>
<path d="M180.95 128.079C178.683 128.079 176.385 127.864 174.078 127.418C169.135 126.46 165.904 121.678 166.86 116.734C167.817 111.79 172.6 108.558 177.544 109.516C187.209 111.389 196.588 105.048 198.457 95.3865C199.415 90.4426 204.2 87.2103 209.141 88.1688C214.085 89.1261 217.316 93.9089 216.359 98.8528C213.025 116.077 197.878 128.079 180.95 128.079V128.079Z" fill="#132C63"/>
<path d="M336.112 128.078C319.183 128.078 304.038 116.078 300.702 98.8517C299.745 93.9085 302.976 89.1251 307.92 88.1678C312.864 87.2111 317.646 90.4422 318.604 95.3854C320.474 105.046 329.853 111.385 339.517 109.515C344.458 108.558 349.244 111.789 350.201 116.733C351.157 121.676 347.926 126.459 342.982 127.417C340.678 127.863 338.378 128.078 336.112 128.078Z" fill="#000F35"/>
<path d="M198.768 183.123C181.543 183.123 165.602 173.783 157.167 158.747C154.704 154.356 156.267 148.799 160.658 146.336C165.048 143.873 170.606 145.435 173.07 149.826C178.282 159.117 188.129 164.889 198.768 164.889C208.737 164.889 217.955 159.899 223.424 151.542C226.181 147.328 231.833 146.148 236.045 148.907C240.259 151.663 241.439 157.314 238.681 161.528C229.831 175.05 214.91 183.123 198.768 183.123V183.123Z" fill="#132C63"/>
<path d="M316.583 183.123C300.261 183.123 285.251 174.912 276.43 161.158C273.712 156.92 274.944 151.28 279.183 148.562C283.419 145.845 289.06 147.075 291.779 151.315C297.231 159.814 306.503 164.889 316.584 164.889C327.033 164.889 336.482 159.529 341.862 150.55C344.449 146.232 350.049 144.827 354.368 147.415C358.687 150.003 360.091 155.602 357.503 159.921C348.929 174.233 333.249 183.123 316.583 183.123Z" fill="#000F35"/>
<path d="M257.401 228.376V268.908C268.576 268.825 279.781 270.958 290.215 275.357L290.221 275.344C295.995 277.165 300.612 276.733 304.508 274.601L295.615 237.472C283.57 231.259 270.475 228.257 257.401 228.376Z" fill="#000F35"/>
<path d="M362.19 211.807C347.342 207.339 318.961 203.198 310.616 202.035C273.57 196.874 271.482 198.346 268.593 200.387C264.507 203.27 263.511 208.91 266.353 213.023C266.584 213.358 289.462 246.758 289.462 272.532C289.462 289.306 296.071 304.999 308.073 316.721C319.713 328.091 334.981 334.299 351.212 334.299C351.711 334.299 352.212 334.293 352.714 334.282C368.576 333.909 383.543 327.472 394.856 316.158C406.17 304.844 412.607 289.878 412.98 274.016C413.687 243.968 395.649 221.875 362.19 211.807V211.807Z" fill="#00FAFF"/>
<path d="M289.46 272.532C289.46 289.306 296.07 305 308.071 316.722C319.711 328.091 334.979 334.3 351.211 334.3C351.71 334.3 352.211 334.294 352.712 334.282C368.309 333.915 383.038 327.683 394.282 316.719L266.573 202.344C264.267 205.4 264.06 209.707 266.352 213.023C266.583 213.358 289.46 246.758 289.46 272.532V272.532Z" fill="#17CDF5"/>
</g>
<defs>
<clipPath id="clip0">
<rect width="512" height="512" fill="white"/>
</clipPath>
</defs>
</svg>
