<svg width="512" height="512" viewBox="0 0 512 512" fill="none" xmlns="http://www.w3.org/2000/svg">
<path d="M472.772 216.771C472.772 158.869 450.224 104.433 409.28 63.4912C368.338 22.5475 313.902 0 256 0C198.098 0 143.662 22.5475 102.72 63.4912C61.777 104.433 39.2285 158.869 39.2285 216.771C39.2285 253.699 48.6924 290.163 66.6001 322.255C123.301 440.077 249.005 509.481 250.271 510.17C250.36 510.218 250.451 510.259 250.54 510.306C250.605 510.34 250.666 510.378 250.732 510.411L250.734 510.412C250.769 510.429 250.805 510.44 250.84 510.457C251.302 510.684 251.772 510.886 252.25 511.062C252.343 511.096 252.435 511.128 252.528 511.161C252.985 511.32 253.448 511.458 253.916 511.572C254.032 511.6 254.147 511.623 254.262 511.648C254.717 511.747 255.176 511.83 255.636 511.886C255.748 511.9 255.859 511.906 255.972 511.917C256.404 511.96 256.838 511.986 257.273 511.991C257.327 511.992 257.381 512 257.435 512C257.979 512 258.519 511.962 259.056 511.904C259.117 511.897 259.178 511.893 259.239 511.885C259.755 511.823 260.264 511.733 260.769 511.619C260.848 511.601 260.927 511.581 261.006 511.561C261.519 511.434 262.028 511.288 262.525 511.11C262.546 511.103 262.566 511.094 262.586 511.086C263.095 510.901 263.593 510.686 264.079 510.446C264.106 510.433 264.134 510.424 264.16 510.411C264.19 510.396 264.226 510.377 264.258 510.361C264.306 510.337 264.353 510.313 264.401 510.288C272.111 506.325 319.611 477.391 365.123 432.499C394.627 403.4 418.531 372.596 436.173 340.945C458.499 300.887 470.806 259.381 472.753 217.576C472.76 217.43 472.765 217.283 472.768 217.136C472.77 217.013 472.772 216.877 472.772 216.771Z" fill="#F2E9E7"/>
<path d="M256 0V511.918C256.423 511.959 256.848 511.986 257.273 511.99C257.327 511.991 257.381 511.999 257.435 511.999C257.979 511.999 258.52 511.961 259.056 511.903C259.117 511.896 259.178 511.892 259.239 511.884C259.755 511.822 260.264 511.732 260.77 511.618C260.849 511.6 260.928 511.58 261.007 511.56C261.521 511.433 262.029 511.287 262.527 511.109C262.548 511.102 262.568 511.093 262.588 511.085C263.096 510.9 263.594 510.685 264.08 510.445C264.107 510.432 264.135 510.423 264.163 510.41C264.193 510.395 264.229 510.376 264.261 510.36C264.309 510.336 264.356 510.312 264.404 510.287C272.114 506.324 319.614 477.39 365.126 432.498C394.63 403.399 418.534 372.595 436.175 340.944C458.501 300.886 470.808 259.38 472.755 217.575C472.762 217.429 472.767 217.282 472.77 217.135C472.772 217.014 472.774 216.878 472.774 216.772C472.774 158.87 450.227 104.434 409.283 63.4922C368.337 22.5485 313.901 0 256 0V0Z" fill="#E0D2CD"/>
<path d="M195.079 137.179L163.885 103.905C158.023 97.6526 148.203 97.3347 141.951 103.198C135.699 109.059 135.382 118.88 141.244 125.132L148.611 132.991C136.657 139.975 128.621 152.931 128.621 167.77C128.621 190.009 146.656 208.037 168.901 208.037C191.147 208.037 209.182 190.008 209.182 167.77C209.181 155.525 203.707 144.565 195.079 137.179V137.179Z" fill="#132C63"/>
<path d="M316.365 137.179L347.558 103.905C353.42 97.6526 363.241 97.3347 369.492 103.198C375.745 109.059 376.062 118.88 370.2 125.132L362.833 132.991C374.786 139.975 382.822 152.931 382.822 167.77C382.822 190.009 364.788 208.037 342.542 208.037C320.296 208.037 302.262 190.008 302.262 167.77C302.262 155.525 307.737 144.565 316.365 137.179Z" fill="#000F35"/>
</svg>
