<svg width="512" height="512" viewBox="0 0 512 512" fill="none" xmlns="http://www.w3.org/2000/svg">
<path d="M472.772 216.771C472.772 158.869 450.224 104.433 409.28 63.4912C368.338 22.5475 313.902 0 256 0C198.098 0 143.662 22.5475 102.72 63.4912C61.777 104.433 39.2285 158.869 39.2285 216.771C39.2285 253.699 48.6924 290.163 66.6001 322.255C123.301 440.077 249.005 509.481 250.271 510.17C250.36 510.218 250.451 510.259 250.54 510.306C250.605 510.34 250.666 510.378 250.732 510.411L250.734 510.412C250.769 510.429 250.805 510.44 250.84 510.457C251.302 510.684 251.772 510.886 252.25 511.062C252.343 511.096 252.435 511.128 252.528 511.161C252.985 511.32 253.448 511.458 253.916 511.572C254.032 511.6 254.147 511.623 254.262 511.648C254.717 511.747 255.176 511.83 255.636 511.886C255.748 511.9 255.859 511.906 255.972 511.917C256.404 511.96 256.838 511.986 257.273 511.991C257.327 511.992 257.381 512 257.435 512C257.979 512 258.519 511.962 259.056 511.904C259.117 511.897 259.178 511.893 259.239 511.885C259.755 511.823 260.264 511.733 260.769 511.619C260.848 511.601 260.927 511.581 261.006 511.561C261.519 511.434 262.028 511.288 262.525 511.11C262.546 511.103 262.566 511.094 262.586 511.086C263.095 510.901 263.593 510.686 264.079 510.446C264.106 510.433 264.134 510.424 264.16 510.411C264.19 510.396 264.226 510.377 264.258 510.361C264.306 510.337 264.353 510.313 264.401 510.288C272.111 506.325 319.611 477.391 365.123 432.499C394.627 403.4 418.531 372.596 436.173 340.945C458.499 300.887 470.806 259.381 472.753 217.576C472.76 217.43 472.765 217.283 472.768 217.136C472.77 217.013 472.772 216.877 472.772 216.771Z" fill="#F2E9E7"/>
<path d="M256 0V511.918C256.423 511.959 256.848 511.986 257.273 511.99C257.327 511.991 257.381 511.999 257.435 511.999C257.979 511.999 258.52 511.961 259.056 511.903C259.117 511.896 259.178 511.892 259.239 511.884C259.755 511.822 260.264 511.732 260.77 511.618C260.849 511.6 260.928 511.58 261.007 511.56C261.521 511.433 262.029 511.287 262.527 511.109C262.548 511.102 262.568 511.093 262.588 511.085C263.096 510.9 263.594 510.685 264.08 510.445C264.107 510.432 264.135 510.423 264.163 510.41C264.193 510.395 264.229 510.376 264.261 510.36C264.309 510.336 264.356 510.312 264.404 510.287C272.114 506.324 319.614 477.39 365.126 432.498C394.63 403.399 418.534 372.595 436.175 340.944C458.501 300.886 470.808 259.38 472.755 217.575C472.762 217.429 472.767 217.282 472.77 217.135C472.772 217.014 472.774 216.878 472.774 216.772C472.774 158.87 450.227 104.434 409.283 63.4922C368.337 22.5485 313.901 0 256 0V0Z" fill="#E0D2CD"/>
<path d="M356.88 330.855H153.74C149.135 330.855 145.579 334.858 146.061 339.438C147.169 349.944 150.29 359.951 155.086 369.176L255.378 388.517L355.535 369.176C360.331 359.951 363.451 349.945 364.56 339.438C365.041 334.858 361.485 330.855 356.88 330.855Z" fill="#FFF4F4"/>
<path d="M356.879 330.855H255.311V388.504L255.377 388.517L355.534 369.176C360.33 359.951 363.45 349.944 364.558 339.438C365.04 334.858 361.484 330.855 356.879 330.855V330.855Z" fill="#F1E1DB"/>
<path d="M155.084 369.176C172.187 402.07 210.625 425 255.309 425C299.992 425 338.431 402.071 355.534 369.176H155.084Z" fill="#132C63"/>
<path d="M255.311 424.999C299.993 424.998 338.431 402.069 355.534 369.175H255.311V424.999Z" fill="#000F35"/>
<path d="M386.813 129.28H235.592L190.813 168.641L191.89 129.28H122.298C113.261 144.156 108.135 156.578 104.46 175.976C102.705 185.234 103.343 194.791 106.284 203.743C108.456 210.358 112.466 216.261 117.978 220.513C122.168 223.745 127.048 226.056 132.338 227.153C132.804 227.249 133.272 227.336 133.742 227.415C135.711 227.743 131.713 227.415 133.742 227.415L168.299 206.795L177.168 227.912H209.667C220.563 227.912 230.412 221.421 234.71 211.408C242.068 194.263 266.391 194.308 273.686 211.48L273.834 211.828C278.109 221.89 287.984 228.423 298.916 228.423H371.538C371.938 228.423 372.336 228.416 372.733 228.402C385.594 227.956 396.966 219.888 402.163 208.115C405.907 199.507 407.127 190.011 405.697 180.733C402.506 160.049 396.572 145.346 386.813 129.28V129.28Z" fill="#132C63"/>
<path d="M389.488 133.823C387.894 131.024 384.933 129.28 381.713 129.28H254.5V198.586C262.318 198.701 270.08 202.996 273.685 211.481L273.833 211.829C278.108 221.891 287.982 228.425 298.915 228.425H371.537C371.936 228.425 372.334 228.417 372.731 228.404C385.593 227.957 396.964 219.889 402.162 208.116C405.906 199.509 407.125 190.012 405.695 180.735C402.808 162.012 397.673 148.19 389.488 133.823Z" fill="#000F35"/>
<path d="M177.169 227.913L235.593 129.28H191.891L133.738 227.444C135.642 227.751 137.581 227.913 139.541 227.913H177.169Z" fill="#FFF4F4"/>
</svg>
